SplineFontDB: 3.0
FontName: BerenikaBold
FullName: BerenikaBold
FamilyName: BerenikaBold
Weight: Bold
Copyright: wmk69 (wmk69@o2.pl)\nSIL Open Font License v.1.1
Version: 1.02
ItalicAngle: 0
UnderlinePosition: -81
UnderlineWidth: 122
Ascent: 1638
Descent: 410
LayerCount: 2
Layer: 0 1 "Warstwa t+AUIA-a"  1
Layer: 1 1 "Plan pierwszy"  0
XUID: [1021 783 23647091 13904592]
FSType: 0
OS2Version: 3
OS2_WeightWidthSlopeOnly: 0
OS2_UseTypoMetrics: 1
CreationTime: 1260698820
ModificationTime: 1305351801
PfmFamily: 17
TTFWeight: 700
TTFWidth: 5
LineGap: 0
VLineGap: 0
Panose: 2 1 8 3 2 4 4 6 2 4
OS2TypoAscent: 1998
OS2TypoAOffset: 0
OS2TypoDescent: -558
OS2TypoDOffset: 0
OS2TypoLinegap: 0
OS2WinAscent: 1998
OS2WinAOffset: 0
OS2WinDescent: 558
OS2WinDOffset: 0
HheadAscent: 1998
HheadAOffset: 0
HheadDescent: -558
HheadDOffset: 0
OS2SubXSize: 1434
OS2SubYSize: 1331
OS2SubXOff: 0
OS2SubYOff: 287
OS2SupXSize: 1434
OS2SupYSize: 1331
OS2SupXOff: 0
OS2SupYOff: 977
OS2StrikeYSize: 102
OS2StrikeYPos: 512
OS2Vendor: '    '
OS2CodePages: 20000093.00000000
OS2UnicodeRanges: 8000002f.4000204b.00000000.00000000
Lookup: 258 0 0 "'kern' Kerning poziomy w tablicy 0"  {"Podtablica 'kern' Kerning poziomy w tablicy 0"  } ['kern' ('DFLT' <'dflt' > 'grek' <'dflt' > 'latn' <'dflt' > ) ]
DEI: 91125
KernClass2: 20 16 "Podtablica 'kern' Kerning poziomy w tablicy 0" 
 79 A Agrave Aacute Acircumflex Atilde Adieresis Aring Amacron Abreve Aogonek Delta
 1 F
 43 K R Kcommaaccent Racute Rcommaaccent Rcaron
 40 L Lacute Lcommaaccent Lcaron Ldot Lslash
 34 T Tcommaaccent Tcaron Tbar uni021A
 1 V
 30 Y Yacute Ycircumflex Ydieresis
 61 a g q u w y agrave ugrave aogonek uogonek wcircumflex uni01E5
 129 c e h m n o p s ae ccedilla egrave ograve oslash thorn eogonek  hcircumflex ncommaaccent napostrophe eng oe scedilla scommaaccent
 8 f florin
 27 k kcommaaccent kgreenlandic
 14 r rcommaaccent
 1 v
 1 x
 1 z

StartChar: .notdef
Encoding: 65536 -1 0
Width: 994
Flags: W
HStem: 0 218<368 626> 1293 218<368 626>
VStem: 150 218<218 1293> 626 218<218 1293>
LayerCount: 2
Fore
SplineSet
150 0 m 1,0,-1
 150 1511 l 1,1,-1
 844 1511 l 1,2,-1
 844 0 l 1,3,-1
 150 0 l 1,0,-1
368 1293 m 1,4,-1
 368 218 l 1,5,-1
 626 218 l 1,6,-1
 626 1293 l 1,7,-1
 368 1293 l 1,4,-1
EndSplineSet
Validated: 1
EndChar

StartChar: exclam
Encoding: 33 33 4
Width: 841
GlyphClass: 2
Flags: W
HStem: -20 355<304.253 536.753> 1491 20G<271 571>
VStem: 245 352<40.2654 275.041> 271 300<470 1511>
LayerCount: 2
Fore
SplineSet
245 157 m 128,-1,1
 245 230 245 230 296 282 c 0,2,3
 347 335 347 335 421 335 c 0,4,5
 493 335 493 335 545 283 c 0,6,7
 594 233 594 233 597 159 c 1,8,9
 597 84 597 84 545 32 c 128,-1,10
 493 -20 493 -20 421 -20 c 0,11,12
 348 -20 348 -20 296 32 c 0,13,0
 245 84 245 84 245 157 c 128,-1,1
271 470 m 1,14,-1
 271 1511 l 1,15,-1
 571 1511 l 1,16,-1
 571 470 l 1,17,-1
 271 470 l 1,14,-1
EndSplineSet
Validated: 1
EndChar

StartChar: quotedbl
Encoding: 34 34 5
Width: 1056
GlyphClass: 2
Flags: W
HStem: 894 617<200 450 606 856>
VStem: 200 250<894 1511> 606 250<894 1511>
LayerCount: 2
Fore
SplineSet
606 894 m 1,0,-1
 606 1511 l 1,1,-1
 856 1511 l 1,2,-1
 856 894 l 1,3,-1
 606 894 l 1,0,-1
200 894 m 1,4,-1
 200 1511 l 1,5,-1
 450 1511 l 1,6,-1
 450 894 l 1,7,-1
 200 894 l 1,4,-1
EndSplineSet
Validated: 1
EndChar

StartChar: numbersign
Encoding: 35 35 6
Width: 1504
GlyphClass: 2
Flags: W
HStem: 479 250<150 450 700 804 1054 1354> 833 250<150 450 700 804 1054 1354>
VStem: 450 250<179 479 729 833 1083 1383> 804 250<179 479 729 833 1083 1383>
LayerCount: 2
Fore
SplineSet
450 179 m 1,0,-1
 450 479 l 1,1,-1
 150 479 l 1,2,-1
 150 729 l 1,3,-1
 450 729 l 1,4,-1
 450 833 l 1,5,-1
 150 833 l 1,6,-1
 150 1083 l 1,7,-1
 450 1083 l 1,8,-1
 450 1383 l 1,9,-1
 700 1383 l 1,10,-1
 700 1083 l 1,11,-1
 804 1083 l 1,12,-1
 804 1383 l 1,13,-1
 1054 1383 l 1,14,-1
 1054 1083 l 1,15,-1
 1354 1083 l 1,16,-1
 1354 833 l 1,17,-1
 1054 833 l 1,18,-1
 1054 729 l 1,19,-1
 1354 729 l 1,20,-1
 1354 479 l 1,21,-1
 1054 479 l 1,22,-1
 1054 179 l 1,23,-1
 804 179 l 1,24,-1
 804 479 l 1,25,-1
 700 479 l 1,26,-1
 700 179 l 1,27,-1
 450 179 l 1,0,-1
804 833 m 1,28,-1
 700 833 l 1,29,-1
 700 729 l 1,30,-1
 804 729 l 1,31,-1
 804 833 l 1,28,-1
EndSplineSet
Validated: 1
EndChar

StartChar: dollar
Encoding: 36 36 7
Width: 1636
GlyphClass: 2
Flags: W
HStem: -26 209<523.471 681> 704 284<981 1168.29>
VStem: 325 288<1084.44 1249.05> 681 300<-190 -26 209 704 1073 1291 1527.12 1691> 1231 305<431.125 593.811>
LayerCount: 2
Fore
SplineSet
80 296 m 1,0,-1
 330 423 l 1,1,-1
 367 364 l 2,2,3
 416 287 416 287 505 237 c 0,4,5
 589 190 589 190 681 183 c 1,6,-1
 681 759 l 1,7,-1
 641 766 l 1,8,9
 502 793 502 793 422 869 c 0,10,11
 325 960 325 960 325 1063 c 0,12,13
 325 1189 325 1189 382 1270 c 0,14,15
 487 1418 487 1418 637 1480 c 0,16,17
 662 1490 662 1490 681 1497 c 1,18,-1
 681 1691 l 1,19,-1
 981 1691 l 1,20,-1
 981 1533 l 1,21,22
 1072 1524 1072 1524 1142 1493 c 0,23,24
 1218 1459 1218 1459 1275 1415 c 2,25,-1
 1352 1357 l 1,26,-1
 1126 1203 l 1,27,-1
 1081 1248 l 2,28,29
 1058 1271 1058 1271 1026 1291 c 0,30,31
 1004 1305 1004 1305 981 1313 c 1,32,-1
 981 988 l 1,33,34
 1121 964 1121 964 1227 936 c 0,35,36
 1381 894 1381 894 1453 817 c 0,37,38
 1536 727 1536 727 1536 614 c 2,39,-1
 1536 603 l 2,40,41
 1536 468 1536 468 1442 325 c 0,42,43
 1335 163 1335 163 1079 40 c 0,44,45
 1033 18 1033 18 981 2 c 1,46,-1
 981 -190 l 1,47,-1
 681 -190 l 1,48,-1
 681 -26 l 1,49,50
 518 -19 518 -19 408 29 c 1,51,52
 267 92 267 92 176 182 c 0,53,54
 158 200 158 200 132 230 c 1,55,-1
 80 296 l 1,0,-1
681 1073 m 1,56,-1
 681 1291 l 1,57,58
 661 1271 661 1271 645 1246 c 0,59,60
 612 1197 612 1197 612 1160 c 1,61,-1
 613 1156 l 1,62,-1
 613 1155 l 1,63,64
 621 1095 621 1095 681 1073 c 1,56,-1
981 704 m 1,65,-1
 981 209 l 1,66,67
 1127 305 1127 305 1187 429 c 0,68,69
 1231 518 1231 518 1231 576 c 0,70,71
 1231 588 1231 588 1230 594 c 0,72,73
 1223 645 1223 645 1151 666 c 0,74,75
 1110 678 1110 678 981 704 c 1,65,-1
EndSplineSet
Validated: 1
EndChar

StartChar: percent
Encoding: 37 37 8
Width: 2068
GlyphClass: 2
Flags: W
HStem: 0 217<1385.03 1587.94> 453 223<1397.76 1599.97> 845 218<468.097 671.938> 1288 223<481.523 683.965>
VStem: 150 288<1083.54 1237.93> 432 321<0 321> 715 287<1108.35 1267.46> 1066 288<237.599 401.837> 1332 321<1190 1511> 1631 287<265.41 432.401>
DStem2: 432 0 753 0 0.511734 0.859144<164.267 1758.73>
LayerCount: 2
Fore
SplineSet
1653 1511 m 1,0,-1
 753 0 l 1,1,-1
 432 0 l 1,2,-1
 1332 1511 l 1,3,-1
 1653 1511 l 1,0,-1
1918 377 m 0,4,5
 1918 330 1918 330 1894 273 c 0,6,7
 1859 191 1859 191 1787 125 c 0,8,9
 1763 103 1763 103 1714 71 c 0,10,11
 1608 0 1608 0 1439 0 c 2,12,13
 1439 0 1439 0 1435 0 c 0,14,15
 1311 0 1311 0 1232 42 c 0,16,17
 1137 92 1137 92 1096 168 c 0,18,19
 1066 223 1066 223 1066 285 c 0,20,21
 1066 341 1066 341 1091 398 c 0,22,23
 1127 481 1127 481 1198 545 c 0,24,25
 1224 569 1224 569 1273 600 c 0,26,27
 1395 676 1395 676 1545 676 c 2,28,29
 1545 676 1545 676 1549 676 c 0,30,31
 1663 676 1663 676 1753 629 c 0,32,33
 1849 578 1849 578 1889 502 c 0,34,35
 1918 447 1918 447 1918 377 c 0,4,5
1391 403 m 0,36,37
 1354 366 1354 366 1354 302 c 2,38,39
 1354 302 1354 302 1354 296 c 0,40,41
 1354 256 1354 256 1384 237 c 0,42,43
 1417 217 1417 217 1464 217 c 0,44,45
 1468 217 1468 217 1482 219 c 0,46,47
 1558 228 1558 228 1591 264 c 0,48,49
 1631 309 1631 309 1631 371 c 2,50,-1
 1631 374 l 2,51,52
 1631 414 1631 414 1601 433 c 0,53,54
 1568 453 1568 453 1523 453 c 0,55,56
 1516 453 1516 453 1501 451 c 0,57,58
 1433 444 1433 444 1391 403 c 0,36,37
1002 1216 m 0,59,60
 1002 1170 1002 1170 978 1114 c 0,61,62
 943 1032 943 1032 871 968 c 0,63,64
 848 947 848 947 798 915 c 0,65,66
 692 845 692 845 523 845 c 2,67,68
 523 845 523 845 519 845 c 0,69,70
 396 845 396 845 316 886 c 0,71,72
 221 936 221 936 180 1011 c 0,73,74
 150 1066 150 1066 150 1126 c 0,75,76
 150 1181 150 1181 175 1237 c 0,77,78
 211 1318 211 1318 282 1382 c 0,79,80
 311 1408 311 1408 358 1437 c 0,81,82
 478 1511 478 1511 629 1511 c 2,83,-1
 633 1511 l 1,84,85
 748 1510 748 1510 837 1465 c 0,86,87
 934 1415 934 1415 973 1339 c 0,88,89
 1002 1283 1002 1283 1002 1216 c 0,59,60
475 1239 m 0,90,91
 438 1205 438 1205 438 1140 c 2,92,93
 438 1140 438 1140 438 1137 c 0,94,95
 438 1100 438 1100 467 1083 c 0,96,97
 502 1063 502 1063 550 1063 c 0,98,99
 557 1063 557 1063 571 1064 c 0,100,101
 638 1068 638 1068 675 1107 c 0,102,103
 715 1150 715 1150 715 1210 c 2,104,105
 715 1210 715 1210 715 1213 c 0,106,107
 715 1251 715 1251 685 1268 c 1,108,109
 652 1288 652 1288 605 1288 c 0,110,111
 601 1288 601 1288 587 1286 c 0,112,113
 518 1278 518 1278 475 1239 c 0,90,91
EndSplineSet
Validated: 1
EndChar

StartChar: ampersand
Encoding: 38 38 9
Width: 2088
GlyphClass: 2
Flags: W
HStem: -20 198<546.958 921.526> 0 6<2063.9 2069> 0 0 863 220<691.791 829> 1080 20G<1412 1712> 1308 223<704.245 928.562>
VStem: 150 299<275.368 656.254> 377 288<1105.63 1260.02> 1564 291<660.898 990.48>
DStem2: 1219 885 900 798 0.616795 -0.787124<-233.804 389.296 617.265 907.368>
LayerCount: 2
Fore
SplineSet
2083 0 m 1,0,-1
 1594 0 l 1,1,-1
 1577 9 l 2,2,3
 1534 32 1534 32 1481 82 c 0,4,5
 1435 125 1435 125 1382 194 c 2,6,-1
 1354 230 l 1,7,8
 1287 173 1287 173 1145 96 c 0,9,10
 931 -20 931 -20 763 -20 c 2,11,-1
 742 -20 l 2,12,13
 576 -20 576 -20 471 19 c 24,14,15
 366 59 366 59 293 124 c 0,16,17
 221 188 221 188 187 262 c 0,18,19
 156 330 156 330 151 426 c 0,20,21
 150 447 150 447 150 464 c 0,22,23
 150 522 150 522 163 576 c 0,24,25
 195 708 195 708 296 817 c 0,26,27
 372 899 372 899 462 952 c 1,28,29
 429 983 429 983 407 1023 c 0,30,31
 377 1078 377 1078 377 1141 c 0,32,33
 377 1194 377 1194 402 1252 c 0,34,35
 435 1329 435 1329 509 1400 c 0,36,37
 536 1426 536 1426 583 1455 c 0,38,39
 706 1531 706 1531 856 1531 c 2,40,-1
 861 1531 l 1,41,42
 988 1527 988 1527 1066 1478 c 0,43,44
 1130 1438 1130 1438 1180 1386 c 1,45,-1
 1210 1355 l 1,46,-1
 972 1198 l 1,47,-1
 959 1222 l 1,48,-1
 955 1230 l 1,49,50
 931 1266 931 1266 910 1282 c 0,51,52
 876 1308 876 1308 835 1308 c 2,53,-1
 832 1308 l 2,54,55
 822 1308 822 1308 813 1307 c 0,56,57
 745 1299 745 1299 701 1261 c 0,58,59
 665 1230 665 1230 665 1168 c 2,60,-1
 665 1166 l 2,61,62
 665 1125 665 1125 691 1105 c 0,63,64
 716 1086 716 1086 780 1083 c 1,65,-1
 860 1083 l 1,66,67
 983 1079 983 1079 1072 1025 c 0,68,69
 1153 976 1153 976 1219 885 c 1,70,-1
 1452 573 l 1,71,-1
 1467 589 l 1,72,73
 1521 650 1521 650 1546 710 c 0,74,75
 1564 753 1564 753 1564 816 c 2,76,-1
 1564 829 l 2,77,78
 1564 894 1564 894 1532 966 c 0,79,80
 1498 1043 1498 1043 1421 1094 c 2,81,-1
 1412 1100 l 1,82,-1
 1707 1100 l 1,83,-1
 1712 1097 l 1,84,85
 1743 1081 1743 1081 1780 1041 c 0,86,87
 1854 962 1854 962 1855 842 c 1,88,-1
 1855 838 l 2,89,90
 1855 729 1855 729 1798 625 c 0,91,92
 1743 522 1743 522 1624 418 c 1,93,-1
 1597 397 l 1,94,-1
 1697 275 l 2,95,96
 1760 198 1760 198 1832.5 132 c 128,-1,97
 1905 66 1905 66 2069 6 c 1,98,-1
 2083 0 l 1,0,-1
1225 395 m 1,99,-1
 900 798 l 2,100,101
 857 852 857 852 829 862 c 2,102,-1
 825 863 l 1,103,-1
 818 863 l 2,104,105
 749 863 749 863 697 839 c 0,106,107
 579 785 579 785 512 688 c 0,108,109
 472 629 472 629 454 538 c 0,110,111
 449 512 449 512 449 472 c 0,112,113
 449 447 449 447 451 419 c 0,114,115
 457 336 457 336 482 293 c 0,116,117
 516 234 516 234 572 208 c 0,118,119
 638 178 638 178 734 178 c 2,120,-1
 751 178 l 1,121,122
 870 189 870 189 1033 272 c 1,123,124
 1141 328 1141 328 1225 395 c 1,99,-1
EndSplineSet
Validated: 8408065
EndChar

StartChar: quotesingle
Encoding: 39 39 10
Width: 650
GlyphClass: 2
Flags: W
HStem: 894 617<200 450>
VStem: 200 250<894 1511>
LayerCount: 2
Fore
SplineSet
200 894 m 1,0,-1
 200 1511 l 1,1,-1
 450 1511 l 1,2,-1
 450 894 l 1,3,-1
 200 894 l 1,0,-1
EndSplineSet
Validated: 1
EndChar

StartChar: parenleft
Encoding: 40 40 11
Width: 1009
GlyphClass: 2
Flags: W
VStem: 200 300<375.59 1158.27>
LayerCount: 2
Fore
SplineSet
859 -289 m 1,0,-1
 585 -289 l 1,1,-1
 570 -270 l 1,2,3
 477 -147 477 -147 398 -15 c 0,4,5
 310 133 310 133 267 286 c 0,6,7
 200 525 200 525 200 763 c 2,8,9
 200 763 200 763 200 770 c 0,10,11
 200 1019 200 1019 270 1255 c 0,12,13
 315 1405 315 1405 399 1547 c 0,14,15
 482 1689 482 1689 567 1798 c 1,16,-1
 584 1818 l 1,17,-1
 858 1818 l 1,18,-1
 844 1799 l 1,19,20
 769 1705 769 1705 682 1542 c 1,21,22
 599 1389 599 1389 544 1174 c 1,23,24
 500 1008 500 1008 500 767 c 0,25,26
 500 542 500 542 544 350 c 0,27,28
 585 173 585 173 676 -3 c 0,29,30
 757 -158 757 -158 841 -266 c 2,31,-1
 859 -289 l 1,0,-1
EndSplineSet
Validated: 1
EndChar

StartChar: parenright
Encoding: 41 41 12
Width: 1009
GlyphClass: 2
Flags: W
VStem: 509 300<375.59 1158.27>
LayerCount: 2
Fore
SplineSet
150 -289 m 1,0,-1
 168 -266 l 2,1,2
 252 -158 252 -158 333 -3 c 0,3,4
 424 173 424 173 465 350 c 0,5,6
 509 542 509 542 509 767 c 0,7,8
 509 1008 509 1008 465 1174 c 1,9,10
 410 1389 410 1389 328 1542 c 0,11,12
 240 1705 240 1705 165 1799 c 1,13,-1
 151 1818 l 1,14,-1
 425 1818 l 1,15,-1
 442 1798 l 1,16,17
 527 1689 527 1689 610 1547 c 0,18,19
 694 1405 694 1405 739 1255 c 0,20,21
 809 1019 809 1019 809 770 c 2,22,-1
 809 763 l 2,23,24
 809 525 809 525 742 286 c 0,25,26
 699 133 699 133 611 -15 c 0,27,28
 532 -147 532 -147 439 -270 c 1,29,-1
 425 -289 l 1,30,-1
 150 -289 l 1,0,-1
EndSplineSet
Validated: 1
EndChar

StartChar: asterisk
Encoding: 42 42 13
Width: 1252
GlyphClass: 2
Flags: W
HStem: 1491 20G<501 751>
VStem: 501 250<598 873 1275 1511>
LayerCount: 2
Fore
SplineSet
501 598 m 1,0,-1
 501 873 l 1,1,-1
 263 735 l 1,2,-1
 151 951 l 1,3,-1
 375 1089 l 1,4,-1
 150 1206 l 1,5,-1
 263 1393 l 1,6,-1
 501 1275 l 1,7,-1
 501 1511 l 1,8,-1
 751 1511 l 1,9,-1
 751 1275 l 1,10,-1
 989 1393 l 1,11,-1
 1102 1206 l 1,12,-1
 877 1089 l 1,13,-1
 1101 951 l 1,14,-1
 989 735 l 1,15,-1
 751 873 l 1,16,-1
 751 598 l 1,17,-1
 501 598 l 1,0,-1
EndSplineSet
Validated: 1
EndChar

StartChar: plus
Encoding: 43 43 14
Width: 1283
GlyphClass: 2
Flags: W
HStem: 656 250<150 516 766 1133>
VStem: 516 250<290 656 906 1237>
LayerCount: 2
Fore
SplineSet
516 290 m 1,0,-1
 516 656 l 1,1,-1
 150 656 l 1,2,-1
 150 906 l 1,3,-1
 516 906 l 1,4,-1
 516 1237 l 1,5,-1
 766 1237 l 1,6,-1
 766 906 l 1,7,-1
 1133 906 l 1,8,-1
 1133 656 l 1,9,-1
 766 656 l 1,10,-1
 766 290 l 1,11,-1
 516 290 l 1,0,-1
EndSplineSet
Validated: 1
EndChar

StartChar: comma
Encoding: 44 44 15
Width: 730
GlyphClass: 2
Flags: W
VStem: 295 285<-125.125 113.052>
LayerCount: 2
Fore
SplineSet
390 389 m 1,0,-1
 397 381 l 1,1,2
 456 324 456 324 494 273 c 0,3,4
 580 158 580 158 580 31 c 0,5,6
 580 -141 580 -141 449 -253 c 0,7,8
 393 -300 393 -300 313 -348 c 1,9,-1
 282 -366 l 1,10,-1
 150 -208 l 1,11,-1
 158 -202 l 1,12,13
 229 -155 229 -155 253 -122 c 0,14,15
 295 -63 295 -63 295 5 c 2,16,-1
 295 8 l 2,17,18
 295 103 295 103 163 184 c 1,19,-1
 155 189 l 1,20,-1
 390 389 l 1,0,-1
EndSplineSet
Validated: 1
EndChar

StartChar: hyphen
Encoding: 45 45 16
Width: 1283
GlyphClass: 2
Flags: W
HStem: 656 250<150 1133>
LayerCount: 2
Fore
SplineSet
1133 656 m 1,0,-1
 150 656 l 1,1,-1
 150 906 l 1,2,-1
 1133 906 l 1,3,-1
 1133 656 l 1,0,-1
EndSplineSet
Validated: 1
EndChar

StartChar: period
Encoding: 46 46 17
Width: 652
GlyphClass: 2
Flags: W
HStem: -20 355<208.115 441.753>
VStem: 150 352<40.2654 273.891>
LayerCount: 2
Fore
SplineSet
150 157 m 0,0,1
 150 231 150 231 200 282 c 0,2,3
 251 335 251 335 326 335 c 0,4,5
 398 335 398 335 450 283 c 0,6,7
 499 233 499 233 502 159 c 1,8,9
 502 84 502 84 450 32 c 128,-1,10
 398 -20 398 -20 326 -20 c 0,11,12
 251 -20 251 -20 200 33 c 0,13,14
 150 84 150 84 150 157 c 0,0,1
EndSplineSet
Validated: 1
EndChar

StartChar: slash
Encoding: 47 47 18
Width: 1314
GlyphClass: 2
Flags: W
VStem: 0 283<-183 100> 1032 282<1405 1687>
DStem2: 0 -183 283 -183 0.483176 0.875523<136.739 2135.87>
LayerCount: 2
Fore
SplineSet
1314 1687 m 1,0,-1
 283 -183 l 1,1,-1
 0 -183 l 1,2,-1
 1032 1687 l 1,3,-1
 1314 1687 l 1,0,-1
EndSplineSet
Validated: 1
EndChar

StartChar: zero
Encoding: 48 48 19
Width: 1839
GlyphClass: 2
Flags: W
HStem: -20 223<625.168 1041.98> 1307 224<791.39 1212.24>
VStem: 100 301<437.312 922> 1436 303<586.335 1072.45>
LayerCount: 2
Fore
SplineSet
1021 1531 m 1,0,1
 1196 1530 1196 1530 1324 1473 c 0,2,3
 1477 1404 1477 1404 1556 1319 c 0,4,5
 1646 1223 1646 1223 1686 1124 c 0,6,7
 1726 1026 1726 1026 1737 893 c 0,8,9
 1739 865 1739 865 1739 837 c 0,10,11
 1738 755 1738 755 1722 677 c 0,12,13
 1685 507 1685 507 1549 332 c 0,14,15
 1422 167 1422 167 1183 57 c 0,16,17
 1016 -20 1016 -20 838 -20 c 2,18,19
 838 -20 838 -20 817 -20 c 0,20,21
 647 -20 647 -20 517 38 c 0,22,23
 367 106 367 106 283 192 c 1,24,25
 190 301 190 301 153 389 c 0,26,27
 115 480 115 480 102 616 c 0,28,29
 100 642 100 642 100 675 c 0,30,31
 101 757 101 757 117 832 c 0,32,33
 154 1014 154 1014 292 1180 c 0,34,35
 451 1372 451 1372 658 1456 c 1,36,37
 847 1531 847 1531 1017 1531 c 2,38,-1
 1021 1531 l 1,0,1
843 203 m 0,39,40
 941 206 941 206 1042 246 c 0,41,42
 1220 316 1220 316 1334 477 c 0,43,44
 1404 575 1404 575 1425 709 c 0,45,46
 1436 778 1436 778 1436 816 c 0,47,48
 1436 851 1436 851 1432 890 c 0,49,50
 1419 1025 1419 1025 1379 1100 c 0,51,52
 1323 1204 1323 1204 1226 1257 c 0,53,54
 1134 1307 1134 1307 1019 1307 c 0,55,56
 1012 1307 1012 1307 1006 1307 c 256,57,58
 889 1307 889 1307 786 1262 c 0,59,60
 607 1184 607 1184 500 1034 c 0,61,62
 446 958 446 958 410 799 c 0,63,64
 401 759 401 759 401 701 c 0,65,66
 401 658 401 658 405 620 c 0,67,68
 420 477 420 477 458 411 c 0,69,70
 524 301 524 301 606 257 c 0,71,72
 691 211 691 211 824 203 c 0,73,74
 843 203 843 203 843 203 c 0,39,40
EndSplineSet
Validated: 1
EndChar

StartChar: one
Encoding: 49 49 20
Width: 805
GlyphClass: 2
Flags: W
HStem: 0 21G<255 555> 1261 250<5 255>
VStem: 255 300<0 1261>
LayerCount: 2
Fore
SplineSet
255 0 m 1,0,-1
 255 1261 l 1,1,-1
 5 1261 l 1,2,-1
 5 1511 l 1,3,-1
 425 1511 l 1,4,-1
 443 1499 l 1,5,6
 504 1459 504 1459 528 1409 c 0,7,8
 555 1352 555 1352 555 1290 c 2,9,-1
 555 0 l 1,10,-1
 255 0 l 1,0,-1
EndSplineSet
Validated: 19457
EndChar

StartChar: two
Encoding: 50 50 21
Width: 1465
GlyphClass: 2
Flags: W
HStem: 0 250<465 1184.73> 1307 224<590.797 888.821>
VStem: 1009 306<856.781 1185.68>
LayerCount: 2
Fore
SplineSet
186 0 m 1,0,-1
 164 29 l 1,1,2
 120 83 120 83 120 145 c 0,3,4
 120 237 120 237 211 328 c 0,5,6
 352 469 352 469 589 592 c 0,7,8
 801 702 801 702 907 788 c 0,9,10
 962 833 962 833 988 906 c 0,11,12
 1009 965 1009 965 1009 1022 c 2,13,-1
 1009 1028 l 2,14,15
 1009 1093 1009 1093 975 1167 c 0,16,17
 947 1228 947 1228 877 1272 c 0,18,19
 823 1307 823 1307 742 1307 c 2,20,-1
 734 1307 l 2,21,22
 671 1307 671 1307 616 1278 c 0,23,24
 493 1213 493 1213 432 1100 c 0,25,26
 407 1053 407 1053 403 1043 c 2,27,-1
 373 963 l 1,28,-1
 124 1099 l 1,29,-1
 160 1165 l 2,30,31
 178 1198 178 1198 210 1241 c 0,32,33
 331 1403 331 1403 488 1471 c 0,34,35
 626 1531 626 1531 759 1531 c 2,36,-1
 763 1531 l 2,37,38
 893 1531 893 1531 992 1487 c 0,39,40
 1105 1437 1105 1437 1170 1373 c 0,41,42
 1235 1308 1235 1308 1273 1224 c 0,43,44
 1315 1131 1315 1131 1315 1025 c 0,45,46
 1315 914 1315 914 1275 837 c 0,47,48
 1205 701 1205 701 1084 620 c 0,49,50
 948 528 948 528 735 415 c 0,51,52
 551 317 551 317 465 250 c 1,53,-1
 1067 250 l 2,54,55
 1149 250 1149 250 1219 326 c 1,56,57
 1260 373 1260 373 1306 456 c 2,58,-1
 1312 467 l 1,59,-1
 1312 128 l 1,60,-1
 1304 118 l 1,61,62
 1247 52 1247 52 1194 27 c 0,63,64
 1135 0 1135 0 1067 0 c 2,65,-1
 186 0 l 1,0,-1
EndSplineSet
Validated: 1
EndChar

StartChar: three
Encoding: 51 51 22
Width: 1489
GlyphClass: 2
Flags: W
HStem: -20 216<504.623 831.998> 864 204<634.359 842.444> 1308 223<665.312 855.996>
VStem: 887 288<1117.44 1285.25> 1040 299<396.03 757.933>
LayerCount: 2
Fore
SplineSet
100 382 m 1,0,-1
 386 486 l 1,1,-1
 405 404 l 2,2,3
 416 358 416 358 428 334 c 0,4,5
 463 262 463 262 516 233 c 0,6,7
 584 196 584 196 657 196 c 2,8,-1
 667 196 l 2,9,10
 728 196 728 196 799 225 c 0,11,12
 909 270 909 270 976 364 c 0,13,14
 1017 421 1017 421 1035 506 c 0,15,16
 1040 529 1040 529 1040 566 c 0,17,18
 1040 584 1040 584 1038 618 c 0,19,20
 1034 685 1034 685 1005 742 c 0,21,22
 979 794 979 794 909 833 c 0,23,24
 853 864 853 864 772 864 c 2,25,-1
 763 864 l 2,26,27
 743 864 743 864 720 860 c 2,28,-1
 633 847 l 1,29,-1
 633 1072 l 1,30,-1
 710 1068 l 1,31,-1
 722 1068 l 2,32,33
 734 1068 734 1068 740 1068 c 0,34,35
 811 1075 811 1075 847 1116 c 0,36,37
 887 1162 887 1162 887 1224 c 2,38,-1
 887 1228 l 2,39,40
 887 1262 887 1262 857 1286 c 1,41,42
 825 1308 825 1308 777 1308 c 0,43,44
 772 1308 772 1308 759 1306 c 0,45,46
 688 1296 688 1296 649 1247 c 0,47,48
 633 1227 633 1227 625 1206 c 2,49,-1
 593 1123 l 1,50,-1
 358 1265 l 1,51,-1
 404 1331 l 2,52,53
 418 1351 418 1351 453 1387 c 0,54,55
 484 1418 484 1418 528 1448 c 0,56,57
 649 1531 649 1531 801 1531 c 2,58,-1
 805 1531 l 1,59,60
 920 1530 920 1530 1009 1484 c 0,61,62
 1104 1434 1104 1434 1145 1357 c 0,63,64
 1175 1301 1175 1301 1175 1239 c 0,65,66
 1175 1185 1175 1185 1150 1127 c 0,67,68
 1116 1050 1116 1050 1063 996 c 1,69,70
 1142 959 1142 959 1196 910 c 0,71,72
 1269 844 1269 844 1302 773 c 1,73,74
 1332 706 1332 706 1338 608 c 0,75,76
 1339 589 1339 589 1339 558 c 0,77,78
 1339 512 1339 512 1326 459 c 0,79,80
 1298 341 1298 341 1194 219 c 0,81,82
 1096 104 1096 104 918 30 c 0,83,84
 796 -20 796 -20 656 -20 c 2,85,-1
 642 -20 l 2,86,87
 503 -20 503 -20 413 22 c 0,88,89
 300 75 300 75 234 147 c 1,90,91
 175 209 175 209 140 285 c 0,92,93
 116 339 116 339 100 382 c 1,0,-1
EndSplineSet
Validated: 1
EndChar

StartChar: four
Encoding: 52 52 23
Width: 1455
GlyphClass: 2
Flags: W
HStem: 0 21G<905 1205> 243 250<408 905> 1491 20G<769 1093>
VStem: 905 300<0 243 493 1340.47>
LayerCount: 2
Fore
SplineSet
905 0 m 9,0,-1
 905 243 l 17,1,-1
 81 243 l 1,2,-1
 87 311 l 1,3,4
 102 447 102 447 191 670 c 0,5,6
 273 874 273 874 420 1102 c 0,7,8
 544 1293 544 1293 638 1389 c 0,9,10
 716 1468 716 1468 769 1509 c 1,11,-1
 773 1511 l 9,12,-1
 1075 1511 l 17,13,-1
 1093 1499 l 1,14,15
 1153 1459 1153 1459 1178 1410 c 0,16,17
 1205 1356 1205 1356 1205 1292 c 2,18,-1
 1205 0 l 1,19,-1
 905 0 l 9,0,-1
408 493 m 1,20,-1
 905 493 l 1,21,-1
 905 1318 l 2,22,23
 905 1331 905 1331 902 1341 c 1,24,25
 808 1265 808 1265 704 1110 c 0,26,27
 580 924 580 924 510 762 c 0,28,29
 435 600 435 600 408 493 c 1,20,-1
EndSplineSet
Validated: 1
EndChar

StartChar: five
Encoding: 53 53 24
Width: 1491
GlyphClass: 2
Flags: W
HStem: -20 216<508.232 829.89> 864 217<610.195 930.617> 1261 250<631 1204>
VStem: 1043 298<395.477 745.628>
LayerCount: 2
Fore
SplineSet
100 381 m 1,0,-1
 388 486 l 1,1,-1
 407 404 l 2,2,3
 415 369 415 369 432 333 c 0,4,5
 465 263 465 263 520 233 c 0,6,7
 587 196 587 196 659 196 c 2,8,-1
 669 196 l 2,9,10
 734 196 734 196 806 228 c 0,11,12
 918 278 918 278 979 364 c 0,13,14
 1018 419 1018 419 1037 506 c 0,15,16
 1043 534 1043 534 1043 567 c 0,17,18
 1043 596 1043 596 1041 615 c 0,19,20
 1035 680 1035 680 1003 739 c 0,21,22
 970 800 970 800 912 833 c 0,23,24
 856 864 856 864 774 864 c 2,25,-1
 765 864 l 2,26,27
 699 864 699 864 645 838 c 1,28,29
 582 809 582 809 527 758 c 1,30,-1
 505 737 l 1,31,-1
 238 737 l 1,32,-1
 369 1511 l 1,33,-1
 1204 1511 l 1,34,-1
 1204 1261 l 1,35,-1
 631 1261 l 1,36,-1
 589 1050 l 1,37,38
 684 1081 684 1081 788 1081 c 2,39,-1
 794 1081 l 2,40,41
 925 1081 925 1081 1022 1042 c 0,42,43
 1136 996 1136 996 1200 934 c 0,44,45
 1270 866 1270 866 1299 796 c 0,46,47
 1329 724 1329 724 1340 623 c 0,48,49
 1341 614 1341 614 1341 583 c 2,50,-1
 1341 578 l 2,51,52
 1341 528 1341 528 1328 470 c 1,53,54
 1305 352 1305 352 1196 224 c 0,55,56
 1096 107 1096 107 920 32 c 0,57,58
 798 -20 798 -20 658 -20 c 2,59,-1
 644 -20 l 2,60,61
 514 -20 514 -20 417 22 c 0,62,63
 308 69 308 69 239 137 c 1,64,65
 160 217 160 217 133 291 c 2,66,-1
 100 381 l 1,0,-1
EndSplineSet
Validated: 1
EndChar

StartChar: six
Encoding: 54 54 25
Width: 1593
GlyphClass: 2
Flags: W
HStem: -20 219<606.625 925.537> 853 228<708.039 1029.61> 1307 224<827.642 1180.33>
VStem: 150 346<366.4 650.295> 1146 297<404.805 735.516>
LayerCount: 2
Fore
SplineSet
1342 1491 m 1,0,-1
 1181 1294 l 1,1,-1
 1138 1301 l 2,2,3
 1105 1307 1105 1307 1060 1307 c 2,4,-1
 1039 1307 l 2,5,6
 941 1307 941 1307 839 1267 c 0,7,8
 656 1196 656 1196 554 1065 c 0,9,10
 530 1034 530 1034 504 964 c 1,11,12
 561 1002 561 1002 623 1026 c 0,13,14
 760 1081 760 1081 891 1081 c 2,15,-1
 896 1081 l 2,16,17
 1028 1081 1028 1081 1124 1042 c 0,18,19
 1234 997 1234 997 1300 935 c 1,20,21
 1373 868 1373 868 1406 794 c 0,22,23
 1437 725 1437 725 1442 626 c 0,24,25
 1443 606 1443 606 1443 586 c 2,26,-1
 1443 579 l 2,27,28
 1443 526 1443 526 1430 471 c 0,29,30
 1401 346 1401 346 1297 224 c 0,31,32
 1192 102 1192 102 1025 32 c 0,33,34
 901 -20 901 -20 761 -20 c 2,35,-1
 746 -20 l 2,36,37
 618 -20 618 -20 523 18 c 0,38,39
 416 60 416 60 339 140 c 1,40,41
 226 251 226 251 181 409 c 0,42,43
 150 518 150 518 150 625 c 0,44,45
 150 742 150 742 170 834 c 0,46,47
 209 1016 209 1016 344 1182 c 0,48,49
 504 1377 504 1377 712 1459 c 0,50,51
 896 1531 896 1531 1074 1531 c 0,52,53
 1174 1531 1174 1531 1321 1496 c 2,54,-1
 1342 1491 l 1,0,-1
881 853 m 2,55,-1
 867 853 l 2,56,57
 812 853 812 853 737 822 c 0,58,59
 639 782 639 782 576 703 c 0,60,61
 519 633 519 633 504 556 c 0,62,63
 496 519 496 519 496 486 c 2,64,65
 496 486 496 486 496 477 c 0,66,67
 496 457 496 457 501 427 c 0,68,69
 509 373 509 373 533 329 c 0,70,71
 570 261 570 261 625 232 c 0,72,73
 686 199 686 199 755 199 c 2,74,-1
 762 199 l 2,75,76
 825 199 825 199 890 227 c 0,77,78
 1007 277 1007 277 1082 374 c 0,79,80
 1121 424 1121 424 1139 497 c 0,81,82
 1145 523 1145 523 1146 560 c 0,83,84
 1146 577 1146 577 1142 617 c 0,85,86
 1137 669 1137 669 1109 723 c 0,87,88
 1077 784 1077 784 1013 820 c 0,89,90
 954 853 954 853 881 853 c 2,55,-1
EndSplineSet
Validated: 1
EndChar

StartChar: seven
Encoding: 55 55 26
Width: 1263
GlyphClass: 2
Flags: W
HStem: 0 21G<73 442.63> 1261 250<177.274 844.109>
VStem: 851 312<907.78 1258.91>
DStem2: 73 0 423 0 0.701488 0.712682<245.521 967.735>
LayerCount: 2
Fore
SplineSet
73 0 m 1,0,-1
 449 382 l 1,1,2
 563 501 563 501 654 621 c 0,3,4
 754 754 754 754 812 918 c 0,5,6
 851 1029 851 1029 851 1136 c 0,7,8
 851 1194 851 1194 835 1261 c 1,9,-1
 295 1261 l 2,10,11
 213 1261 213 1261 143 1185 c 0,12,13
 102 1139 102 1139 56 1055 c 2,14,-1
 50 1044 l 1,15,-1
 50 1383 l 1,16,-1
 58 1393 l 1,17,18
 115 1459 115 1459 168 1484 c 0,19,20
 227 1511 227 1511 295 1511 c 2,21,-1
 1064 1511 l 2,22,23
 1067 1511 1067 1511 1088 1484 c 0,24,25
 1103 1464 1103 1464 1116 1436 c 0,26,27
 1163 1331 1163 1331 1163 1178 c 2,28,-1
 1163 1169 l 2,29,30
 1163 1015 1163 1015 1095 839 c 0,31,32
 1023 653 1023 653 873 476 c 0,33,34
 761 345 761 345 635 216 c 2,35,-1
 423 0 l 1,36,-1
 73 0 l 1,0,-1
EndSplineSet
Validated: 1
EndChar

StartChar: eight
Encoding: 56 56 27
Width: 1444
GlyphClass: 2
Flags: W
HStem: -20 216<512.683 834.839> 849 234<645.097 849.837> 1308 223<656.992 860.965>
VStem: 100 296<314.953 662.679> 327 288<1103.54 1258.93> 892 287<1128.38 1287.46> 1042 302<399.895 724.854>
LayerCount: 2
Fore
SplineSet
1344 558 m 0,0,1
 1344 512 1344 512 1331 459 c 0,2,3
 1303 341 1303 341 1199 219 c 0,4,5
 1101 104 1101 104 923 30 c 0,6,7
 801 -20 801 -20 661 -20 c 2,8,-1
 647 -20 l 2,9,10
 533 -20 533 -20 422 19 c 0,11,12
 322 55 322 55 243 124 c 0,13,14
 179 180 179 180 136 276 c 0,15,16
 106 343 106 343 101 426 c 0,17,18
 100 443 100 443 100 464 c 0,19,20
 100 524 100 524 113 576 c 0,21,22
 144 705 144 705 246 817 c 0,23,24
 322 899 322 899 412 952 c 1,25,26
 378 984 378 984 357 1023 c 0,27,28
 327 1078 327 1078 327 1141 c 0,29,30
 327 1195 327 1195 352 1252 c 0,31,32
 390 1337 390 1337 459 1400 c 0,33,34
 487 1426 487 1426 533 1455 c 0,35,36
 653 1531 653 1531 806 1531 c 2,37,-1
 810 1531 l 1,38,39
 924 1530 924 1530 1014 1484 c 0,40,41
 1110 1434 1110 1434 1150 1356 c 0,42,43
 1179 1300 1179 1300 1179 1232 c 0,44,45
 1179 1184 1179 1184 1155 1127 c 0,46,47
 1123 1051 1123 1051 1068 997 c 1,48,49
 1151 959 1151 959 1201 910 c 1,50,51
 1268 850 1268 850 1301 773 c 0,52,53
 1339 686 1339 686 1343 609 c 0,54,55
 1344 590 1344 590 1344 558 c 0,0,1
862 1288 m 1,56,57
 829 1308 829 1308 782 1308 c 0,58,59
 769 1308 769 1308 763 1307 c 0,60,61
 695 1299 695 1299 652 1260 c 0,62,63
 615 1226 615 1226 615 1160 c 2,64,-1
 615 1157 l 2,65,66
 615 1120 615 1120 644 1103 c 0,67,68
 679 1083 679 1083 727 1083 c 0,69,70
 734 1083 734 1083 748 1084 c 0,71,72
 814 1088 814 1088 851 1127 c 0,73,74
 892 1171 892 1171 892 1230 c 2,75,-1
 892 1233 l 2,76,77
 892 1271 892 1271 862 1288 c 1,56,57
979 749 m 0,78,79
 940 793 940 793 897 815 c 0,80,81
 831 849 831 849 769 849 c 2,82,-1
 757 849 l 2,83,84
 686 849 686 849 627 821 c 0,85,86
 525 772 525 772 471 708 c 0,87,88
 417 643 417 643 401 560 c 0,89,90
 396 537 396 537 396 495 c 0,91,92
 396 473 396 473 400 434 c 0,93,94
 405 380 405 380 436 323 c 0,95,96
 467 265 467 265 527 231 c 1,97,98
 591 196 591 196 662 196 c 2,99,-1
 672 196 l 2,100,101
 736 196 736 196 806 226 c 0,102,103
 911 271 911 271 981 373 c 0,104,105
 1026 439 1026 439 1037 507 c 0,106,107
 1042 535 1042 535 1042 572 c 0,108,109
 1042 598 1042 598 1037 624 c 0,110,111
 1025 696 1025 696 979 749 c 0,78,79
EndSplineSet
Validated: 1
EndChar

StartChar: nine
Encoding: 57 57 28
Width: 1593
GlyphClass: 2
Flags: W
HStem: -20 224<412.672 765.358> 430 228<563.392 884.961> 1312 219<667.463 986.375>
VStem: 150 297<775.484 1106.19> 1097 346<860.705 1144.6>
LayerCount: 2
Fore
SplineSet
251 20 m 1,0,-1
 412 217 l 1,1,-1
 455 210 l 2,2,3
 488 204 488 204 533 204 c 2,4,-1
 554 204 l 2,5,6
 652 204 652 204 754 244 c 0,7,8
 937 315 937 315 1039 446 c 0,9,10
 1063 477 1063 477 1089 547 c 1,11,12
 1032 509 1032 509 970 485 c 0,13,14
 833 430 833 430 702 430 c 2,15,-1
 697 430 l 2,16,17
 565 430 565 430 469 469 c 0,18,19
 359 514 359 514 293 576 c 1,20,21
 220 643 220 643 187 717 c 0,22,23
 156 786 156 786 151 885 c 0,24,25
 150 905 150 905 150 925 c 2,26,-1
 150 932 l 2,27,28
 150 985 150 985 163 1040 c 0,29,30
 192 1165 192 1165 296 1287 c 0,31,32
 401 1409 401 1409 568 1479 c 0,33,34
 692 1531 692 1531 832 1531 c 2,35,-1
 847 1531 l 2,36,37
 975 1531 975 1531 1070 1493 c 0,38,39
 1177 1451 1177 1451 1254 1372 c 1,40,41
 1367 1260 1367 1260 1412 1102 c 0,42,43
 1443 993 1443 993 1443 886 c 0,44,45
 1443 769 1443 769 1423 677 c 0,46,47
 1384 495 1384 495 1249 329 c 0,48,49
 1089 134 1089 134 881 52 c 0,50,51
 697 -20 697 -20 519 -20 c 0,52,53
 419 -20 419 -20 272 15 c 2,54,-1
 251 20 l 1,0,-1
712 658 m 2,55,-1
 726 658 l 2,56,57
 781 658 781 658 856 689 c 0,58,59
 954 729 954 729 1017 808 c 0,60,61
 1074 878 1074 878 1089 955 c 0,62,63
 1097 992 1097 992 1097 1025 c 2,64,65
 1097 1025 1097 1025 1097 1034 c 0,66,67
 1097 1054 1097 1054 1092 1084 c 0,68,69
 1084 1138 1084 1138 1060 1182 c 0,70,71
 1023 1250 1023 1250 968 1279 c 0,72,73
 907 1312 907 1312 838 1312 c 2,74,-1
 831 1312 l 2,75,76
 768 1312 768 1312 703 1284 c 0,77,78
 586 1234 586 1234 511 1137 c 0,79,80
 472 1087 472 1087 454 1014 c 0,81,82
 448 988 448 988 447 951 c 0,83,84
 447 934 447 934 451 894 c 0,85,86
 456 842 456 842 484 788 c 0,87,88
 516 727 516 727 580 691 c 0,89,90
 639 658 639 658 712 658 c 2,55,-1
EndSplineSet
Validated: 1
EndChar

StartChar: colon
Encoding: 58 58 29
Width: 654
GlyphClass: 2
Flags: W
HStem: -20 355<210.115 443.609> 600 355<208.115 441.753>
VStem: 152 352<40.4094 273.891 662.765 891.787>
LayerCount: 2
Fore
SplineSet
150 778 m 0,0,1
 150 851 150 851 200 902 c 0,2,3
 251 955 251 955 326 955 c 0,4,5
 398 955 398 955 450 903 c 0,6,7
 499 853 499 853 502 780 c 1,8,9
 502 704 502 704 450 652 c 256,10,11
 398 600 398 600 326 600 c 0,12,13
 251 600 251 600 200 653 c 0,14,15
 150 704 150 704 150 778 c 0,0,1
152 157 m 0,16,17
 152 231 152 231 202 282 c 0,18,19
 253 335 253 335 328 335 c 0,20,21
 400 335 400 335 452 283 c 0,22,23
 501 233 501 233 504 159 c 1,24,25
 504 85 504 85 452 32 c 1,26,27
 399 -20 399 -20 328 -20 c 0,28,29
 253 -20 253 -20 202 33 c 0,30,31
 152 84 152 84 152 157 c 0,16,17
EndSplineSet
Validated: 1
EndChar

StartChar: semicolon
Encoding: 59 59 30
Width: 730
GlyphClass: 2
Flags: W
HStem: 600 355<262.115 495.609>
VStem: 204 352<660.271 895.191> 295 285<-125.125 113.052>
LayerCount: 2
Fore
SplineSet
390 389 m 1,0,-1
 397 381 l 1,1,2
 456 324 456 324 494 273 c 0,3,4
 580 158 580 158 580 31 c 0,5,6
 580 -141 580 -141 449 -253 c 0,7,8
 393 -300 393 -300 313 -348 c 1,9,-1
 282 -366 l 1,10,-1
 150 -208 l 1,11,-1
 158 -202 l 1,12,13
 229 -155 229 -155 253 -122 c 0,14,15
 295 -63 295 -63 295 5 c 2,16,-1
 295 8 l 2,17,18
 295 103 295 103 163 184 c 1,19,-1
 155 189 l 1,20,-1
 390 389 l 1,0,-1
204 778 m 0,21,22
 204 851 204 851 254 902 c 0,23,24
 305 955 305 955 380 955 c 0,25,26
 451 955 451 955 504 903 c 0,27,28
 553 854 553 854 556 780 c 1,29,30
 556 704 556 704 504 652 c 0,31,32
 451 600 451 600 380 600 c 0,33,34
 305 600 305 600 254 653 c 0,35,36
 204 704 204 704 204 778 c 0,21,22
EndSplineSet
Validated: 1
EndChar

StartChar: less
Encoding: 60 60 31
Width: 1306
GlyphClass: 2
Flags: W
HStem: 105 342<764 1106> 1157 297<809 1106>
DStem2: 150 898 489 804 0.864434 0.502746<245.785 956.61> 489 804 150 663 0.863648 -0.504096<0 712.833>
LayerCount: 2
Fore
SplineSet
150 663 m 1,0,-1
 150 898 l 1,1,-1
 1106 1454 l 1,2,-1
 1106 1157 l 1,3,-1
 489 804 l 1,4,-1
 1106 447 l 1,5,-1
 1106 105 l 1,6,-1
 150 663 l 1,0,-1
EndSplineSet
Validated: 1
EndChar

StartChar: equal
Encoding: 61 61 32
Width: 1283
GlyphClass: 2
Flags: W
HStem: 453 250<150 1133> 858 250<150 1133>
LayerCount: 2
Fore
SplineSet
1133 858 m 1,0,-1
 150 858 l 1,1,-1
 150 1108 l 1,2,-1
 1133 1108 l 1,3,-1
 1133 858 l 1,0,-1
1133 453 m 1,4,-1
 150 453 l 1,5,-1
 150 703 l 1,6,-1
 1133 703 l 1,7,-1
 1133 453 l 1,4,-1
EndSplineSet
Validated: 1
EndChar

StartChar: greater
Encoding: 62 62 33
Width: 1306
GlyphClass: 2
Flags: W
HStem: 106 297<200 497> 1113 341<200 541>
DStem2: 200 1454 200 1113 0.864434 -0.502746<171.436 884.273> 200 403 200 106 0.864434 0.502746<0 710.825>
LayerCount: 2
Fore
SplineSet
1156 898 m 1,0,-1
 1156 662 l 1,1,-1
 200 106 l 1,2,-1
 200 403 l 1,3,-1
 817 756 l 1,4,-1
 200 1113 l 1,5,-1
 200 1454 l 1,6,-1
 1156 898 l 1,0,-1
EndSplineSet
Validated: 1
EndChar

StartChar: question
Encoding: 63 63 34
Width: 1491
GlyphClass: 2
Flags: W
HStem: -20 355<573.121 807.065> 1307 224<612.542 917.084>
VStem: 516 352<40.2654 275.185> 1042 299<872.299 1182.78>
DStem2: 661 631 813 458 0.847858 0.530224<6.14241 450.99>
LayerCount: 2
Fore
SplineSet
516 157 m 0,0,1
 516 232 516 232 565 282 c 0,2,3
 616 335 616 335 692 335 c 0,4,5
 765 335 765 335 817 283 c 1,6,7
 864 234 864 234 868 159 c 1,8,9
 868 84 868 84 816 32 c 128,-1,10
 764 -20 764 -20 692 -20 c 0,11,12
 616 -20 616 -20 565 33 c 0,13,14
 516 83 516 83 516 157 c 0,0,1
150 1099 m 1,15,-1
 186 1165 l 2,16,17
 203 1197 203 1197 236 1241 c 0,18,19
 359 1404 359 1404 514 1471 c 0,20,21
 652 1531 652 1531 785 1531 c 2,22,-1
 789 1531 l 1,23,24
 923 1530 923 1530 1019 1486 c 0,25,26
 1128 1436 1128 1436 1196 1365 c 0,27,28
 1261 1298 1261 1298 1299 1210 c 0,29,30
 1341 1113 1341 1113 1341 1019 c 0,31,32
 1341 919 1341 919 1301 837 c 0,33,34
 1251 732 1251 732 1152 670 c 0,35,36
 1010 580 1010 580 933 533 c 0,37,38
 841 477 841 477 813 458 c 0,39,40
 797 447 797 447 793.5 430 c 128,-1,41
 790 413 790 413 807 398 c 1,42,-1
 809 396 l 1,43,-1
 566 396 l 1,44,45
 551 430 551 430 551 454 c 2,46,-1
 551 457 l 1,47,48
 551 458 551 458 551 459 c 0,49,50
 551 558 551 558 661 631 c 0,51,52
 867 768 867 768 871 770 c 0,53,54
 979 831 979 831 1016 900 c 0,55,56
 1042 948 1042 948 1042 1022 c 2,57,-1
 1042 1028 l 2,58,59
 1042 1102 1042 1102 1007 1167 c 0,60,61
 977 1224 977 1224 908 1270 c 0,62,63
 853 1307 853 1307 768 1307 c 2,64,-1
 760 1307 l 2,65,66
 691 1307 691 1307 636 1277 c 0,67,68
 515 1211 515 1211 457 1101 c 0,69,70
 427 1044 427 1044 406 984 c 2,71,-1
 399 964 l 1,72,-1
 150 1099 l 1,15,-1
EndSplineSet
Validated: 1
EndChar

StartChar: at
Encoding: 64 64 35
Width: 1817
GlyphClass: 2
Flags: W
HStem: -410 223<685.406 1075.4> -20 224<873.198 1142.96> 0 5<1773.02 1777> 0 0 709 95<1090.65 1230.84> 896 224<828.36 1214.8>
VStem: 150 302<44.4531 513.562> 552 278<249.47 482.969> 1321 296<377.556 787.378>
LayerCount: 2
Fore
SplineSet
1787 0 m 1,0,-1
 1447 0 l 1,1,-1
 1429 12 l 2,2,3
 1360 58 1360 58 1345 100 c 1,4,5
 1270 56 1270 56 1196 27 c 1,6,7
 1068 -20 1068 -20 973 -20 c 2,8,-1
 969 -20 l 2,9,10
 859 -20 859 -20 762 30 c 1,11,12
 684 73 684 73 632 137 c 0,13,14
 552 235 552 235 552 356 c 2,15,-1
 552 359 l 2,16,17
 552 436 552 436 609 535 c 0,18,19
 666 635 666 635 766 703 c 0,20,21
 851 761 851 761 948 787 c 0,22,23
 1011 804 1011 804 1068 804 c 0,24,25
 1071 804 1071 804 1074 804 c 0,26,27
 1118 804 1118 804 1170 790 c 1,28,-1
 1178 787 l 1,29,30
 1211 776 1211 776 1240 752 c 0,31,32
 1263 733 1263 733 1272 709 c 1,33,34
 1219 708 1219 708 1187 702 c 0,35,36
 1156 695 1156 695 1092 665 c 0,37,38
 1049 645 1049 645 999 610 c 0,39,40
 955 579 955 579 910 529 c 0,41,42
 867 481 867 481 848.5 435 c 128,-1,43
 830 389 830 389 830 360 c 2,44,-1
 830 347 l 2,45,46
 830 295 830 295 872 248 c 0,47,48
 910 204 910 204 990 204 c 2,49,-1
 996 204 l 1,50,51
 1146 211 1146 211 1252 344 c 0,52,53
 1309 415 1309 415 1317 491 c 0,54,55
 1321 531 1321 531 1321 546 c 2,56,-1
 1321 560 l 2,57,58
 1321 616 1321 616 1316 656 c 0,59,60
 1306 734 1306 734 1283 777 c 0,61,62
 1250 839 1250 839 1190 866 c 0,63,64
 1121 896 1121 896 1049 896 c 2,65,-1
 1042 896 l 2,66,67
 944 896 944 896 834 854 c 0,68,69
 648 782 648 782 551 643 c 0,70,71
 493 559 493 559 460 403 c 0,72,73
 452 365 452 365 452 303 c 0,74,75
 452 266 452 266 455 219 c 0,76,77
 463 96 463 96 513 13 c 0,78,79
 571 -83 571 -83 662 -131 c 0,80,81
 769 -187 769 -187 876 -187 c 2,82,-1
 893 -187 l 2,83,84
 980 -187 980 -187 1089 -136 c 0,85,86
 1136 -114 1136 -114 1228 -48 c 1,87,-1
 1246 -33 l 1,88,-1
 1467 -183 l 1,89,-1
 1377 -245 l 2,90,91
 1311 -291 1311 -291 1234 -329 c 1,92,93
 1079 -410 1079 -410 888 -410 c 2,94,-1
 867 -410 l 2,95,96
 706 -410 706 -410 569 -356 c 0,97,98
 438 -304 438 -304 341 -211 c 1,99,100
 264 -134 264 -134 211 -32 c 0,101,102
 163 60 163 60 152 205 c 0,103,104
 150 232 150 232 150 265 c 0,105,106
 150 344 150 344 167 421 c 0,107,108
 209 610 209 610 341 768 c 0,109,110
 505 964 505 964 708 1045 c 0,111,112
 896 1120 896 1120 1056 1120 c 2,113,-1
 1071 1120 l 2,114,115
 1201 1120 1201 1120 1301 1075 c 1,116,117
 1413 1023 1413 1023 1478 956 c 0,118,119
 1554 877 1554 877 1583 800 c 1,120,121
 1612 720 1612 720 1615 620 c 0,122,123
 1617 541 1617 541 1617 539 c 2,124,-1
 1617 219 l 2,125,126
 1617 162 1617 162 1667 97 c 0,127,128
 1713 37 1713 37 1777 5 c 2,129,-1
 1787 0 l 1,0,-1
EndSplineSet
Validated: 1
EndChar

StartChar: A
Encoding: 65 65 36
Width: 1687
GlyphClass: 2
Flags: W
HStem: 0 21G<5 294.505 1330.96 1682> 646 250<705 935> 1491 20G<706.589 985.345>
VStem: 5 280<0 280> 1340 342<0 342>
DStem2: 5 0 285 0 0.425768 0.904832<119.215 834.448 1108.77 1388.46>
LayerCount: 2
Fore
SplineSet
935 896 m 1,0,-1
 820 1151 l 1,1,-1
 705 896 l 1,2,-1
 935 896 l 1,0,-1
5 0 m 9,3,-1
 716 1511 l 17,4,-1
 976 1511 l 1,5,-1
 1682 0 l 9,6,-1
 1340 0 l 17,7,-1
 1048 646 l 1,8,-1
 592 646 l 1,9,-1
 285 0 l 1,10,-1
 5 0 l 9,3,-1
EndSplineSet
Validated: 19457
EndChar

StartChar: B
Encoding: 66 66 37
Width: 1552
GlyphClass: 2
Flags: W
HStem: -20 210<643.244 899.544> 0 21G<200 500> 1309 222<622.539 826.211> 1506 5<40 43.9824> 1511 0
VStem: 200 300<0 1193.02> 862 288<1094.82 1287.06> 1150 302<436.18 788.702>
LayerCount: 2
Fore
SplineSet
200 0 m 1,0,-1
 200 1292 l 2,1,2
 200 1348 200 1348 150 1414 c 0,3,4
 104 1474 104 1474 40 1506 c 2,5,-1
 30 1511 l 1,6,-1
 370 1511 l 1,7,-1
 388 1499 l 2,8,9
 440 1465 440 1465 465 1422 c 1,10,-1
 505 1450 l 2,11,12
 621 1531 621 1531 777 1531 c 2,13,-1
 781 1531 l 1,14,15
 890 1530 890 1530 984 1483 c 1,16,17
 1083 1432 1083 1432 1121 1360 c 0,18,19
 1150 1306 1150 1306 1150 1245 c 0,20,21
 1150 1193 1150 1193 1126 1137 c 0,22,23
 1110 1098 1110 1098 1087 1066 c 1,24,25
 1110 1062 1110 1062 1127 1056 c 0,26,27
 1244 1021 1244 1021 1328 936 c 0,28,29
 1403 860 1403 860 1428 777 c 0,30,31
 1452 698 1452 698 1452 627 c 2,32,-1
 1452 622 l 2,33,34
 1452 545 1452 545 1425 452 c 0,35,36
 1388 325 1388 325 1288 212 c 0,37,38
 1211 126 1211 126 1090 56 c 0,39,40
 959 -20 959 -20 785 -20 c 2,41,-1
 781 -20 l 2,42,43
 693 -20 693 -20 618 43 c 0,44,45
 575 79 575 79 553 130 c 0,46,47
 539 161 539 161 535 186 c 2,48,-1
 528 225 l 1,49,-1
 567 214 l 2,50,51
 652 190 652 190 711 190 c 2,52,-1
 728 190 l 2,53,54
 742 190 742 190 748 191 c 0,55,56
 842 205 842 205 900 233 c 1,57,58
 1023 290 1023 290 1086 397 c 0,59,60
 1126 465 1126 465 1142 543 c 0,61,62
 1150 583 1150 583 1150 625 c 0,63,64
 1150 638 1150 638 1148 655 c 0,65,66
 1141 717 1141 717 1118 766 c 0,67,68
 1092 823 1092 823 1029 869 c 1,69,70
 971 909 971 909 900 909 c 2,71,-1
 894 909 l 2,72,73
 826 909 826 909 759 899 c 0,74,75
 670 885 670 885 558 839 c 1,76,-1
 589 867 l 1,77,-1
 731 994 l 1,78,79
 816 1072 816 1072 838 1113 c 0,80,81
 862 1158 862 1158 862 1212 c 2,82,-1
 862 1220 l 2,83,84
 862 1258 862 1258 827 1288 c 0,85,86
 802 1309 802 1309 745 1309 c 0,87,88
 736 1309 736 1309 731 1308 c 0,89,90
 672 1297 672 1297 611 1258 c 0,91,92
 577 1236 577 1236 540 1187 c 0,93,94
 500 1134 500 1134 500 1051 c 2,95,-1
 500 -0 l 1,96,-1
 200 0 l 1,0,-1
EndSplineSet
Validated: 1
EndChar

StartChar: C
Encoding: 67 67 38
Width: 1692
GlyphClass: 2
Flags: W
HStem: -20 223<629.227 1026.23> 1099 21G<1350.71 1399.31> 1307 224<791.39 1196.92>
VStem: 100 301<439.384 925.556>
DStem2: 1326 502 1536 347 0.593649 0.804724<-277.769 74.6151>
LayerCount: 2
Fore
SplineSet
1581 408 m 1,0,-1
 1536 347 l 1,1,2
 1397 165 1397 165 1189 61 c 0,3,4
 1028 -20 1028 -20 838 -20 c 2,5,-1
 817 -20 l 2,6,7
 647 -20 647 -20 517 38 c 0,8,9
 362 108 362 108 284 191 c 0,10,11
 190 291 190 291 147 400 c 0,12,13
 109 494 109 494 102 617 c 0,14,15
 100 655 100 655 100 676 c 0,16,17
 101 758 101 758 117 832 c 0,18,19
 155 1017 155 1017 292 1180 c 1,20,21
 452 1373 452 1373 658 1456 c 1,22,23
 847 1531 847 1531 1017 1531 c 2,24,-1
 1021 1531 l 1,25,26
 1195 1530 1195 1530 1323 1470 c 1,27,28
 1456 1406 1456 1406 1546 1312 c 2,29,-1
 1612 1243 l 1,30,-1
 1365 1099 l 1,31,-1
 1325 1155 l 1,32,33
 1289 1199 1289 1199 1222 1248 c 1,34,35
 1136 1307 1136 1307 1005 1307 c 2,36,-1
 986 1307 l 2,37,38
 889 1307 889 1307 786 1262 c 0,39,40
 614 1187 614 1187 500 1034 c 0,41,42
 443 957 443 957 410 799 c 0,43,44
 401 759 401 759 401 701 c 0,45,46
 401 666 401 666 405 620 c 0,47,48
 416 494 416 494 458 411 c 0,49,50
 508 312 508 312 606 259 c 0,51,52
 711 203 711 203 826 203 c 2,53,-1
 843 203 l 2,54,55
 940 203 940 203 1053 259 c 0,56,57
 1190 328 1190 328 1326 502 c 1,58,-1
 1369 563 l 1,59,-1
 1581 408 l 1,0,-1
EndSplineSet
Validated: 1
EndChar

StartChar: D
Encoding: 68 68 39
Width: 1742
GlyphClass: 2
Flags: W
HStem: -20 210<643.244 921.229> 0 21G<200 500> 1307 224<691.601 1110.55> 1506 5<40 43.9824> 1511 0
VStem: 200 300<0 1129.95> 1339 303<599.742 1072.03>
LayerCount: 2
Fore
SplineSet
200 0 m 1,0,-1
 200 1292 l 2,1,2
 200 1348 200 1348 150 1414 c 0,3,4
 104 1474 104 1474 40 1506 c 2,5,-1
 30 1511 l 1,6,-1
 370 1511 l 1,7,-1
 388 1499 l 2,8,9
 447 1460 447 1460 472 1410 c 0,10,11
 475 1404 475 1404 477 1399 c 1,12,13
 521 1430 521 1430 555 1449 c 0,14,15
 702 1531 702 1531 919 1531 c 2,16,-1
 924 1531 l 1,17,18
 1101 1530 1101 1530 1227 1472 c 0,19,20
 1371 1406 1371 1406 1458 1320 c 1,21,22
 1550 1222 1550 1222 1588 1122 c 0,23,24
 1632 1008 1632 1008 1640 892 c 0,25,26
 1642 859 1642 859 1642 836 c 0,27,28
 1641 753 1641 753 1624 675 c 0,29,30
 1586 503 1586 503 1452 330 c 0,31,32
 1320 161 1320 161 1086 53 c 0,33,34
 928 -19 928 -19 781 -20 c 0,35,36
 693 -20 693 -20 618 43 c 0,37,38
 575 79 575 79 553 130 c 0,39,40
 540 160 540 160 535 186 c 2,41,-1
 528 225 l 1,42,-1
 567 214 l 2,43,44
 652 190 652 190 711 190 c 2,45,-1
 725 190 l 2,46,47
 737 190 737 190 749 191 c 0,48,49
 809 197 809 197 846 207 c 0,50,51
 920 229 920 229 980 263 c 0,52,53
 1141 355 1141 355 1224 471 c 0,54,55
 1300 577 1300 577 1330 713 c 0,56,57
 1339 754 1339 754 1339 814 c 0,58,59
 1339 847 1339 847 1335 890 c 0,60,61
 1322 1026 1322 1026 1282 1099 c 0,62,63
 1228 1196 1228 1196 1125 1255 c 0,64,65
 1034 1307 1034 1307 905 1307 c 2,66,-1
 889 1307 l 2,67,68
 779 1307 779 1307 694 1264 c 0,69,70
 617 1224 617 1224 570 1165 c 0,71,72
 500 1077 500 1077 500 1006 c 2,73,-1
 500 -0 l 1,74,-1
 200 0 l 1,0,-1
EndSplineSet
Validated: 1
EndChar

StartChar: E
Encoding: 69 69 40
Width: 1692
GlyphClass: 2
Flags: W
HStem: -20 223<618.797 1028.29> 646 250<431 1217> 1099 21G<1350.71 1399.31> 1307 224<786.02 1192.89>
VStem: 100 302<430.718 646>
DStem2: 1326 502 1536 347 0.6 0.8<-276.005 74.6>
LayerCount: 2
Fore
SplineSet
1581 407 m 1,0,-1
 1536 347 l 2,1,2
 1405 172 1405 172 1184 61 c 0,3,4
 1024 -20 1024 -20 838 -20 c 2,5,-1
 817 -20 l 2,6,7
 645 -20 645 -20 516 38 c 1,8,9
 364 108 364 108 284 190 c 0,10,11
 191 286 191 286 148 398 c 1,12,13
 110 490 110 490 102 619 c 0,14,15
 100 655 100 655 100 678 c 0,16,17
 101 761 101 761 117 835 c 0,18,19
 156 1021 156 1021 292 1183 c 0,20,21
 456 1380 456 1380 659 1459 c 1,22,23
 841 1531 841 1531 1017 1531 c 2,24,-1
 1021 1531 l 1,25,26
 1195 1530 1195 1530 1323 1470 c 1,27,28
 1456 1406 1456 1406 1546 1312 c 2,29,-1
 1612 1243 l 1,30,-1
 1365 1099 l 1,31,-1
 1325 1155 l 1,32,33
 1291 1206 1291 1206 1222 1248 c 0,34,35
 1124 1307 1124 1307 1005 1307 c 2,36,-1
 986 1307 l 2,37,38
 887 1307 887 1307 786 1264 c 0,39,40
 614 1190 614 1190 500 1042 c 1,41,42
 459 987 459 987 431 896 c 1,43,-1
 1217 896 l 1,44,-1
 1217 646 l 1,45,-1
 402 646 l 1,46,47
 403 629 403 629 405 612 c 0,48,49
 417 486 417 486 457 407 c 1,50,51
 512 302 512 302 603 254 c 0,52,53
 700 203 700 203 826 203 c 2,54,-1
 843 203 l 2,55,56
 948 203 948 203 1065 265 c 0,57,58
 1204 339 1204 339 1326 502 c 1,59,-1
 1369 563 l 1,60,-1
 1581 407 l 1,0,-1
EndSplineSet
Validated: 1
EndChar

StartChar: F
Encoding: 70 70 41
Width: 1455
GlyphClass: 2
Flags: W
HStem: 0 21G<200 500> 646 250<500 1070> 1307 224<705.396 1022.56> 1506 5<40 43.9824> 1511 0
VStem: 200 300<0 646 896 1121.24>
LayerCount: 2
Fore
SplineSet
200 0 m 1,0,-1
 200 1292 l 2,1,2
 200 1348 200 1348 150 1414 c 0,3,4
 104 1474 104 1474 40 1506 c 2,5,-1
 30 1511 l 1,6,-1
 370 1511 l 1,7,-1
 388 1499 l 2,8,9
 450 1458 450 1458 472 1410 c 0,10,11
 478 1397 478 1397 483 1384 c 1,12,13
 558 1439 558 1439 628 1471 c 1,14,15
 756 1531 756 1531 899 1531 c 2,16,-1
 903 1531 l 1,17,18
 1037 1530 1037 1530 1133 1483 c 0,19,20
 1251 1425 1251 1425 1311 1357 c 0,21,22
 1339 1325 1339 1325 1360 1294 c 2,23,-1
 1405 1228 l 1,24,-1
 1147 1075 l 1,25,-1
 1114 1154 l 2,26,27
 1087 1219 1087 1219 1016 1268 c 0,28,29
 961 1307 961 1307 882 1307 c 2,30,-1
 874 1307 l 2,31,32
 796 1307 796 1307 723 1271 c 0,33,34
 627 1224 627 1224 576 1164 c 1,35,36
 500 1079 500 1079 500 941 c 2,37,-1
 500 896 l 1,38,-1
 1070 896 l 1,39,-1
 1070 646 l 1,40,-1
 500 646 l 1,41,-1
 500 -0 l 1,42,-1
 200 0 l 1,0,-1
EndSplineSet
Validated: 1
EndChar

StartChar: G
Encoding: 71 71 42
Width: 1840
GlyphClass: 2
Flags: W
HStem: -20 223<626.699 1052.77> 646 250<994 1414> 1099 21G<1355.81 1404.06> 1307 224<785.492 1196.16>
VStem: 100 301<437.731 925.556>
LayerCount: 2
Fore
SplineSet
1740 896 m 1,0,-1
 1738 824 l 2,1,2
 1737 754 1737 754 1721 684 c 0,3,4
 1678 492 1678 492 1549 334 c 0,5,6
 1401 153 1401 153 1196 56 c 1,7,8
 1033 -20 1033 -20 838 -20 c 2,9,-1
 817 -20 l 2,10,11
 629 -20 629 -20 508 39 c 0,12,13
 369 106 369 106 284 191 c 0,14,15
 194 281 194 281 149 402 c 0,16,17
 110 505 110 505 102 619 c 0,18,19
 100 652 100 652 100 678 c 0,20,21
 101 763 101 763 117 835 c 0,22,23
 157 1021 157 1021 292 1183 c 0,24,25
 455 1380 455 1380 659 1459 c 1,26,27
 842 1531 842 1531 1017 1531 c 2,28,-1
 1021 1531 l 1,29,30
 1201 1530 1201 1530 1324 1469 c 1,31,32
 1472 1397 1472 1397 1559 1302 c 1,33,-1
 1609 1243 l 1,34,-1
 1371 1099 l 1,35,-1
 1330 1153 l 2,36,37
 1293 1202 1293 1202 1222 1249 c 1,38,39
 1129 1307 1129 1307 1005 1307 c 2,40,-1
 986 1307 l 2,41,42
 880 1307 880 1307 772 1257 c 0,43,44
 610 1182 610 1182 500 1034 c 0,45,46
 443 957 443 957 410 799 c 0,47,48
 401 759 401 759 401 702 c 0,49,50
 401 668 401 668 405 620 c 0,51,52
 416 490 416 490 457 412 c 0,53,54
 507 318 507 318 606 258 c 0,55,56
 696 203 696 203 826 203 c 2,57,-1
 843 203 l 2,58,59
 952 203 952 203 1059 249 c 0,60,61
 1236 326 1236 326 1335 471 c 0,62,63
 1388 549 1388 549 1414 646 c 1,64,-1
 994 646 l 1,65,-1
 994 896 l 1,66,-1
 1740 896 l 1,0,-1
EndSplineSet
Validated: 1
EndChar

StartChar: H
Encoding: 72 72 43
Width: 1672
GlyphClass: 2
Flags: W
HStem: 0 5<1628.02 1632> 0 0 646 250<500 1172> 1506 5<40 43.9824> 1511 0
VStem: 200 300<0 646 896 1405.79> 1172 300<105.211 646 896 1511>
LayerCount: 2
Fore
SplineSet
200 0 m 1,0,-1
 200 1292 l 2,1,2
 200 1348 200 1348 150 1414 c 0,3,4
 104 1474 104 1474 40 1506 c 2,5,-1
 30 1511 l 1,6,-1
 370 1511 l 1,7,-1
 388 1499 l 2,8,9
 447 1460 447 1460 472 1410 c 0,10,11
 500 1355 500 1355 500 1293 c 10,12,-1
 500 896 l 17,13,-1
 1172 896 l 1,14,-1
 1172 1511 l 1,15,-1
 1472 1511 l 1,16,-1
 1472 219 l 2,17,18
 1472 163 1472 163 1522 97 c 0,19,20
 1568 37 1568 37 1632 5 c 2,21,-1
 1642 0 l 1,22,-1
 1302 0 l 1,23,-1
 1284 12 l 2,24,25
 1225 51 1225 51 1200 101 c 0,26,27
 1172 156 1172 156 1172 218 c 2,28,-1
 1172 646 l 1,29,-1
 500 646 l 1,30,-1
 500 -0 l 1,31,-1
 200 0 l 1,0,-1
EndSplineSet
Validated: 1
EndChar

StartChar: I
Encoding: 73 73 44
Width: 700
GlyphClass: 2
Flags: W
HStem: 0 21G<200 500> 1506 5<40 43.9824> 1511 0
VStem: 200 300<0 1405.79>
LayerCount: 2
Fore
SplineSet
200 0 m 1,0,-1
 200 1292 l 2,1,2
 200 1348 200 1348 150 1414 c 24,3,4
 104 1474 104 1474 40 1506 c 2,5,-1
 30 1511 l 1,6,-1
 370 1511 l 1,7,-1
 388 1499 l 2,8,9
 447 1460 447 1460 472 1410 c 0,10,11
 500 1355 500 1355 500 1293 c 2,12,-1
 500 -0 l 1,13,-1
 200 0 l 1,0,-1
EndSplineSet
Validated: 1
EndChar

StartChar: J
Encoding: 74 74 45
Width: 1345
GlyphClass: 2
Flags: W
HStem: -20 223<325.75 626.604> 1261 250<532.274 844>
VStem: 845 300<413.264 1261>
LayerCount: 2
Fore
SplineSet
20 169 m 1,0,-1
 227 347 l 1,1,-1
 277 293 l 2,2,3
 314 253 314 253 339 239 c 0,4,5
 399 203 399 203 465 203 c 2,6,-1
 474 203 l 2,7,8
 545 203 545 203 635 252 c 1,9,10
 719 302 719 302 783 387 c 0,11,12
 838 461 838 461 842 541 c 0,13,14
 845 590 845 590 845 591 c 2,15,-1
 845 601 l 1,16,17
 844 1023 844 1023 844 1261 c 1,18,-1
 650 1261 l 2,19,20
 568 1261 568 1261 498 1185 c 1,21,22
 455 1137 455 1137 411 1055 c 2,23,-1
 405 1044 l 1,24,-1
 405 1383 l 1,25,-1
 413 1393 l 1,26,27
 470 1459 470 1459 523 1484 c 0,28,29
 582 1511 582 1511 650 1511 c 2,30,-1
 1144 1511 l 1,31,-1
 1145 673 l 2,32,33
 1145 573 1145 573 1135 511 c 0,34,35
 1114 390 1114 390 1003 248 c 0,36,37
 903 120 903 120 728 39 c 0,38,39
 601 -20 601 -20 462 -20 c 2,40,-1
 449 -20 l 2,41,42
 323 -20 323 -20 220 27 c 0,43,44
 144 62 144 62 86 112 c 2,45,-1
 20 169 l 1,0,-1
EndSplineSet
Validated: 1
EndChar

StartChar: K
Encoding: 75 75 46
Width: 1593
GlyphClass: 2
Flags: W
HStem: 0 21G<200 500 1089.91 1588> 1506 5<40 43.9824> 1511 0
VStem: 200 300<0 213.163 432 1405.79> 1065 293<852.957 1245.27>
DStem2: 971 437 712 299 0.81605 -0.577981<0 371.721>
LayerCount: 2
Fore
SplineSet
200 0 m 1,0,-1
 200 1292 l 2,1,2
 200 1348 200 1348 150 1414 c 0,3,4
 104 1474 104 1474 40 1506 c 2,5,-1
 30 1511 l 1,6,-1
 370 1511 l 1,7,-1
 388 1499 l 2,8,9
 447 1460 447 1460 472 1410 c 0,10,11
 500 1355 500 1355 500 1293 c 2,12,-1
 500 432 l 1,13,14
 636 493 636 493 690 527 c 0,15,16
 809 602 809 602 907 697 c 0,17,18
 998 785 998 785 1034 872 c 0,19,20
 1065 948 1065 948 1065 1032 c 2,21,-1
 1065 1036 l 2,22,23
 1065 1060 1065 1060 1064 1062 c 0,24,25
 1057 1197 1057 1197 995 1292 c 0,26,27
 910 1422 910 1422 782 1503 c 1,28,-1
 768 1511 l 1,29,-1
 1078 1511 l 1,30,-1
 1089 1505 l 2,31,32
 1167 1462 1167 1462 1250 1360 c 0,33,34
 1341 1248 1341 1248 1355 1118 c 0,35,36
 1358 1091 1358 1091 1358 1065 c 0,37,38
 1358 941 1358 941 1295 812 c 0,39,40
 1236 691 1236 691 1146 595 c 0,41,42
 1058 501 1058 501 971 437 c 1,43,-1
 1588 0 l 1,44,-1
 1117 0 l 1,45,-1
 712 299 l 1,46,-1
 707 296 l 2,47,48
 598 234 598 234 500 195 c 1,49,-1
 500 -0 l 1,50,-1
 200 0 l 1,0,-1
EndSplineSet
Validated: 1
EndChar

StartChar: L
Encoding: 76 76 47
Width: 1148
GlyphClass: 2
Flags: W
HStem: 0 250<500 1000.73> 1506 5<40 43.9824> 1511 0
VStem: 200 300<250 1405.79>
LayerCount: 2
Fore
SplineSet
200 0 m 1,0,-1
 200 1292 l 2,1,2
 200 1348 200 1348 150 1414 c 0,3,4
 104 1474 104 1474 40 1506 c 2,5,-1
 30 1511 l 1,6,-1
 370 1511 l 1,7,-1
 388 1499 l 2,8,9
 447 1460 447 1460 472 1410 c 0,10,11
 500 1355 500 1355 500 1293 c 2,12,-1
 500 250 l 1,13,-1
 883 250 l 2,14,15
 965 250 965 250 1035 326 c 1,16,17
 1075 371 1075 371 1122 456 c 2,18,-1
 1128 467 l 1,19,-1
 1128 128 l 1,20,-1
 1120 118 l 1,21,22
 1063 52 1063 52 1010 27 c 0,23,24
 951 0 951 0 883 0 c 2,25,-1
 200 0 l 1,0,-1
EndSplineSet
Validated: 1
EndChar

StartChar: M
Encoding: 77 77 48
Width: 2643
GlyphClass: 2
Flags: W
HStem: 0 21G<200 500 1164 1464 1863 2178.18> 1307 224<713.332 1049.48 1694.38 1996.93> 1506 5<40 43.9824> 1511 0
VStem: 200 300<0 1111.9> 1164 300<0 1111.88> 2240 303<537.586 1056.63>
LayerCount: 2
Fore
SplineSet
200 0 m 1,0,-1
 200 1292 l 2,1,2
 200 1348 200 1348 150 1414 c 0,3,4
 104 1474 104 1474 40 1506 c 2,5,-1
 30 1511 l 1,6,-1
 370 1511 l 1,7,-1
 388 1499 l 2,8,9
 447 1460 447 1460 472 1410 c 0,10,11
 478 1398 478 1398 483 1385 c 1,12,13
 571 1446 571 1446 628 1471 c 0,14,15
 765 1531 765 1531 899 1531 c 2,16,-1
 903 1531 l 1,17,18
 1028 1530 1028 1530 1128 1494 c 0,19,20
 1232 1456 1232 1456 1313 1390 c 0,21,22
 1362 1350 1362 1350 1378 1331 c 1,23,24
 1511 1435 1511 1435 1597 1472 c 0,25,26
 1735 1531 1735 1531 1859 1531 c 2,27,-1
 1864 1531 l 2,28,29
 2011 1531 2011 1531 2137 1472 c 0,30,31
 2274 1408 2274 1408 2359 1323 c 0,32,33
 2448 1234 2448 1234 2494 1126 c 0,34,35
 2533 1033 2533 1033 2541 894 c 0,36,37
 2543 858 2543 858 2543 839 c 0,38,39
 2543 680 2543 680 2506 560 c 0,40,41
 2459 409 2459 409 2399 311 c 0,42,43
 2350 231 2350 231 2294 153 c 0,44,45
 2259 104 2259 104 2180 22 c 1,46,-1
 2160 0 l 1,47,-1
 1863 0 l 1,48,-1
 1919 57 l 2,49,50
 1955 94 1955 94 2055 237 c 0,51,52
 2113 320 2113 320 2160 426 c 0,53,54
 2205 528 2205 528 2224 620 c 0,55,56
 2240 697 2240 697 2240 808 c 0,57,58
 2240 840 2240 840 2236 884 c 0,59,60
 2224 1015 2224 1015 2177 1094 c 0,61,62
 2113 1201 2113 1201 2022 1250 c 0,63,64
 1934 1297 1934 1297 1830 1297 c 0,65,66
 1769 1297 1769 1297 1695 1264 c 0,67,68
 1599 1221 1599 1221 1540 1155 c 0,69,70
 1464 1070 1464 1070 1464 939 c 2,71,-1
 1464 0 l 1,72,-1
 1164 0 l 1,73,-1
 1164 1015 l 1,74,75
 1163 1131 1163 1131 1122 1193 c 0,76,77
 1089 1243 1089 1243 1023 1278 c 0,78,79
 969 1307 969 1307 878 1307 c 2,80,-1
 874 1307 l 1,81,82
 794 1306 794 1306 723 1269 c 0,83,84
 631 1221 631 1221 576 1157 c 0,85,86
 500 1067 500 1067 500 924 c 2,87,-1
 500 -0 l 1,88,-1
 200 0 l 1,0,-1
EndSplineSet
Validated: 1
EndChar

StartChar: N
Encoding: 78 78 49
Width: 1679
GlyphClass: 2
Flags: W
HStem: 0 21G<200 500 899 1214.18> 1297 234<707.578 1050.76> 1506 5<40 44.043> 1511 0
VStem: 200 300<0 1111.75> 1276 303<537.586 1056.63>
LayerCount: 2
Fore
SplineSet
200 0 m 1,0,-1
 200 1292 l 2,1,2
 200 1348 200 1348 150 1414 c 0,3,4
 105 1474 105 1474 40 1506 c 2,5,-1
 30 1511 l 1,6,-1
 370 1511 l 1,7,-1
 388 1499 l 2,8,9
 447 1460 447 1460 472 1410 c 0,10,11
 479 1396 479 1396 484 1382 c 1,12,13
 552 1437 552 1437 634 1472 c 0,14,15
 773 1531 773 1531 895 1531 c 2,16,-1
 900 1531 l 2,17,18
 1048 1530 1048 1530 1173 1472 c 0,19,20
 1309 1409 1309 1409 1395 1323 c 0,21,22
 1484 1234 1484 1234 1530 1126 c 0,23,24
 1569 1033 1569 1033 1577 894 c 0,25,26
 1579 858 1579 858 1579 839 c 0,27,28
 1579 680 1579 680 1542 560 c 0,29,30
 1495 409 1495 409 1435 311 c 0,31,32
 1386 231 1386 231 1330 153 c 0,33,34
 1295 104 1295 104 1216 22 c 1,35,-1
 1196 0 l 1,36,-1
 899 0 l 1,37,-1
 955 57 l 2,38,39
 991 94 991 94 1091 237 c 0,40,41
 1149 320 1149 320 1196 426 c 0,42,43
 1241 528 1241 528 1260 620 c 0,44,45
 1276 698 1276 698 1276 808 c 0,46,47
 1276 840 1276 840 1272 884 c 0,48,49
 1260 1015 1260 1015 1213 1094 c 0,50,51
 1149 1202 1149 1202 1058 1250 c 0,52,53
 968 1297 968 1297 866 1297 c 0,54,55
 805 1297 805 1297 731 1264 c 0,56,57
 635 1221 635 1221 576 1155 c 0,58,59
 500 1070 500 1070 500 923 c 2,60,-1
 500 0 l 1,61,-1
 200 0 l 1,0,-1
EndSplineSet
Validated: 1
EndChar

StartChar: O
Encoding: 79 79 50
Width: 1839
GlyphClass: 2
Flags: W
HStem: -20 223<625.168 1041.98> 1307 224<791.39 1212.24>
VStem: 100 301<437.312 922> 1436 303<586.335 1072.45>
LayerCount: 2
Fore
SplineSet
1021 1531 m 1,0,1
 1196 1530 1196 1530 1324 1473 c 0,2,3
 1477 1404 1477 1404 1556 1319 c 0,4,5
 1646 1223 1646 1223 1686 1124 c 0,6,7
 1726 1026 1726 1026 1737 893 c 0,8,9
 1739 865 1739 865 1739 837 c 0,10,11
 1738 755 1738 755 1722 677 c 0,12,13
 1685 507 1685 507 1549 332 c 0,14,15
 1422 167 1422 167 1183 57 c 0,16,17
 1016 -20 1016 -20 838 -20 c 2,18,19
 838 -20 838 -20 817 -20 c 0,20,21
 647 -20 647 -20 517 38 c 0,22,23
 367 106 367 106 283 192 c 1,24,25
 190 301 190 301 153 389 c 0,26,27
 115 480 115 480 102 616 c 0,28,29
 100 642 100 642 100 675 c 0,30,31
 101 757 101 757 117 832 c 0,32,33
 154 1014 154 1014 292 1180 c 0,34,35
 451 1372 451 1372 658 1456 c 1,36,37
 847 1531 847 1531 1017 1531 c 2,38,-1
 1021 1531 l 1,0,1
843 203 m 0,39,40
 941 206 941 206 1042 246 c 0,41,42
 1220 316 1220 316 1334 477 c 0,43,44
 1404 575 1404 575 1425 709 c 0,45,46
 1436 778 1436 778 1436 816 c 0,47,48
 1436 851 1436 851 1432 890 c 0,49,50
 1419 1025 1419 1025 1379 1100 c 0,51,52
 1323 1204 1323 1204 1226 1257 c 0,53,54
 1134 1307 1134 1307 1019 1307 c 0,55,56
 1012 1307 1012 1307 1006 1307 c 256,57,58
 889 1307 889 1307 786 1262 c 0,59,60
 607 1184 607 1184 500 1034 c 0,61,62
 446 958 446 958 410 799 c 0,63,64
 401 759 401 759 401 701 c 0,65,66
 401 658 401 658 405 620 c 0,67,68
 420 477 420 477 458 411 c 0,69,70
 524 301 524 301 606 257 c 0,71,72
 691 211 691 211 824 203 c 0,73,74
 843 203 843 203 843 203 c 0,39,40
EndSplineSet
Validated: 1
EndChar

StartChar: P
Encoding: 80 80 51
Width: 1550
GlyphClass: 2
Flags: W
HStem: 0 21G<200 500> 263 202<631.771 909.32> 1307 224<712.473 1021.27> 1506 5<40 43.9824> 1511 0
VStem: 200 300<0 1106.44> 1151 299<722.578 1170.48>
LayerCount: 2
Fore
SplineSet
200 0 m 1,0,-1
 200 1292 l 2,1,2
 200 1348 200 1348 150 1414 c 0,3,4
 104 1474 104 1474 40 1506 c 2,5,-1
 30 1511 l 1,6,-1
 370 1511 l 1,7,-1
 388 1499 l 2,8,9
 447 1460 447 1460 472 1410 c 0,10,11
 478 1398 478 1398 483 1386 c 1,12,13
 558 1440 558 1440 628 1471 c 0,14,15
 763 1531 763 1531 899 1531 c 2,16,-1
 903 1531 l 1,17,18
 1039 1530 1039 1530 1133 1485 c 0,19,20
 1244 1431 1244 1431 1310 1359 c 0,21,22
 1379 1284 1379 1284 1413 1196 c 0,23,24
 1444 1117 1444 1117 1449 1004 c 0,25,26
 1450 982 1450 982 1450 947 c 0,27,28
 1450 891 1450 891 1438 828 c 0,29,30
 1410 688 1410 688 1307 545 c 0,31,32
 1210 410 1210 410 1087 344 c 0,33,34
 935 263 935 263 791 263 c 2,35,-1
 781 263 l 2,36,37
 687 263 687 263 618 317 c 1,38,39
 578 350 578 350 553 405 c 0,40,41
 540 433 540 433 535 461 c 2,42,-1
 528 500 l 1,43,-1
 567 489 l 2,44,45
 652 465 652 465 711 465 c 2,46,-1
 724 465 l 2,47,48
 736 465 736 465 750 466 c 0,49,50
 843 476 843 476 907 507 c 1,51,52
 1020 565 1020 565 1086 672 c 0,53,54
 1127 740 1127 740 1145 853 c 0,55,56
 1151 890 1151 890 1151 931 c 0,57,58
 1151 957 1151 957 1149 994 c 0,59,60
 1144 1082 1144 1082 1115 1153 c 0,61,62
 1088 1218 1088 1218 1016 1268 c 0,63,64
 960 1307 960 1307 882 1307 c 2,65,-1
 874 1307 l 2,66,67
 796 1307 796 1307 723 1269 c 0,68,69
 627 1218 627 1218 577 1155 c 1,70,71
 500 1065 500 1065 500 918 c 2,72,-1
 500 -0 l 1,73,-1
 200 0 l 1,0,-1
EndSplineSet
Validated: 1
EndChar

StartChar: Q
Encoding: 81 81 52
Width: 1902
GlyphClass: 2
Flags: W
HStem: -20 223<624.666 1045.5> 0 21G<1401.59 1897> 1307 224<791.39 1212.24>
VStem: 100 301<437.312 922> 1436 303<586.335 1071.88>
LayerCount: 2
Fore
SplineSet
1897 0 m 1,0,-1
 1429 0 l 1,1,-1
 1281 108 l 1,2,3
 1235 81 1235 81 1183 57 c 0,4,5
 1016 -20 1016 -20 838 -20 c 2,6,-1
 817 -20 l 2,7,8
 647 -20 647 -20 517 38 c 0,9,10
 367 106 367 106 283 192 c 1,11,12
 190 301 190 301 153 389 c 0,13,14
 115 480 115 480 102 616 c 0,15,16
 100 642 100 642 100 675 c 0,17,18
 101 757 101 757 117 832 c 0,19,20
 154 1014 154 1014 292 1180 c 0,21,22
 451 1372 451 1372 658 1456 c 1,23,24
 847 1531 847 1531 1017 1531 c 2,25,-1
 1021 1531 l 1,26,27
 1196 1530 1196 1530 1324 1473 c 0,28,29
 1477 1404 1477 1404 1556 1319 c 0,30,31
 1646 1223 1646 1223 1686 1124 c 0,32,33
 1726 1026 1726 1026 1737 893 c 0,34,35
 1739 865 1739 865 1739 837 c 0,36,37
 1738 755 1738 755 1722 677 c 0,38,39
 1685 507 1685 507 1549 332 c 0,40,41
 1529 306 1529 306 1506 281 c 1,42,-1
 1897 0 l 1,0,-1
843 203 m 0,43,44
 946 206 946 206 1042 246 c 0,45,46
 1066 256 1066 256 1073 259 c 1,47,-1
 605 600 l 1,48,-1
 1063 600 l 1,49,-1
 1299 430 l 1,50,51
 1317 452 1317 452 1334 477 c 0,52,53
 1404 575 1404 575 1425 709 c 0,54,55
 1436 778 1436 778 1436 816 c 0,56,57
 1436 851 1436 851 1432 890 c 0,58,59
 1419 1023 1419 1023 1379 1100 c 1,60,61
 1322 1205 1322 1205 1226 1257 c 0,62,63
 1134 1307 1134 1307 1019 1307 c 0,64,65
 1013 1307 1013 1307 1006 1307 c 256,66,67
 890 1307 890 1307 786 1262 c 0,68,69
 612 1186 612 1186 500 1034 c 0,70,71
 447 962 447 962 410 799 c 0,72,73
 401 759 401 759 401 701 c 0,74,75
 401 668 401 668 405 620 c 0,76,77
 416 489 416 489 458 411 c 0,78,79
 513 309 513 309 606 257 c 0,80,81
 696 207 696 207 824 203 c 0,82,83
 834 203 834 203 843 203 c 0,43,44
EndSplineSet
Validated: 1
EndChar

StartChar: R
Encoding: 82 82 53
Width: 1645
GlyphClass: 2
Flags: W
HStem: 0 21G<200 500 1128.73 1630> 1307 224<716.701 1022.65> 1506 5<40 43.9824> 1511 0
VStem: 200 300<0 1103.9> 1151 299<746.312 1170.98>
LayerCount: 2
Fore
SplineSet
200 0 m 1,0,-1
 200 1292 l 2,1,2
 200 1348 200 1348 150 1414 c 0,3,4
 104 1474 104 1474 40 1506 c 2,5,-1
 30 1511 l 1,6,-1
 370 1511 l 1,7,-1
 388 1499 l 2,8,9
 443 1462 443 1462 472 1410 c 0,10,11
 478 1399 478 1399 482 1387 c 1,12,13
 556 1439 556 1439 628 1471 c 0,14,15
 763 1531 763 1531 899 1531 c 2,16,-1
 903 1531 l 2,17,18
 1036 1531 1036 1531 1133 1486 c 0,19,20
 1244 1435 1244 1435 1310 1364 c 1,21,22
 1379 1292 1379 1292 1413 1207 c 0,23,24
 1444 1130 1444 1130 1449 1021 c 0,25,26
 1450 999 1450 999 1450 965 c 0,27,28
 1450 910 1450 910 1438 850 c 0,29,30
 1409 711 1409 711 1307 576 c 0,31,32
 1219 459 1219 459 1082 382 c 1,33,-1
 1630 0 l 1,34,-1
 1156 0 l 1,35,-1
 511 473 l 2,36,37
 515 470 515 470 591 462 c 0,38,39
 619 459 619 459 664 459 c 2,40,-1
 687 459 l 2,41,42
 713 459 713 459 747 462 c 0,43,44
 826 469 826 469 897 501 c 0,45,46
 1015 555 1015 555 1086 672 c 0,47,48
 1127 740 1127 740 1145 853 c 0,49,50
 1151 890 1151 890 1151 931 c 0,51,52
 1151 957 1151 957 1149 994 c 0,53,54
 1144 1082 1144 1082 1115 1153 c 0,55,56
 1088 1218 1088 1218 1016 1268 c 0,57,58
 960 1307 960 1307 882 1307 c 2,59,-1
 874 1307 l 2,60,61
 796 1307 796 1307 723 1267 c 0,62,63
 627 1214 627 1214 576 1149 c 1,64,65
 500 1061 500 1061 500 903 c 2,66,-1
 500 -0 l 1,67,-1
 200 0 l 1,0,-1
EndSplineSet
Validated: 1
EndChar

StartChar: S
Encoding: 83 83 54
Width: 1635
GlyphClass: 2
Flags: W
HStem: -20 223<535.107 929.13> 1307 224<728.774 1028.99>
VStem: 1230 305<473.016 617.843>
DStem2: 925 988 640 775 0.981847 -0.189675<-321.306 366.393>
LayerCount: 2
Fore
SplineSet
80 329 m 1,0,-1
 331 468 l 1,1,-1
 367 403 l 2,2,3
 412 320 412 320 505 264 c 0,4,5
 608 203 608 203 720 203 c 2,6,-1
 734 203 l 2,7,8
 848 203 848 203 952 259 c 1,9,10
 1120 352 1120 352 1187 473 c 0,11,12
 1230 551 1230 551 1230 603 c 0,13,14
 1230 613 1230 613 1229 618 c 0,15,16
 1223 661 1223 661 1151 680 c 0,17,18
 1078 699 1078 699 881 731 c 1,19,20
 881 731 881 731 640 775 c 0,21,22
 496 801 496 801 419 875 c 0,23,24
 324 967 324 967 324 1064 c 2,25,26
 324 1064 324 1064 324 1066 c 0,27,28
 324 1188 324 1188 382 1267 c 0,29,30
 488 1414 488 1414 636 1473 c 1,31,32
 770 1531 770 1531 907 1531 c 2,33,-1
 911 1531 l 1,34,35
 1046 1530 1046 1530 1142 1484 c 0,36,37
 1220 1446 1220 1446 1275 1400 c 1,38,-1
 1348 1337 l 1,39,-1
 1124 1174 l 1,40,-1
 1079 1222 l 2,41,42
 1057 1245 1057 1245 1024 1268 c 0,43,44
 968 1307 968 1307 890 1307 c 2,45,-1
 882 1307 l 2,46,47
 816 1307 816 1307 763 1282 c 1,48,49
 686 1244 686 1244 643 1186 c 0,50,51
 611 1142 611 1142 611 1109 c 1,52,53
 611 1109 611 1109 612 1107 c 0,54,55
 621 1048 621 1048 696 1030 c 0,56,57
 754 1016 754 1016 925 988 c 0,58,59
 1111 957 1111 957 1224 928 c 0,60,61
 1378 889 1378 889 1451 813 c 0,62,63
 1535 725 1535 725 1535 614 c 2,64,-1
 1535 604 l 2,65,66
 1535 471 1535 471 1441 332 c 0,67,68
 1333 172 1333 172 1078 55 c 1,69,70
 924 -20 924 -20 730 -20 c 2,71,72
 730 -20 730 -20 707 -20 c 0,73,74
 533 -20 533 -20 405 41 c 1,75,76
 267 108 267 108 174 208 c 0,77,78
 151 232 151 232 131 260 c 2,79,-1
 80 329 l 1,0,-1
EndSplineSet
Validated: 1
EndChar

StartChar: T
Encoding: 84 84 55
Width: 1400
GlyphClass: 2
Flags: W
HStem: 0 21G<550 850> 1261 250<217.274 550 850 1310>
VStem: 550 300<0 1261>
LayerCount: 2
Fore
SplineSet
550 0 m 1,0,-1
 550 1261 l 1,1,-1
 335 1261 l 2,2,3
 253 1261 253 1261 183 1185 c 1,4,5
 140 1137 140 1137 96 1055 c 2,6,-1
 90 1044 l 1,7,-1
 90 1383 l 1,8,-1
 98 1393 l 1,9,10
 155 1459 155 1459 208 1484 c 0,11,12
 267 1511 267 1511 335 1511 c 2,13,-1
 1310 1511 l 1,14,-1
 1310 1261 l 1,15,-1
 850 1261 l 1,16,-1
 850 0 l 1,17,-1
 550 0 l 1,0,-1
EndSplineSet
Validated: 1
EndChar

StartChar: U
Encoding: 85 85 56
Width: 1679
GlyphClass: 2
Flags: W
HStem: -20 234<628.241 970.984> 0 5<1634.96 1639> 0 0 1491 20G<464.818 780 1179 1479>
VStem: 100 303<454.373 973.414> 1179 300<398.891 1511>
LayerCount: 2
Fore
SplineSet
1479 1511 m 1,0,-1
 1479 219 l 2,1,2
 1479 163 1479 163 1529 97 c 0,3,4
 1574 37 1574 37 1639 5 c 2,5,-1
 1649 0 l 1,6,-1
 1309 0 l 1,7,-1
 1291 12 l 2,8,9
 1232 51 1232 51 1207 101 c 0,10,11
 1200 115 1200 115 1195 129 c 1,12,13
 1127 74 1127 74 1045 39 c 0,14,15
 906 -20 906 -20 784 -20 c 2,16,-1
 779 -20 l 2,17,18
 631 -19 631 -19 506 39 c 0,19,20
 370 102 370 102 284 188 c 0,21,22
 195 277 195 277 149 385 c 0,23,24
 110 478 110 478 102 617 c 0,25,26
 100 653 100 653 100 672 c 0,27,28
 100 831 100 831 137 951 c 0,29,30
 184 1102 184 1102 244 1200 c 0,31,32
 293 1280 293 1280 349 1358 c 0,33,34
 384 1407 384 1407 463 1489 c 1,35,-1
 483 1511 l 1,36,-1
 780 1511 l 1,37,-1
 724 1454 l 2,38,39
 688 1417 688 1417 588 1274 c 0,40,41
 530 1191 530 1191 483 1085 c 0,42,43
 438 983 438 983 419 891 c 0,44,45
 403 813 403 813 403 703 c 0,46,47
 403 671 403 671 407 627 c 0,48,49
 419 496 419 496 466 417 c 0,50,51
 530 308 530 308 621 261 c 0,52,53
 711 214 711 214 813 214 c 0,54,55
 873 214 873 214 948 247 c 0,56,57
 1042 289 1042 289 1103 356 c 0,58,59
 1179 440 1179 440 1179 588 c 2,60,-1
 1179 1511 l 1,61,-1
 1479 1511 l 1,0,-1
EndSplineSet
Validated: 1
EndChar

StartChar: V
Encoding: 86 86 57
Width: 1821
GlyphClass: 2
Flags: W
HStem: 0 21G<710.536 968> 1491 20G<5 342.436 985 1377.5>
VStem: 5 328<1183 1511> 1425 296<661.404 1103.31>
DStem2: 333 1511 5 1511 0.427726 -0.903908<0 1431.9>
LayerCount: 2
Fore
SplineSet
720 0 m 1,0,-1
 5 1511 l 9,1,-1
 333 1511 l 17,2,-1
 944 216 l 1,3,-1
 964 228 l 2,4,5
 1077 296 1077 296 1173 377 c 0,6,7
 1303 487 1303 487 1372 626 c 0,8,9
 1425 732 1425 732 1425 842 c 2,10,-1
 1425 854 l 2,11,12
 1425 1062 1425 1062 1325 1215 c 0,13,14
 1232 1357 1232 1357 1010 1497 c 1,15,-1
 985 1511 l 9,16,-1
 1335 1511 l 17,17,18
 1420 1451 1420 1451 1495 1382 c 0,19,20
 1608 1278 1608 1278 1668 1146 c 0,21,22
 1720 1031 1720 1031 1721 895 c 1,23,-1
 1721 891 l 2,24,25
 1721 732 1721 732 1637 571 c 0,26,27
 1557 418 1557 418 1421 296 c 0,28,29
 1262 153 1262 153 1057 48 c 0,30,31
 981 9 981 9 955 0 c 1,32,-1
 720 0 l 1,0,-1
EndSplineSet
Validated: 19457
EndChar

StartChar: W
Encoding: 87 87 58
Width: 2653
GlyphClass: 2
Flags: W
HStem: -20 234<626.113 969.887 1562.76 1924.57> 1491 20G<469 781 1179 1479 1881 2195>
VStem: 100 303<453.589 972.134> 1179 300<399.568 1511> 2252 301<570 1078.92>
LayerCount: 2
Fore
SplineSet
484 1511 m 1,0,-1
 781 1511 l 1,1,-1
 764 1494 l 2,2,3
 666 1396 666 1396 586 1279 c 0,4,5
 529 1198 529 1198 482 1092 c 0,6,7
 440 997 440 997 419 891 c 0,8,9
 403 809 403 809 403 715 c 2,10,-1
 403 703 l 2,11,12
 403 671 403 671 407 627 c 0,13,14
 419 496 419 496 466 416 c 0,15,16
 531 305 531 305 620 261 c 0,17,18
 718 214 718 214 804 214 c 2,19,-1
 807 214 l 2,20,21
 866 214 866 214 948 248 c 0,22,23
 1042 287 1042 287 1104 356 c 1,24,25
 1176 439 1176 439 1179 576 c 1,26,-1
 1179 1511 l 1,27,-1
 1479 1511 l 1,28,-1
 1479 441 l 2,29,30
 1479 362 1479 362 1505 321 c 0,31,32
 1535 274 1535 274 1588 239 c 128,-1,33
 1641 204 1641 204 1737 204 c 2,34,-1
 1741 204 l 2,35,36
 1807 204 1807 204 1894 243 c 0,37,38
 2028 302 2028 302 2139 442 c 0,39,40
 2218 542 2218 542 2239 653 c 0,41,42
 2252 718 2252 718 2252 787 c 0,43,44
 2252 817 2252 817 2247 869 c 0,45,46
 2230 1051 2230 1051 2167 1188 c 0,47,48
 2084 1368 2084 1368 1901 1497 c 1,49,-1
 1881 1511 l 1,50,-1
 2192 1511 l 1,51,-1
 2195 1509 l 1,52,53
 2258 1471 2258 1471 2345 1376 c 128,-1,54
 2432 1281 2432 1281 2498 1125 c 0,55,56
 2540 1027 2540 1027 2550 902 c 0,57,58
 2553 866 2553 866 2553 828 c 0,59,60
 2553 746 2553 746 2534 657 c 0,61,62
 2497 483 2497 483 2362 309 c 24,63,64
 2226 134 2226 134 2000 36 c 0,65,66
 1869 -20 1869 -20 1716 -20 c 2,67,-1
 1712 -20 l 2,68,69
 1596 -20 1596 -20 1487 17 c 0,70,71
 1384 52 1384 52 1315 121 c 0,72,73
 1284 152 1284 152 1261 187 c 1,74,75
 1176 97 1176 97 1046 40 c 0,76,77
 909 -20 909 -20 784 -20 c 2,78,-1
 779 -20 l 2,79,80
 633 -20 633 -20 506 39 c 0,81,82
 373 101 373 101 285 188 c 0,83,84
 194 278 194 278 148 385 c 0,85,86
 109 476 109 476 102 618 c 0,87,88
 100 659 100 659 100 672 c 0,89,90
 100 828 100 828 139 955 c 0,91,92
 184 1102 184 1102 243 1196 c 0,93,94
 314 1309 314 1309 353 1358 c 0,95,96
 409 1428 409 1428 469 1494 c 1,97,-1
 484 1511 l 1,0,-1
EndSplineSet
Validated: 1
EndChar

StartChar: X
Encoding: 88 88 59
Width: 1717
GlyphClass: 2
Flags: W
HStem: 0 21G<58 459.471 1165.43 1567> 1499 12<938 945.514> 1511 0
VStem: 5 370<1141 1511> 58 374<0 374> 1181 386<0 386> 1208 293<862.572 1265.59>
DStem2: 375 1511 5 1511 0.619358 -0.785109<0 1020.74 1265.97 1685.5> 58 0 432 0 0.812015 0.583636<303.694 891.999 1195.77 1381.81>
LayerCount: 2
Fore
SplineSet
58 0 m 9,0,-1
 777 528 l 17,1,-1
 5 1511 l 9,2,-1
 375 1511 l 25,3,-1
 1018 690 l 1,4,5
 1037 704 1037 704 1066 731 c 0,6,7
 1138 798 1138 798 1179 891 c 0,8,9
 1208 957 1208 957 1208 1050 c 0,10,11
 1208 1061 1208 1061 1207 1076 c 0,12,13
 1197 1231 1197 1231 1130 1327 c 0,14,15
 1059 1429 1059 1429 938 1499 c 1,16,-1
 914 1511 l 1,17,-1
 1239 1511 l 1,18,19
 1309 1470 1309 1470 1392 1370 c 0,20,21
 1483 1260 1483 1260 1498 1127 c 0,22,23
 1501 1100 1501 1100 1501 1069 c 0,24,25
 1501 933 1501 933 1428 806 c 0,26,27
 1362 691 1362 691 1266 605 c 0,28,29
 1214 559 1214 559 1159 517 c 1,30,-1
 1567 0 l 9,31,-1
 1181 0 l 25,32,-1
 910 348 l 1,33,-1
 432 0 l 1,34,-1
 58 0 l 9,0,-1
EndSplineSet
Validated: 8408065
EndChar

StartChar: Y
Encoding: 89 89 60
Width: 1519
GlyphClass: 2
Flags: W
HStem: 0 21G<582 882> 1491 20G<5 341.51 824 1180>
VStem: 5 326<1185 1511> 582 300<0 413.113> 1121 298<843.02 1237.92>
DStem2: 331 1511 5 1511 0.46987 -0.882736<0 1040.42>
LayerCount: 2
Fore
SplineSet
582 0 m 17,0,-1
 582 427 l 1,1,-1
 5 1511 l 9,2,-1
 331 1511 l 25,3,-1
 815 590 l 1,4,5
 921 641 921 641 983 702 c 0,6,7
 1056 774 1056 774 1092 864 c 0,8,9
 1121 936 1121 936 1121 1032 c 2,10,-1
 1121 1051 l 2,11,12
 1121 1167 1121 1167 1065 1262 c 0,13,14
 982 1403 982 1403 837 1503 c 1,15,-1
 824 1511 l 9,16,-1
 1129 1511 l 17,17,18
 1231 1450 1231 1450 1316 1335 c 0,19,20
 1419 1196 1419 1196 1419 1052 c 0,21,22
 1419 942 1419 942 1375 843 c 0,23,24
 1329 739 1329 739 1206 613 c 0,25,26
 1091 495 1091 495 939 419 c 0,27,28
 909 404 909 404 882 394 c 1,29,-1
 882 0 l 9,30,-1
 582 0 l 17,0,-1
EndSplineSet
Validated: 19457
EndChar

StartChar: Z
Encoding: 90 90 61
Width: 1490
GlyphClass: 2
Flags: W
HStem: 0 250<619 1202.73> 1261 250<330.13 1009.25>
VStem: 1015 301<914.085 1258.19>
LayerCount: 2
Fore
SplineSet
70 0 m 1,0,-1
 70 239 l 1,1,-1
 131 264 l 1,2,3
 307 345 307 345 531 488 c 0,4,5
 738 620 738 620 825 710 c 0,6,7
 933 823 933 823 977 927 c 0,8,9
 1015 1017 1015 1017 1015 1135 c 0,10,11
 1015 1199 1015 1199 1001 1261 c 1,12,-1
 448 1261 l 2,13,14
 366 1261 366 1261 296 1185 c 1,15,16
 253 1136 253 1136 209 1055 c 2,17,-1
 203 1044 l 1,18,-1
 203 1383 l 1,19,-1
 211 1393 l 1,20,21
 268 1459 268 1459 321 1484 c 0,22,23
 379 1511 379 1511 448 1511 c 2,24,-1
 1216 1511 l 1,25,-1
 1239 1475 l 1,26,27
 1260 1437 1260 1437 1268 1418 c 0,28,29
 1316 1302 1316 1302 1316 1134 c 0,30,31
 1316 974 1316 974 1258 857 c 0,32,33
 1173 687 1173 687 1030 548 c 0,34,35
 931 452 931 452 713 308 c 0,36,37
 666 277 666 277 619 250 c 1,38,-1
 1085 250 l 2,39,40
 1167 250 1167 250 1237 326 c 1,41,42
 1280 375 1280 375 1324 456 c 2,43,-1
 1330 467 l 1,44,-1
 1330 128 l 1,45,-1
 1322 118 l 1,46,47
 1265 52 1265 52 1212 27 c 0,48,49
 1153 0 1153 0 1085 0 c 2,50,-1
 70 0 l 1,0,-1
EndSplineSet
Validated: 19457
EndChar

StartChar: bracketleft
Encoding: 91 91 62
Width: 1003
GlyphClass: 2
Flags: W
HStem: -289 250<550 953> 1568 250<550 953>
VStem: 250 703<-289 -39 1568 1818> 250 300<-39 1568>
LayerCount: 2
Fore
SplineSet
250 -289 m 1,0,-1
 250 1818 l 1,1,-1
 953 1818 l 1,2,-1
 953 1568 l 1,3,-1
 550 1568 l 1,4,-1
 550 -39 l 1,5,-1
 953 -39 l 1,6,-1
 953 -289 l 1,7,-1
 250 -289 l 1,0,-1
EndSplineSet
Validated: 1
EndChar

StartChar: backslash
Encoding: 92 92 63
Width: 1314
GlyphClass: 2
Flags: W
VStem: 0 282<1405 1687> 1031 283<-183 100>
DStem2: 282 1687 0 1687 0.483176 -0.875523<0 1999.13>
LayerCount: 2
Fore
SplineSet
0 1687 m 1,0,-1
 282 1687 l 1,1,-1
 1314 -183 l 1,2,-1
 1031 -183 l 1,3,-1
 0 1687 l 1,0,-1
EndSplineSet
Validated: 1
EndChar

StartChar: bracketright
Encoding: 93 93 64
Width: 1003
GlyphClass: 2
Flags: W
HStem: -289 250<50 453> 1568 250<50 453>
VStem: 50 703<-289 -39 1568 1818> 453 300<-39 1568>
LayerCount: 2
Fore
SplineSet
753 -289 m 1,0,-1
 50 -289 l 1,1,-1
 50 -39 l 1,2,-1
 453 -39 l 1,3,-1
 453 1568 l 1,4,-1
 50 1568 l 1,5,-1
 50 1818 l 1,6,-1
 753 1818 l 1,7,-1
 753 -289 l 1,0,-1
EndSplineSet
Validated: 1
EndChar

StartChar: asciicircum
Encoding: 94 94 65
Width: 1727
GlyphClass: 2
Flags: W
HStem: 888 623
VStem: 100 349<888 1237> 1202 425<888 1313>
DStem2: 100 888 449 888 0.723003 0.690845<252.328 775.179> 974 1511 832 1244 0.723532 -0.690291<81.5663 595.017>
LayerCount: 2
Fore
SplineSet
100 888 m 1,0,-1
 752 1511 l 1,1,-1
 974 1511 l 1,2,-1
 1627 888 l 1,3,-1
 1202 888 l 1,4,-1
 832 1244 l 1,5,-1
 449 888 l 1,6,-1
 100 888 l 1,0,-1
EndSplineSet
Validated: 1
EndChar

StartChar: underscore
Encoding: 95 95 66
Width: 1283
GlyphClass: 2
Flags: W
HStem: -410 250<150 1133>
LayerCount: 2
Fore
SplineSet
1133 -410 m 1,0,-1
 150 -410 l 1,1,-1
 150 -160 l 1,2,-1
 1133 -160 l 1,3,-1
 1133 -410 l 1,0,-1
EndSplineSet
Validated: 1
EndChar

StartChar: grave
Encoding: 96 96 67
Width: 913
GlyphClass: 2
Flags: W
HStem: 891 620
VStem: 150 613
DStem2: 327 1511 150 1331 0.702258 -0.711922<3.84632 620.854>
LayerCount: 2
Fore
SplineSet
586 891 m 1,0,-1
 150 1331 l 1,1,-1
 327 1511 l 1,2,-1
 763 1069 l 1,3,-1
 586 891 l 1,0,-1
EndSplineSet
Validated: 1
EndChar

StartChar: a
Encoding: 97 97 68
Width: 1397
GlyphClass: 2
Flags: W
HStem: -20 224<507.973 751.669> 0 5<1353.02 1357> 0 0 885 235<601.417 873.211>
VStem: 100 299<314.586 688.793> 897 300<105.211 844.37>
LayerCount: 2
Fore
SplineSet
1367 0 m 1,0,-1
 1027 0 l 1,1,-1
 1009 12 l 2,2,3
 950 52 950 52 925 101 c 0,4,5
 897 156 897 156 897 218 c 2,6,-1
 897 784 l 1,7,8
 893 825 893 825 873 845 c 0,9,10
 844 874 844 874 785 883 c 0,11,12
 772 885 772 885 760 885 c 0,13,14
 710 885 710 885 652 863 c 0,15,16
 530 817 530 817 463 723 c 0,17,18
 427 673 427 673 405 575 c 0,19,20
 399 548 399 548 399 512 c 0,21,22
 399 489 399 489 401 460 c 0,23,24
 406 390 406 390 435 330 c 0,25,26
 461 274 461 274 528 235 c 0,27,28
 580 204 580 204 645 204 c 2,29,-1
 648 204 l 2,30,31
 700 204 700 204 739 236 c 0,32,33
 777 267 777 267 815 331 c 1,34,-1
 831 359 l 1,35,-1
 847 283 l 1,36,37
 853 248 853 248 853 217 c 0,38,39
 851 128 851 128 810 65 c 0,40,41
 755 -20 755 -20 633 -20 c 2,42,-1
 630 -20 l 2,43,44
 519 -20 519 -20 417 25 c 1,45,46
 303 77 303 77 240 139 c 1,47,48
 171 205 171 205 137 282 c 0,49,50
 106 352 106 352 101 453 c 0,51,52
 100 473 100 473 100 493 c 0,53,54
 100 553 100 553 113 611 c 0,55,56
 141 735 141 735 243 862 c 0,57,58
 340 982 340 982 519 1062 c 0,59,60
 648 1120 648 1120 797 1120 c 0,61,62
 938 1120 938 1120 1054 1033 c 0,63,64
 1197 926 1197 926 1197 736 c 2,65,-1
 1197 219 l 2,66,67
 1197 163 1197 163 1247 97 c 0,68,69
 1293 37 1293 37 1357 5 c 2,70,-1
 1367 0 l 1,0,-1
EndSplineSet
Validated: 1
EndChar

StartChar: b
Encoding: 98 98 69
Width: 1397
GlyphClass: 2
Flags: W
HStem: -20 235<523.789 795.583> 896 224<645.331 889.027> 1506 5<40 43.9219> 1511 0
VStem: 200 300<255.63 1405.91> 998 299<408.922 785.414>
LayerCount: 2
Fore
SplineSet
30 1511 m 1,0,-1
 370 1511 l 1,1,-1
 388 1499 l 2,2,3
 447 1460 447 1460 472 1410 c 0,4,5
 500 1355 500 1355 500 1293 c 2,6,-1
 500 316 l 1,7,8
 504 275 504 275 524 255 c 0,9,10
 553 226 553 226 612 217 c 0,11,12
 625 215 625 215 637 215 c 0,13,14
 687 215 687 215 745 237 c 0,15,16
 867 283 867 283 934 377 c 0,17,18
 970 427 970 427 992 525 c 0,19,20
 998 552 998 552 998 588 c 0,21,22
 998 611 998 611 996 640 c 0,23,24
 991 710 991 710 962 770 c 0,25,26
 936 826 936 826 869 865 c 0,27,28
 817 896 817 896 752 896 c 2,29,-1
 749 896 l 2,30,31
 697 896 697 896 658 864 c 0,32,33
 620 833 620 833 582 769 c 1,34,-1
 566 741 l 1,35,-1
 550 817 l 1,36,37
 544 852 544 852 544 883 c 0,38,39
 546 972 546 972 587 1035 c 0,40,41
 642 1120 642 1120 764 1120 c 2,42,-1
 767 1120 l 2,43,44
 878 1120 878 1120 980 1075 c 1,45,46
 1094 1023 1094 1023 1157 962 c 0,47,48
 1226 895 1226 895 1260 818 c 0,49,50
 1290 750 1290 750 1296 647 c 0,51,52
 1297 627 1297 627 1297 608 c 0,53,54
 1297 546 1297 546 1284 490 c 0,55,56
 1257 367 1257 367 1154 239 c 0,57,58
 1056 118 1056 118 878 38 c 0,59,60
 749 -20 749 -20 600 -20 c 0,61,62
 459 -20 459 -20 343 68 c 1,63,64
 200 173 200 173 200 364 c 2,65,-1
 200 1292 l 2,66,67
 200 1349 200 1349 150 1414 c 0,68,69
 103 1474 103 1474 40 1506 c 2,70,-1
 30 1511 l 1,0,-1
EndSplineSet
Validated: 1
EndChar

StartChar: c
Encoding: 99 99 70
Width: 1312
GlyphClass: 2
Flags: W
HStem: -20 223<506.927 820.962> 896 224<606.406 916.398>
VStem: 100 299<314.812 689.311>
LayerCount: 2
Fore
SplineSet
1212 283 m 1,0,-1
 1167 227 l 1,1,2
 1073 115 1073 115 925 42 c 0,3,4
 800 -20 800 -20 660 -20 c 2,5,-1
 647 -20 l 2,6,7
 510 -20 510 -20 413 24 c 1,8,9
 303 78 303 78 240 138 c 0,10,11
 171 205 171 205 137 282 c 0,12,13
 106 352 106 352 101 453 c 0,14,15
 100 473 100 473 100 493 c 0,16,17
 100 556 100 556 113 611 c 0,18,19
 146 755 146 755 245 865 c 1,20,21
 372 1004 372 1004 522 1064 c 1,22,23
 665 1120 665 1120 793 1120 c 2,24,25
 793 1120 793 1120 797 1120 c 0,26,27
 928 1120 928 1120 1027 1073 c 0,28,29
 1107 1034 1107 1034 1160 988 c 1,30,-1
 1232 928 l 1,31,-1
 1011 760 l 1,32,-1
 966 811 l 1,33,34
 941 835 941 835 910 858 c 1,35,36
 855 896 855 896 776 896 c 2,37,-1
 768 896 l 2,38,39
 703 896 703 896 647 872 c 0,40,41
 535 823 535 823 463 724 c 0,42,43
 423 668 423 668 405 576 c 0,44,45
 399 547 399 547 399 513 c 0,46,47
 399 492 399 492 401 461 c 0,48,49
 406 386 406 386 434 331 c 0,50,51
 469 264 469 264 531 233 c 0,52,53
 590 203 590 203 666 203 c 2,54,-1
 672 203 l 2,55,56
 736 203 736 203 803 237 c 0,57,58
 890 282 890 282 967 390 c 1,59,-1
 1014 464 l 1,60,-1
 1212 283 l 1,0,-1
EndSplineSet
Validated: 1
EndChar

StartChar: d
Encoding: 100 100 71
Width: 1397
GlyphClass: 2
Flags: W
HStem: -20 223<512.766 787.383> 0 5<1353.02 1357> 0 0 941 179<622.593 813.924> 1506 5<737 740.982> 1511 0
VStem: 100 299<318.172 698.746> 897 300<308.332 1405.92>
LayerCount: 2
Fore
SplineSet
1367 0 m 1,0,-1
 1027 0 l 1,1,-1
 1009 12 l 2,2,3
 961 44 961 44 936 83 c 1,4,5
 794 -20 794 -20 660 -20 c 2,6,-1
 647 -20 l 2,7,8
 519 -20 519 -20 418 24 c 0,9,10
 304 74 304 74 240 136 c 0,11,12
 171 204 171 204 137 280 c 0,13,14
 106 350 106 350 101 451 c 0,15,16
 100 471 100 471 100 501 c 0,17,18
 100 556 100 556 113 609 c 0,19,20
 148 759 148 759 246 868 c 0,21,22
 359 993 359 993 512 1071 c 0,23,24
 608 1120 608 1120 682 1120 c 2,25,-1
 699 1120 l 2,26,27
 776 1120 776 1120 823 1066 c 0,28,29
 851 1034 851 1034 851 979 c 0,30,31
 851 962 851 962 849 952 c 2,32,-1
 843 923 l 1,33,-1
 816 932 l 2,34,35
 795 939 795 939 774 941 c 0,36,37
 743 944 743 944 716 937 c 0,38,39
 667 926 667 926 625 899 c 0,40,41
 548 851 548 851 469 743 c 0,42,43
 425 682 425 682 405 580 c 0,44,45
 399 550 399 550 399 515 c 0,46,47
 399 493 399 493 401 463 c 0,48,49
 406 392 406 392 435 333 c 0,50,51
 465 272 465 272 528 238 c 0,52,53
 593 203 593 203 662 203 c 2,54,-1
 672 203 l 2,55,56
 728 203 728 203 794 251 c 0,57,58
 835 281 835 281 863 324 c 0,59,60
 890 366 890 366 897 395 c 1,61,-1
 897 1296 l 2,62,63
 897 1349 897 1349 847 1414 c 0,64,65
 801 1474 801 1474 737 1506 c 2,66,-1
 727 1511 l 1,67,-1
 1067 1511 l 1,68,-1
 1085 1499 l 2,69,70
 1135 1465 1135 1465 1169 1410 c 0,71,72
 1197 1364 1197 1364 1197 1293 c 2,73,-1
 1197 219 l 2,74,75
 1197 163 1197 163 1247 97 c 0,76,77
 1293 37 1293 37 1357 5 c 2,78,-1
 1367 0 l 1,0,-1
EndSplineSet
Validated: 1
EndChar

StartChar: e
Encoding: 101 101 72
Width: 1312
GlyphClass: 2
Flags: W
HStem: -20 223<504.166 819.629> 437 250<433 962> 896 224<599.634 916.398>
LayerCount: 2
Fore
SplineSet
1212 281 m 1,0,-1
 1167 227 l 2,1,2
 1069 109 1069 109 930 40 c 0,3,4
 811 -20 811 -20 660 -20 c 2,5,-1
 647 -20 l 2,6,7
 519 -20 519 -20 417 25 c 0,8,9
 306 75 306 75 240 138 c 0,10,11
 171 205 171 205 137 282 c 0,12,13
 106 352 106 352 101 453 c 0,14,15
 100 473 100 473 100 493 c 0,16,17
 100 557 100 557 113 611 c 0,18,19
 145 749 145 749 245 864 c 0,20,21
 366 1004 366 1004 522 1064 c 1,22,23
 661 1120 661 1120 793 1120 c 2,24,-1
 797 1120 l 2,25,26
 928 1120 928 1120 1027 1073 c 0,27,28
 1107 1034 1107 1034 1160 988 c 1,29,-1
 1232 928 l 1,30,-1
 1011 762 l 1,31,-1
 964 811 l 1,32,33
 946 833 946 833 910 857 c 0,34,35
 854 896 854 896 776 896 c 2,36,-1
 768 896 l 2,37,38
 704 896 704 896 648 874 c 0,39,40
 532 828 532 828 463 738 c 0,41,42
 446 716 446 716 433 687 c 1,43,-1
 962 687 l 1,44,-1
 962 437 l 1,45,-1
 402 437 l 1,46,47
 409 369 409 369 434 324 c 0,48,49
 467 265 467 265 524 236 c 0,50,51
 589 203 589 203 666 203 c 2,52,-1
 672 203 l 2,53,54
 740 203 740 203 815 245 c 0,55,56
 889 286 889 286 967 390 c 1,57,-1
 1014 464 l 1,58,-1
 1212 281 l 1,0,-1
EndSplineSet
Validated: 1
EndChar

StartChar: f
Encoding: 102 102 73
Width: 1166
GlyphClass: 2
Flags: W
HStem: 0 21G<200 500> 708 226<114 200 500 885> 1308 223<621.78 867.993>
VStem: 200 300<0 708 944 1174.5>
LayerCount: 2
Fore
SplineSet
200 0 m 1,0,-1
 200 716 l 1,1,-1
 114 716 l 1,2,-1
 114 944 l 1,3,-1
 200 944 l 1,4,-1
 200 976 l 2,5,6
 200 1164 200 1164 335 1312 c 0,7,8
 414 1398 414 1398 485 1445 c 0,9,10
 614 1531 614 1531 742 1531 c 2,11,-1
 750 1531 l 2,12,13
 885 1531 885 1531 981 1483 c 0,14,15
 1066 1441 1066 1441 1116 1398 c 1,16,-1
 1186 1335 l 1,17,-1
 962 1174 l 1,18,-1
 917 1222 l 2,19,20
 891 1251 891 1251 864 1268 c 0,21,22
 803 1308 803 1308 735 1308 c 2,23,-1
 725 1308 l 2,24,25
 667 1308 667 1308 609 1255 c 0,26,27
 567 1216 567 1216 537 1161 c 0,28,29
 501 1095 501 1095 500 1041 c 1,30,-1
 500 934 l 1,31,-1
 885 934 l 1,32,-1
 885 708 l 1,33,-1
 500 708 l 1,34,-1
 500 0 l 1,35,-1
 200 0 l 1,0,-1
EndSplineSet
Validated: 1
EndChar

StartChar: g
Encoding: 103 103 74
Width: 1397
GlyphClass: 2
Flags: W
HStem: -410 223<379.634 670.527> -20 224<505.891 749.135> 885 235<599.453 871.816>
VStem: 100 299<313.767 690.924> 897 300<67.8359 844.308>
LayerCount: 2
Fore
SplineSet
70 -221 m 1,0,-1
 280 -43 l 1,1,-1
 329 -99 l 2,2,3
 352 -126 352 -126 383 -145 c 0,4,5
 452 -187 452 -187 526 -187 c 0,6,7
 593 -187 593 -187 658 -151 c 0,8,9
 772 -89 772 -89 831 20 c 0,10,11
 896 141 896 141 897 332 c 1,12,-1
 897 784 l 1,13,14
 893 823 893 823 872 845 c 1,15,16
 840 876 840 876 783 883 c 0,17,18
 771 885 771 885 760 885 c 0,19,20
 708 885 708 885 650 863 c 0,21,22
 531 819 531 819 463 723 c 0,23,24
 414 654 414 654 402 577 c 0,25,26
 399 554 399 554 399 512 c 0,27,28
 399 495 399 495 401 460 c 0,29,30
 404 385 404 385 434 330 c 0,31,32
 467 270 467 270 526 235 c 0,33,34
 578 204 578 204 643 204 c 2,35,-1
 646 204 l 2,36,37
 698 204 698 204 737 236 c 0,38,39
 775 267 775 267 813 331 c 1,40,-1
 829 359 l 1,41,-1
 845 283 l 1,42,43
 851 248 851 248 851 217 c 0,44,45
 849 128 849 128 808 65 c 0,46,47
 753 -20 753 -20 628 -20 c 2,48,-1
 625 -20 l 2,49,50
 518 -20 518 -20 415 25 c 0,51,52
 306 73 306 73 239 139 c 1,53,54
 166 209 166 209 135 282 c 0,55,56
 105 351 105 351 101 453 c 0,57,58
 100 473 100 473 100 493 c 0,59,60
 100 557 100 557 111 610 c 0,61,62
 138 732 138 732 243 862 c 0,63,64
 345 988 345 988 518 1062 c 1,65,66
 642 1120 642 1120 797 1120 c 0,67,68
 934 1120 934 1120 1053 1032 c 0,69,70
 1196 927 1196 927 1197 731 c 1,71,-1
 1197 296 l 2,72,73
 1197 184 1197 184 1184 136 c 0,74,75
 1152 12 1152 12 1054 -119 c 0,76,77
 943 -266 943 -266 778 -348 c 0,78,79
 654 -410 654 -410 514 -410 c 2,80,-1
 501 -410 l 2,81,82
 367 -410 367 -410 269 -363 c 1,83,84
 193 -325 193 -325 137 -278 c 2,85,-1
 70 -221 l 1,0,-1
EndSplineSet
Validated: 1
EndChar

StartChar: h
Encoding: 104 104 75
Width: 1401
GlyphClass: 2
Flags: W
HStem: 0 21G<200 500 670 1025> 897 223<599.709 888.059> 1506 5<40 43.9824> 1511 0
VStem: 200 300<0 802.834 1046 1405.79> 997 304<362.66 782.69>
LayerCount: 2
Fore
SplineSet
200 0 m 1,0,-1
 200 1292 l 2,1,2
 200 1348 200 1348 150 1414 c 0,3,4
 104 1474 104 1474 40 1506 c 2,5,-1
 30 1511 l 1,6,-1
 370 1511 l 1,7,-1
 388 1499 l 2,8,9
 447 1460 447 1460 472 1410 c 0,10,11
 500 1355 500 1355 500 1293 c 2,12,-1
 500 1046 l 1,13,14
 603 1120 603 1120 737 1120 c 2,15,-1
 750 1120 l 2,16,17
 882 1120 882 1120 981 1075 c 0,18,19
 1091 1025 1091 1025 1157 962 c 0,20,21
 1222 900 1222 900 1260 819 c 0,22,23
 1295 744 1295 744 1300 648 c 0,24,25
 1301 628 1301 628 1301 618 c 0,26,27
 1301 518 1301 518 1269 401 c 0,28,29
 1235 278 1235 278 1137 151 c 0,30,31
 1075 71 1075 71 975 0 c 1,32,-1
 670 0 l 1,33,-1
 750 71 l 2,34,35
 849 160 849 160 896 231 c 0,36,37
 954 319 954 319 977 423 c 0,38,39
 997 514 997 514 997 593 c 0,40,41
 997 614 997 614 996 632 c 0,42,43
 992 702 992 702 962 765 c 0,44,45
 929 834 929 834 861 871 c 0,46,47
 812 897 812 897 735 897 c 2,48,-1
 725 897 l 2,49,50
 664 897 664 897 608 859 c 0,51,52
 558 825 558 825 530 784 c 0,53,54
 500 740 500 740 500 667 c 2,55,-1
 500 0 l 1,56,-1
 200 0 l 1,0,-1
EndSplineSet
Validated: 1
EndChar

StartChar: i
Encoding: 105 105 76
Width: 700
GlyphClass: 2
Flags: W
HStem: 0 5<656.018 660> 0 0 1095 5<40 43.9824> 1100 0 1176 355<235.109 465.569>
VStem: 176 352<1236.37 1468.48> 200 300<105.328 994.922>
LayerCount: 2
Fore
SplineSet
528 1348 m 0,0,1
 528 1281 528 1281 476 1228 c 1,2,3
 423 1176 423 1176 352 1176 c 0,4,5
 278 1176 278 1176 227 1229 c 0,6,7
 176 1281 176 1281 176 1353.5 c 128,-1,8
 176 1426 176 1426 227 1478.5 c 128,-1,9
 278 1531 278 1531 352 1531 c 128,-1,10
 426 1531 426 1531 477 1475.5 c 128,-1,11
 528 1420 528 1420 528 1348 c 0,0,1
670 0 m 1,12,-1
 330 0 l 1,13,-1
 312 12 l 2,14,15
 257 49 257 49 228 101 c 0,16,17
 200 150 200 150 200 216 c 2,18,-1
 200 885 l 2,19,20
 200 938 200 938 150 1003 c 0,21,22
 104 1063 104 1063 40 1095 c 2,23,-1
 30 1100 l 1,24,-1
 370 1100 l 1,25,-1
 388 1088 l 2,26,27
 445 1050 445 1050 472 999 c 0,28,29
 500 946 500 946 500 882 c 2,30,-1
 500 219 l 2,31,32
 500 164 500 164 550 97 c 0,33,34
 596 37 596 37 660 5 c 2,35,-1
 670 0 l 1,12,-1
EndSplineSet
Validated: 1
EndChar

StartChar: j
Encoding: 106 106 77
Width: 700
GlyphClass: 2
Flags: W
HStem: -410 230<0 186.215> 1095 5<40 43.9824> 1100 0 1176 355<235.109 467.235>
VStem: 176 352<1236.25 1471.42> 200 300<-143.395 994.789>
LayerCount: 2
Fore
SplineSet
176 1354 m 0,0,1
 176 1426 176 1426 227 1478 c 0,2,3
 278 1531 278 1531 352 1531 c 128,-1,4
 426 1531 426 1531 477 1478 c 0,5,6
 528 1426 528 1426 528 1353 c 2,7,-1
 528 1352 l 2,8,9
 528 1280 528 1280 476 1228 c 128,-1,10
 424 1176 424 1176 352 1176 c 0,11,12
 278 1176 278 1176 227 1229 c 0,13,14
 176 1281 176 1281 176 1354 c 0,0,1
0 -410 m 1,15,-1
 0 -180 l 1,16,-1
 121 -180 l 2,17,18
 162 -180 162 -180 187 -144 c 0,19,20
 200 -125 200 -125 200 -59 c 2,21,-1
 200 881 l 2,22,23
 200 937 200 937 150 1003 c 0,24,25
 104 1063 104 1063 40 1095 c 2,26,-1
 30 1100 l 1,27,-1
 370 1100 l 1,28,-1
 388 1088 l 2,29,30
 446 1049 446 1049 472 999 c 0,31,32
 500 944 500 944 500 882 c 2,33,-1
 500 -55 l 1,34,35
 498 -207 498 -207 399 -303 c 0,36,37
 288 -410 288 -410 163 -410 c 2,38,-1
 0 -410 l 1,15,-1
EndSplineSet
Validated: 1
EndChar

StartChar: k
Encoding: 107 107 78
Width: 1415
GlyphClass: 2
Flags: W
HStem: 0 21G<200 500 917.906 1410> 1094 6<731 736.538> 1100 0 1506 5<40 43.9824> 1511 0
VStem: 200 300<0 182 389 1405.79> 931 287<619.453 941.236>
LayerCount: 2
Fore
SplineSet
200 0 m 1,0,-1
 200 1292 l 2,1,2
 200 1348 200 1348 150 1414 c 0,3,4
 104 1474 104 1474 40 1506 c 2,5,-1
 30 1511 l 1,6,-1
 370 1511 l 1,7,-1
 388 1499 l 2,8,9
 447 1460 447 1460 472 1410 c 0,10,11
 500 1355 500 1355 500 1293 c 2,12,-1
 500 389 l 1,13,14
 680 458 680 458 718 480 c 0,15,16
 837 549 837 549 881 611 c 0,17,18
 931 678 931 678 931 765 c 2,19,-1
 931 780 l 2,20,21
 931 870 931 870 884 946 c 0,22,23
 820 1050 820 1050 731 1094 c 2,24,-1
 719 1100 l 1,25,-1
 1004 1100 l 1,26,27
 1089 1049 1089 1049 1143 985 c 0,28,29
 1218 896 1218 896 1218 796 c 2,30,-1
 1218 792 l 2,31,32
 1218 682 1218 682 1160 584 c 0,33,34
 1107 495 1107 495 1026 427 c 0,35,36
 976 385 976 385 922 352 c 1,37,-1
 1410 0 l 1,38,-1
 944 0 l 1,39,-1
 640 233 l 1,40,-1
 500 182 l 1,41,-1
 500 -0 l 1,42,-1
 200 0 l 1,0,-1
EndSplineSet
Validated: 1
EndChar

StartChar: l
Encoding: 108 108 79
Width: 700
GlyphClass: 2
Flags: W
HStem: 0 5<656.018 660> 0 0 1506 5<40 43.9824> 1511 0
VStem: 200 300<105.211 1405.92>
LayerCount: 2
Fore
SplineSet
670 0 m 1,0,-1
 330 0 l 1,1,-1
 312 12 l 2,2,3
 253 51 253 51 228 102 c 0,4,5
 200 157 200 157 200 216 c 2,6,-1
 200 1296 l 2,7,8
 200 1349 200 1349 150 1414 c 0,9,10
 104 1474 104 1474 40 1506 c 2,11,-1
 30 1511 l 1,12,-1
 370 1511 l 1,13,-1
 388 1499 l 2,14,15
 438 1465 438 1465 472 1410 c 0,16,17
 500 1364 500 1364 500 1293 c 2,18,-1
 500 219 l 2,19,20
 500 163 500 163 550 97 c 0,21,22
 596 37 596 37 660 5 c 2,23,-1
 670 0 l 1,0,-1
EndSplineSet
Validated: 1
EndChar

StartChar: m
Encoding: 109 109 80
Width: 2149
GlyphClass: 2
Flags: W
HStem: 0 21G<200 500 948 1248 1418 1773> 884 236<687.6 923.723 1331.66 1653.35> 1095 5<40 43.9824> 1100 0
VStem: 200 300<0 710.929> 948 300<0 802.834> 1745 304<363.078 781.614>
LayerCount: 2
Fore
SplineSet
200 0 m 1,0,-1
 200 881 l 2,1,2
 200 937 200 937 150 1003 c 0,3,4
 104 1063 104 1063 40 1095 c 2,5,-1
 30 1100 l 1,6,-1
 370 1100 l 1,7,-1
 388 1088 l 2,8,9
 441 1053 441 1053 472 999 c 0,10,11
 476 992 476 992 479 985 c 1,12,13
 556 1034 556 1034 604 1058 c 0,14,15
 728 1120 728 1120 848 1120 c 0,16,17
 987 1120 987 1120 1106 1021 c 0,18,19
 1118 1011 1118 1011 1129 1000 c 1,20,21
 1277 1120 1277 1120 1485 1120 c 2,22,-1
 1498 1120 l 2,23,24
 1624 1120 1624 1120 1729 1075 c 0,25,26
 1833 1030 1833 1030 1905 962 c 0,27,28
 1972 898 1972 898 2008 819 c 0,29,30
 2043 741 2043 741 2048 648 c 0,31,32
 2049 628 2049 628 2049 618 c 0,33,34
 2049 518 2049 518 2017 401 c 0,35,36
 1983 278 1983 278 1885 151 c 0,37,38
 1823 71 1823 71 1723 0 c 1,39,-1
 1418 0 l 1,40,-1
 1498 71 l 2,41,42
 1598 161 1598 161 1644 231 c 0,43,44
 1702 320 1702 320 1725 423 c 0,45,46
 1745 513 1745 513 1745 593 c 0,47,48
 1745 614 1745 614 1744 632 c 0,49,50
 1740 702 1740 702 1710 765 c 0,51,52
 1677 834 1677 834 1609 871 c 0,53,54
 1560 897 1560 897 1483 897 c 2,55,-1
 1473 897 l 2,56,57
 1412 897 1412 897 1356 859 c 0,58,59
 1306 825 1306 825 1278 784 c 0,60,61
 1248 740 1248 740 1248 667 c 2,62,-1
 1248 0 l 1,63,-1
 948 0 l 1,64,-1
 948 782 l 1,65,66
 944 823 944 823 924 843 c 0,67,68
 887 880 887 880 839 883 c 0,69,70
 826 884 826 884 817 884 c 0,71,72
 791 884 791 884 737 863 c 0,73,74
 625 819 625 819 548 715 c 0,75,76
 500 650 500 650 500 576 c 2,77,-1
 500 0 l 1,78,-1
 200 0 l 1,0,-1
EndSplineSet
Validated: 1
EndChar

StartChar: n
Encoding: 110 110 81
Width: 1401
GlyphClass: 2
Flags: W
HStem: 0 21G<200 500 670 1025> 897 223<599.25 889.075> 1095 5<40 43.9824> 1100 0
VStem: 200 300<0 802.834> 997 304<362.66 782.69>
LayerCount: 2
Fore
SplineSet
200 0 m 1,0,-1
 200 881 l 2,1,2
 200 937 200 937 150 1003 c 0,3,4
 104 1063 104 1063 40 1095 c 2,5,-1
 30 1100 l 1,6,-1
 370 1100 l 1,7,-1
 388 1088 l 2,8,9
 437 1055 437 1055 463 1015 c 1,10,-1
 480 1030 l 1,11,12
 590 1120 590 1120 737 1120 c 2,13,-1
 750 1120 l 2,14,15
 873 1120 873 1120 981 1075 c 0,16,17
 1085 1031 1085 1031 1157 962 c 0,18,19
 1223 898 1223 898 1260 819 c 0,20,21
 1295 744 1295 744 1300 648 c 0,22,23
 1301 628 1301 628 1301 618 c 0,24,25
 1301 518 1301 518 1269 401 c 0,26,27
 1235 278 1235 278 1137 151 c 0,28,29
 1075 71 1075 71 975 0 c 1,30,-1
 670 0 l 1,31,-1
 750 71 l 2,32,33
 849 160 849 160 896 231 c 0,34,35
 954 319 954 319 977 423 c 0,36,37
 997 514 997 514 997 593 c 0,38,39
 997 614 997 614 996 632 c 0,40,41
 992 702 992 702 962 765 c 0,42,43
 929 834 929 834 861 871 c 0,44,45
 812 897 812 897 735 897 c 2,46,-1
 725 897 l 2,47,48
 664 897 664 897 608 859 c 0,49,50
 558 825 558 825 530 784 c 0,51,52
 500 740 500 740 500 667 c 0,53,-1
 500 0 l 1,54,-1
 200 0 l 1,0,-1
EndSplineSet
Validated: 1
EndChar

StartChar: o
Encoding: 111 111 82
Width: 1444
GlyphClass: 2
Flags: W
HStem: -20 223<514.776 832.688> 896 224<603.385 928.435>
VStem: 100 299<316.422 690.075> 1045 299<410.391 783.192>
LayerCount: 2
Fore
SplineSet
797 1120 m 1,0,1
 930 1119 930 1119 1028 1075 c 0,2,3
 1141 1023 1141 1023 1204 963 c 1,4,5
 1272 896 1272 896 1307 818 c 0,6,7
 1338 749 1338 749 1343 646 c 0,8,9
 1344 626 1344 626 1344 597 c 0,10,11
 1344 546 1344 546 1331 490 c 0,12,13
 1302 362 1302 362 1200 238 c 1,14,15
 1092 110 1092 110 935 39 c 0,16,17
 805 -20 805 -20 660 -20 c 2,18,19
 660 -20 660 -20 647 -20 c 0,20,21
 519 -20 519 -20 417 25 c 0,22,23
 304 76 304 76 240 139 c 0,24,25
 170 207 170 207 137 282 c 0,26,27
 106 351 106 351 101 453 c 0,28,29
 100 473 100 473 100 493 c 0,30,31
 100 556 100 556 113 611 c 0,32,33
 144 747 144 747 245 864 c 0,34,35
 364 1002 364 1002 523 1064 c 0,36,37
 669 1120 669 1120 793 1120 c 2,38,-1
 797 1120 l 1,0,1
768 896 m 0,39,40
 694 896 694 896 630 865 c 0,41,42
 532 819 532 819 463 723 c 1,43,44
 422 669 422 669 405 576 c 0,45,46
 399 545 399 545 399 513 c 0,47,48
 399 491 399 491 401 461 c 0,49,50
 406 386 406 386 435 331 c 0,51,52
 466 271 466 271 529 238 c 1,53,54
 599 203 599 203 666 203 c 2,55,56
 666 203 666 203 672 203 c 0,57,58
 737 203 737 203 807 234 c 0,59,60
 912 281 912 281 981 377 c 0,61,62
 1023 434 1023 434 1039 524 c 0,63,64
 1045 555 1045 555 1045 587 c 0,65,66
 1045 611 1045 611 1043 639 c 0,67,68
 1037 719 1037 719 1010 768 c 0,69,70
 979 823 979 823 910 864 c 0,71,72
 858 896 858 896 780 896 c 2,73,74
 780 896 780 896 768 896 c 0,39,40
EndSplineSet
Validated: 1
EndChar

StartChar: p
Encoding: 112 112 83
Width: 1397
GlyphClass: 2
Flags: W
HStem: -410 21G<200 500> -20 179<583.076 774.407> 897 223<611.246 884.234> 1095 5<40 43.9824> 1100 0
VStem: 200 300<-410 791.668> 998 299<401.254 781.828>
LayerCount: 2
Fore
SplineSet
200 -410 m 1,0,-1
 200 881 l 2,1,2
 200 937 200 937 150 1003 c 0,3,4
 104 1063 104 1063 40 1095 c 2,5,-1
 30 1100 l 1,6,-1
 370 1100 l 1,7,-1
 388 1088 l 2,8,9
 433 1058 433 1058 458 1022 c 1,10,11
 590 1120 590 1120 737 1120 c 2,12,-1
 750 1120 l 2,13,14
 878 1120 878 1120 979 1076 c 0,15,16
 1093 1026 1093 1026 1157 964 c 0,17,18
 1226 896 1226 896 1260 820 c 0,19,20
 1291 750 1291 750 1296 649 c 0,21,22
 1297 629 1297 629 1297 599 c 0,23,24
 1297 544 1297 544 1284 491 c 0,25,26
 1249 341 1249 341 1151 232 c 0,27,28
 1038 107 1038 107 885 29 c 0,29,30
 789 -20 789 -20 715 -20 c 2,31,-1
 698 -20 l 2,32,33
 621 -20 621 -20 574 34 c 0,34,35
 546 66 546 66 546 121 c 0,36,37
 546 138 546 138 548 148 c 2,38,-1
 554 177 l 1,39,-1
 581 168 l 2,40,41
 602 161 602 161 623 159 c 0,42,43
 654 156 654 156 681 163 c 0,44,45
 730 174 730 174 772 201 c 0,46,47
 849 249 849 249 928 357 c 0,48,49
 972 418 972 418 992 520 c 0,50,51
 998 550 998 550 998 585 c 0,52,53
 998 607 998 607 996 637 c 0,54,55
 991 708 991 708 962 767 c 0,56,57
 932 828 932 828 869 862 c 0,58,59
 804 897 804 897 735 897 c 2,60,-1
 725 897 l 2,61,62
 669 897 669 897 603 849 c 0,63,64
 562 819 562 819 534 776 c 0,65,66
 507 734 507 734 500 705 c 1,67,-1
 500 -410 l 1,68,-1
 200 -410 l 1,0,-1
EndSplineSet
Validated: 1
EndChar

StartChar: q
Encoding: 113 113 84
Width: 1402
GlyphClass: 2
Flags: W
HStem: -410 21G<897 1195> -20 224<508.48 751.847> 885 235<601.417 872.806>
VStem: 100 299<316.515 688.793> 897 300<-392 -317.076 -31 844.339>
LayerCount: 2
Fore
SplineSet
897 -410 m 17,0,-1
 897 783 l 1,1,-1
 897 784 l 1,2,3
 893 824 893 824 873 845 c 0,4,5
 844 874 844 874 785 883 c 0,6,7
 772 885 772 885 760 885 c 0,8,9
 710 885 710 885 652 863 c 0,10,11
 530 817 530 817 463 723 c 0,12,13
 427 673 427 673 405 575 c 0,14,15
 399 548 399 548 399 512 c 0,16,17
 399 489 399 489 401 460 c 0,18,19
 407 381 407 381 435 330 c 0,20,21
 467 271 467 271 528 235 c 0,22,23
 580 204 580 204 645 204 c 2,24,-1
 648 204 l 2,25,26
 700 204 700 204 739 236 c 0,27,28
 777 267 777 267 815 331 c 1,29,-1
 831 359 l 1,30,-1
 847 283 l 1,31,32
 853 248 853 248 853 217 c 0,33,34
 851 128 851 128 810 65 c 0,35,36
 755 -20 755 -20 634 -20 c 2,37,-1
 631 -20 l 2,38,39
 519 -20 519 -20 418 25 c 0,40,41
 307 74 307 74 240 138 c 1,42,43
 171 206 171 206 137 282 c 0,44,45
 106 352 106 352 101 453 c 0,46,47
 100 473 100 473 100 493 c 0,48,49
 100 556 100 556 113 611 c 0,50,51
 141 735 141 735 243 862 c 0,52,53
 340 982 340 982 519 1062 c 0,54,55
 648 1120 648 1120 797 1120 c 0,56,57
 936 1120 936 1120 1054 1033 c 0,58,59
 1196 928 1196 928 1197 732 c 1,60,-1
 1197 -31 l 1,61,62
 1289 65 1289 65 1390 84 c 1,63,-1
 1397 84 l 1,64,-1
 1397 -223 l 1,65,-1
 1388 -224 l 1,66,67
 1264 -248 1264 -248 1195 -392 c 1,68,-1
 1186 -410 l 9,69,-1
 897 -410 l 17,0,-1
EndSplineSet
Validated: 1
EndChar

StartChar: r
Encoding: 114 114 85
Width: 1166
GlyphClass: 2
Flags: W
HStem: 0 21G<200 500> 907 213<603.421 870.632> 1095 5<40 43.9824> 1100 0
VStem: 200 300<0 802.758>
LayerCount: 2
Fore
SplineSet
200 0 m 1,0,-1
 200 881 l 2,1,2
 200 937 200 937 150 1003 c 0,3,4
 104 1063 104 1063 40 1095 c 2,5,-1
 30 1100 l 1,6,-1
 370 1100 l 1,7,-1
 388 1088 l 2,8,9
 435 1057 435 1057 460 1019 c 1,10,11
 591 1120 591 1120 737 1120 c 2,12,-1
 750 1120 l 2,13,14
 883 1120 883 1120 981 1074 c 0,15,16
 1062 1036 1062 1036 1115 993 c 1,17,-1
 1186 932 l 1,18,-1
 964 778 l 1,19,-1
 919 824 l 2,20,21
 909 834 909 834 864 868 c 0,22,23
 812 906 812 906 735 907 c 1,24,-1
 726 907 l 1,25,26
 658 904 658 904 604 864 c 0,27,28
 560 832 560 832 534 786 c 0,29,30
 505 736 505 736 500 668 c 1,31,-1
 500 0 l 1,32,-1
 200 0 l 1,0,-1
EndSplineSet
Validated: 1
EndChar

StartChar: s
Encoding: 115 115 86
Width: 1289
GlyphClass: 2
Flags: W
HStem: -20 223<485.501 778.799> 896 224<571.281 797.973>
VStem: 915 274<322.087 462.514>
DStem2: 706 722 631 510 0.987269 -0.15906<-202.056 251.979>
LayerCount: 2
Fore
SplineSet
80 332 m 1,0,-1
 346 478 l 1,1,-1
 354 447 l 2,2,3
 386 326 386 326 488 243 c 0,4,5
 537 203 537 203 621 203 c 2,6,-1
 627 203 l 2,7,8
 694 203 694 203 759 236 c 0,9,10
 839 277 839 277 876 327 c 1,11,12
 915 377 915 377 915 412 c 2,13,-1
 915 415 l 2,14,15
 915 426 915 426 910 437 c 0,16,17
 908 441 908 441 904 445 c 0,18,19
 891 459 891 459 841 471 c 1,20,21
 811 479 811 479 631 510 c 0,22,23
 421 546 421 546 365 578 c 1,24,25
 242 643 242 643 242 767 c 0,26,27
 242 768 242 768 242 769 c 1,28,-1
 242 783 l 1,29,30
 247 869 247 869 313 946 c 0,31,32
 366 1008 366 1008 470 1061 c 0,33,34
 584 1120 584 1120 706 1120 c 2,35,-1
 714 1120 l 2,36,37
 815 1120 815 1120 909 1072 c 1,38,39
 998 1028 998 1028 1059 967 c 2,40,-1
 1105 921 l 1,41,-1
 878 754 l 1,42,-1
 834 817 l 2,43,44
 821 836 821 836 788 861 c 0,45,46
 742 896 742 896 685 896 c 0,47,48
 649 896 649 896 606 875 c 0,49,50
 568 856 568 856 542 827 c 0,51,52
 506 786 506 786 506 773 c 0,53,54
 506 765 506 765 510 760 c 0,55,56
 513 755 513 755 526 751 c 1,57,58
 539 749 539 749 706 722 c 1,59,60
 899 692 899 692 991 658 c 0,61,62
 1077 627 1077 627 1124 579 c 0,63,64
 1145 558 1145 558 1164 524 c 0,65,66
 1182 491 1182 491 1187 452 c 0,67,68
 1189 433 1189 433 1189 405 c 0,69,70
 1189 306 1189 306 1100 192 c 1,71,72
 1022 94 1022 94 892 37 c 0,73,74
 761 -20 761 -20 615 -20 c 2,75,-1
 602 -20 l 2,76,77
 470 -20 470 -20 371 27 c 0,78,79
 259 81 259 81 194 154 c 0,80,81
 147 207 147 207 115 267 c 2,82,-1
 80 332 l 1,0,-1
EndSplineSet
Validated: 1
EndChar

StartChar: t
Encoding: 116 116 87
Width: 915
GlyphClass: 2
Flags: W
HStem: 0 5<693.018 697> 0 0 850 250<100 237 537 825> 1506 5<77 80.9824> 1511 0
VStem: 237 300<105.211 850 1100 1405.92>
LayerCount: 2
Fore
SplineSet
707 0 m 1,0,-1
 367 0 l 1,1,-1
 349 12 l 2,2,3
 290 51 290 51 265 102 c 0,4,5
 237 158 237 158 237 216 c 2,6,-1
 237 850 l 1,7,-1
 100 850 l 1,8,-1
 100 1100 l 1,9,-1
 237 1100 l 1,10,-1
 237 1296 l 2,11,12
 237 1349 237 1349 187 1414 c 0,13,14
 141 1474 141 1474 77 1506 c 2,15,-1
 67 1511 l 1,16,-1
 407 1511 l 1,17,-1
 425 1499 l 2,18,19
 475 1465 475 1465 509 1410 c 0,20,21
 537 1364 537 1364 537 1293 c 2,22,-1
 537 1100 l 1,23,-1
 825 1100 l 1,24,-1
 825 850 l 1,25,-1
 537 850 l 1,26,-1
 537 219 l 2,27,28
 537 163 537 163 587 97 c 0,29,30
 633 37 633 37 697 5 c 2,31,-1
 707 0 l 1,0,-1
EndSplineSet
Validated: 1
EndChar

StartChar: u
Encoding: 117 117 88
Width: 1401
GlyphClass: 2
Flags: W
HStem: -20 223<511.925 801.75> 0 5<1357.02 1361> 0 0 1080 20G<376 731 901 1201>
VStem: 100 304<317.31 737.34> 901 300<297.166 1100>
LayerCount: 2
Fore
SplineSet
1201 1100 m 1,0,-1
 1201 219 l 2,1,2
 1201 163 1201 163 1251 97 c 0,3,4
 1297 37 1297 37 1361 5 c 2,5,-1
 1371 0 l 1,6,-1
 1031 0 l 1,7,-1
 1013 12 l 2,8,9
 964 45 964 45 938 85 c 1,10,-1
 921 70 l 1,11,12
 811 -20 811 -20 664 -20 c 2,13,-1
 651 -20 l 2,14,15
 528 -20 528 -20 420 25 c 0,16,17
 316 69 316 69 244 138 c 0,18,19
 178 202 178 202 141 281 c 0,20,21
 106 356 106 356 101 452 c 0,22,23
 100 472 100 472 100 482 c 0,24,25
 100 582 100 582 132 699 c 0,26,27
 166 822 166 822 264 949 c 0,28,29
 326 1029 326 1029 426 1100 c 1,30,-1
 731 1100 l 1,31,-1
 651 1029 l 2,32,33
 552 940 552 940 505 869 c 0,34,35
 447 781 447 781 424 677 c 0,36,37
 404 586 404 586 404 507 c 0,38,39
 404 486 404 486 405 468 c 0,40,41
 409 398 409 398 439 335 c 0,42,43
 472 266 472 266 540 229 c 0,44,45
 589 203 589 203 666 203 c 2,46,-1
 676 203 l 2,47,48
 737 203 737 203 793 241 c 0,49,50
 843 275 843 275 871 316 c 0,51,52
 901 360 901 360 901 433 c 0,53,-1
 901 1100 l 1,54,-1
 1201 1100 l 1,0,-1
EndSplineSet
Validated: 1
EndChar

StartChar: v
Encoding: 118 118 89
Width: 1472
GlyphClass: 2
Flags: W
HStem: 0 21G<551.873 795> 1080 20G<5 327.135 740 1079>
VStem: 5 312<788 1100> 1075 297<462.355 819.734>
DStem2: 317 1100 5 1100 0.45175 -0.892145<0 998.108>
LayerCount: 2
Fore
SplineSet
562 0 m 17,0,-1
 5 1100 l 25,1,-1
 317 1100 l 25,2,-1
 766 214 l 1,3,4
 851 242 851 242 909 290 c 0,5,6
 993 359 993 359 1029 433 c 0,7,8
 1075 526 1075 526 1075 631 c 2,9,-1
 1075 644 l 2,10,11
 1075 750 1075 750 1013 852 c 0,12,13
 941 971 941 971 760 1087 c 1,14,-1
 740 1100 l 1,15,-1
 1074 1100 l 1,16,-1
 1079 1097 l 1,17,18
 1184 1035 1184 1035 1269 928 c 0,19,20
 1372 798 1372 798 1372 652 c 0,21,22
 1372 649 1372 649 1372 646 c 0,23,24
 1372 550 1372 550 1324 454 c 0,25,26
 1266 338 1266 338 1159 233 c 0,27,28
 1004 79 1004 79 795 4 c 9,29,-1
 786 0 l 25,30,-1
 562 0 l 17,0,-1
EndSplineSet
Validated: 19457
EndChar

StartChar: w
Encoding: 119 119 90
Width: 2091
GlyphClass: 2
Flags: W
HStem: -20 234<504.283 794.181 1224.07 1482> 1080 20G<370 703 901 1201 1367 1730.5>
VStem: 100 303<319.779 742.442> 901 300<324.015 1100> 1693 298<419.991 805.809>
LayerCount: 2
Fore
SplineSet
1684 1100 m 1,0,1
 1777 1054 1777 1054 1841 976 c 0,2,3
 1901 903 1901 903 1935 832 c 0,4,5
 1968 763 1968 763 1983 685 c 0,6,7
 1991 644 1991 644 1991 594 c 0,8,9
 1991 550 1991 550 1978 492 c 0,10,11
 1949 363 1949 363 1846 241 c 0,12,13
 1762 142 1762 142 1638 70 c 24,14,15
 1483 -20 1483 -20 1325 -20 c 0,16,17
 1166 -20 1166 -20 1044 78 c 0,18,19
 1013 103 1013 103 988 131 c 1,20,21
 959 101 959 101 921 70 c 0,22,23
 812 -20 812 -20 664 -20 c 2,24,-1
 651 -20 l 2,25,26
 523 -20 523 -20 420 25 c 0,27,28
 308 74 308 74 244 138 c 0,29,30
 175 207 175 207 141 283 c 128,-1,31
 107 359 107 359 101 456 c 0,32,33
 100 472 100 472 100 487 c 0,34,35
 100 582 100 582 131 700 c 0,36,37
 172 854 172 854 265 964 c 0,38,39
 334 1045 334 1045 406 1100 c 9,40,-1
 703 1100 l 17,41,-1
 657 1065 l 1,42,43
 561 994 561 994 498 897 c 0,44,45
 445 815 445 815 428 740 c 0,46,47
 403 629 403 629 403 543 c 2,48,-1
 403 535 l 2,49,50
 403 479 403 479 411 433 c 0,51,52
 425 352 425 352 453 310 c 0,53,54
 484 263 484 263 543 236 c 0,55,56
 594 213 594 213 660 213 c 2,57,-1
 670 213 l 2,58,59
 720 213 720 213 780 248 c 0,60,61
 827 276 827 276 856 324 c 0,62,63
 901 400 901 400 901 482 c 2,64,-1
 901 1100 l 1,65,-1
 1201 1100 l 1,66,-1
 1201 318 l 1,67,68
 1206 275 1206 275 1222 259 c 0,69,70
 1270 214 1270 214 1342 214 c 0,71,72
 1402 214 1402 214 1493 264 c 0,73,74
 1568 305 1568 305 1629 386 c 0,75,76
 1667 437 1667 437 1686 535 c 0,77,78
 1693 572 1693 572 1693 609 c 0,79,80
 1693 627 1693 627 1690 651 c 0,81,82
 1675 773 1675 773 1626 857 c 0,83,84
 1567 958 1567 958 1451 1043 c 1,85,-1
 1367 1100 l 1,86,-1
 1684 1100 l 1,0,1
EndSplineSet
Validated: 1
EndChar

StartChar: x
Encoding: 120 120 91
Width: 1366
GlyphClass: 2
Flags: W
HStem: 0 21G<21 391.19 856.31 1216> 1080 20G<5 352.93 654 961>
VStem: 5 332<768 1100> 21 342<0 342> 901 275<610.172 919.964>
DStem2: 337 1100 5 1100 0.624262 -0.781215<0 693.713 930.797 1193.32> 21 0 363 0 0.809699 0.586846<276.917 673.09>
LayerCount: 2
Fore
SplineSet
872 0 m 25,0,-1
 690 232 l 1,1,-1
 363 0 l 1,2,-1
 21 0 l 1,3,-1
 566 395 l 1,4,-1
 5 1100 l 25,5,-1
 337 1100 l 25,6,-1
 791 530 l 1,7,8
 840 573 840 573 875 636 c 0,9,10
 901 683 901 683 901 752 c 2,11,-1
 901 764 l 2,12,13
 901 849 901 849 855 924 c 0,14,15
 802 1011 802 1011 664 1094 c 2,16,-1
 654 1100 l 1,17,-1
 955 1100 l 1,18,-1
 961 1096 l 1,19,20
 1051 1043 1051 1043 1102 982 c 0,21,22
 1175 894 1175 894 1176 793 c 0,23,-1
 1176 789 l 0,24,25
 1176 682 1176 682 1119 586 c 0,26,27
 1061 488 1061 488 958 405 c 1,28,-1
 917 372 l 1,29,-1
 1216 0 l 25,30,31
 872 0 l 25,0,-1
EndSplineSet
Validated: 8408065
EndChar

StartChar: y
Encoding: 121 121 92
Width: 1398
GlyphClass: 2
Flags: W
HStem: -410 223<381.633 671.04> -20 223<508.877 805.571> 1080 20G<413 728 898 1198>
VStem: 97 304<316.328 732.338> 898 300<295.5 1100>
LayerCount: 2
Fore
SplineSet
1198 1100 m 1,0,-1
 1198 298 l 2,1,2
 1198 218 1198 218 1185 139 c 0,3,4
 1167 29 1167 29 1050 -131 c 0,5,6
 955 -261 955 -261 779 -348 c 0,7,8
 654 -410 654 -410 515 -410 c 2,9,-1
 502 -410 l 2,10,11
 370 -410 370 -410 270 -362 c 0,12,13
 191 -324 191 -324 137 -278 c 2,14,-1
 70 -221 l 1,15,-1
 279 -43 l 1,16,-1
 328 -97 l 2,17,18
 357 -129 357 -129 383 -144 c 0,19,20
 458 -187 458 -187 518 -187 c 2,21,-1
 527 -187 l 2,22,23
 592 -187 592 -187 664 -148 c 0,24,25
 771 -90 771 -90 830 16 c 1,26,27
 753 -20 753 -20 661 -20 c 2,28,-1
 648 -20 l 2,29,30
 513 -20 513 -20 416 24 c 0,31,32
 301 76 301 76 240 135 c 0,33,34
 172 201 172 201 137 279 c 0,35,36
 97 368 97 368 97 482 c 128,-1,37
 97 596 97 596 127 690 c 0,38,39
 178 850 178 850 259 948 c 0,40,41
 313 1013 313 1013 413 1093 c 1,42,-1
 423 1100 l 1,43,-1
 728 1100 l 1,44,-1
 665 1044 l 2,45,46
 557 948 557 948 501 868 c 0,47,48
 439 780 439 780 417 665 c 0,49,50
 401 583 401 583 401 507 c 24,51,52
 401 404 401 404 435 335 c 0,53,54
 469 267 469 267 537 229 c 0,55,56
 584 203 584 203 663 203 c 2,57,-1
 673 203 l 2,58,59
 732 203 732 203 797 242 c 0,60,61
 840 268 840 268 866 314 c 0,62,63
 896 368 896 368 898 421 c 1,64,-1
 898 1100 l 1,65,-1
 1198 1100 l 1,0,-1
EndSplineSet
Validated: 1
EndChar

StartChar: z
Encoding: 122 122 93
Width: 1271
GlyphClass: 2
Flags: W
HStem: 0 250<734 983.726> 850 250<305.562 807.357>
VStem: 809 298<618.527 846.238>
LayerCount: 2
Fore
SplineSet
70 0 m 1,0,-1
 70 222 l 1,1,-1
 119 230 l 1,2,3
 331 267 331 267 547 385 c 1,4,5
 665 454 665 454 742 553 c 0,6,7
 787 611 787 611 803 696 c 0,8,9
 809 727 809 727 809 759 c 0,10,11
 809 777 809 777 807 812 c 0,12,13
 806 832 806 832 803 850 c 1,14,-1
 423 850 l 2,15,16
 341 850 341 850 271 774 c 0,17,18
 230 728 230 728 184 644 c 2,19,-1
 178 633 l 1,20,-1
 178 972 l 1,21,-1
 186 982 l 1,22,23
 245 1050 245 1050 296 1073 c 0,24,25
 357 1100 357 1100 423 1100 c 2,26,-1
 1035 1100 l 1,27,-1
 1043 1088 l 1,28,29
 1062 1054 1062 1054 1072 1031 c 0,30,31
 1107 949 1107 949 1107 823 c 0,32,33
 1107 768 1107 768 1090 703 c 0,34,35
 1055 563 1055 563 965 454 c 0,36,37
 868 337 868 337 734 250 c 1,38,-1
 866 250 l 2,39,40
 948 250 948 250 1018 326 c 1,41,42
 1059 373 1059 373 1105 456 c 2,43,-1
 1111 467 l 1,44,-1
 1111 128 l 1,45,-1
 1103 118 l 1,46,47
 1046 52 1046 52 993 27 c 0,48,49
 934 0 934 0 866 0 c 2,50,-1
 70 0 l 1,0,-1
EndSplineSet
Validated: 19457
EndChar

StartChar: braceleft
Encoding: 123 123 94
Width: 1018
GlyphClass: 2
Flags: W
HStem: -289 250<670.921 968> 633 250<50 286> 1568 250<652.291 968>
VStem: 286 295<55.6934 633 883 1500.23>
LayerCount: 2
Fore
SplineSet
968 -289 m 1,0,-1
 774 -289 l 2,1,2
 572 -289 572 -289 430 -150 c 0,3,4
 287 -11 287 -11 287 182 c 2,5,-1
 287 298 l 1,6,-1
 286 633 l 1,7,-1
 50 633 l 1,8,-1
 50 883 l 1,9,-1
 286 883 l 1,10,-1
 286 1362 l 2,11,12
 286 1560 286 1560 420 1685 c 1,13,14
 555 1818 555 1818 764 1818 c 2,15,-1
 968 1818 l 1,16,-1
 968 1568 l 1,17,-1
 858 1568 l 2,18,19
 696 1568 696 1568 639 1515 c 0,20,21
 581 1461 581 1461 581 1362 c 2,22,-1
 581 175 l 2,23,24
 581 95 581 95 660 15 c 0,25,26
 712 -39 712 -39 857 -39 c 2,27,-1
 968 -39 l 1,28,-1
 968 -289 l 1,0,-1
EndSplineSet
Validated: 1
EndChar

StartChar: bar
Encoding: 124 124 95
Width: 753
GlyphClass: 2
Flags: W
VStem: 250 252<-183 1687>
LayerCount: 2
Fore
SplineSet
250 -183 m 1,0,-1
 250 1687 l 1,1,-1
 503 1687 l 1,2,-1
 502 -183 l 1,3,-1
 250 -183 l 1,0,-1
EndSplineSet
Validated: 1
EndChar

StartChar: braceright
Encoding: 125 125 96
Width: 1018
GlyphClass: 2
Flags: W
HStem: -289 250<50 347.079> 633 250<732 968> 1568 250<50 365.709>
VStem: 437 295<55.6934 633 883 1500.23>
LayerCount: 2
Fore
SplineSet
50 -289 m 1,0,-1
 50 -39 l 1,1,-1
 161 -39 l 2,2,3
 306 -39 306 -39 358 15 c 0,4,5
 437 95 437 95 437 175 c 2,6,-1
 437 1362 l 2,7,8
 437 1461 437 1461 379 1515 c 0,9,10
 322 1568 322 1568 160 1568 c 2,11,-1
 50 1568 l 1,12,-1
 50 1818 l 1,13,-1
 254 1818 l 2,14,15
 463 1818 463 1818 598 1685 c 1,16,17
 732 1560 732 1560 732 1362 c 2,18,-1
 732 883 l 1,19,-1
 968 883 l 1,20,-1
 968 633 l 1,21,-1
 732 633 l 1,22,-1
 731 298 l 1,23,-1
 731 182 l 2,24,25
 731 -11 731 -11 588 -150 c 0,26,27
 446 -289 446 -289 244 -289 c 2,28,-1
 50 -289 l 1,0,-1
EndSplineSet
Validated: 1
EndChar

StartChar: asciitilde
Encoding: 126 126 97
Width: 1459
GlyphClass: 2
Flags: W
HStem: 555 292<845.379 1039.12> 723 292<418.844 613.438>
LayerCount: 2
Fore
SplineSet
150 681 m 1,0,-1
 162 726 l 1,1,2
 201 897 201 897 328 972 c 0,3,4
 402 1015 402 1015 500 1015 c 2,5,-1
 504 1015 l 2,6,7
 560 1015 560 1015 617 997 c 0,8,9
 668 981 668 981 695 967 c 2,10,-1
 904 862 l 2,11,12
 935 847 935 847 960 847 c 0,13,14
 963 847 963 847 968 848 c 0,15,16
 1036 857 1036 857 1065 941 c 1,17,-1
 1094 1021 l 1,18,-1
 1309 890 l 1,19,-1
 1297 845 l 1,20,21
 1257 675 1257 675 1130 599 c 0,22,23
 1057 555 1057 555 958 555 c 2,24,-1
 954 555 l 2,25,26
 896 555 896 555 842 572 c 0,27,28
 796 586 796 586 763 603 c 2,29,-1
 555 708 l 2,30,31
 524 723 524 723 498 723 c 0,32,33
 496 723 496 723 491 722 c 0,34,35
 422 713 422 713 393 630 c 2,36,-1
 365 548 l 1,37,-1
 150 681 l 1,0,-1
EndSplineSet
Validated: 1
EndChar

StartChar: exclamdown
Encoding: 161 161 99
Width: 842
GlyphClass: 2
Flags: W
HStem: 0 21G<271 571> 1176 355<304.253 536.753>
VStem: 245 352<1235.96 1470.73> 271 300<0 1041>
LayerCount: 2
Fore
SplineSet
245 1354 m 128,-1,1
 245 1427 245 1427 296 1479 c 0,2,3
 348 1531 348 1531 421 1531 c 0,4,5
 493 1531 493 1531 545 1479 c 128,-1,6
 597 1427 597 1427 597 1352 c 1,7,8
 594 1278 594 1278 545 1228 c 0,9,10
 493 1176 493 1176 421 1176 c 0,11,12
 347 1176 347 1176 296 1229 c 0,13,0
 245 1281 245 1281 245 1354 c 128,-1,1
271 1041 m 1,14,-1
 571 1041 l 1,15,-1
 571 0 l 1,16,-1
 271 0 l 1,17,-1
 271 1041 l 1,14,-1
EndSplineSet
Validated: 1
EndChar

StartChar: cent
Encoding: 162 162 100
Width: 1315
GlyphClass: 2
Flags: W
VStem: 100 299<290.926 706.863> 562 300<-186 -16.0303 242 882 1119.52 1282>
LayerCount: 2
Fore
SplineSet
1214 241 m 1,0,-1
 1166 191 l 1,1,2
 1072 90 1072 90 924 25 c 0,3,4
 893 11 893 11 862 1 c 1,5,-1
 862 -186 l 1,6,-1
 562 -186 l 1,7,-1
 562 -23 l 1,8,9
 480 -13 480 -13 418 14 c 0,10,11
 305 62 305 62 240 127 c 0,12,13
 171 195 171 195 137 275 c 0,14,15
 106 346 106 346 101 450 c 0,16,17
 100 470 100 470 100 490 c 0,18,19
 100 555 100 555 113 610 c 0,20,21
 144 748 144 748 244 868 c 1,22,23
 364 1010 364 1010 523 1073 c 0,24,25
 540 1080 540 1080 562 1087 c 1,26,-1
 562 1282 l 1,27,-1
 862 1282 l 1,28,-1
 862 1125 l 1,29,30
 957 1116 957 1116 1026 1084 c 1,31,32
 1103 1050 1103 1050 1160 1007 c 2,33,-1
 1235 949 l 1,34,-1
 1011 801 l 1,35,-1
 965 845 l 2,36,37
 943 867 943 867 913 885 c 0,38,39
 890 899 890 899 862 908 c 1,40,-1
 862 242 l 1,41,42
 924 281 924 281 967 340 c 2,43,-1
 1014 406 l 1,44,-1
 1214 241 l 1,0,-1
562 882 m 1,45,46
 506 834 506 834 464 764 c 0,47,48
 421 692 421 692 405 583 c 0,49,50
 399 546 399 546 399 505 c 0,51,52
 399 462 399 462 401 442 c 0,53,54
 409 361 409 361 442 294 c 0,55,56
 469 239 469 239 530 203 c 0,57,58
 548 193 548 193 562 186 c 1,59,-1
 562 882 l 1,45,46
EndSplineSet
Validated: 1
EndChar

StartChar: sterling
Encoding: 163 163 101
Width: 1286
GlyphClass: 2
Flags: W
HStem: 0 250<106 200 500 1078.73> 619 250<106 200 500 922> 1308 223<611.265 872.07>
VStem: 200 300<250 619 869 1189.85>
LayerCount: 2
Fore
SplineSet
106 0 m 1,0,-1
 106 250 l 1,1,-1
 200 250 l 1,2,-1
 200 619 l 1,3,-1
 106 619 l 1,4,-1
 106 869 l 1,5,-1
 200 869 l 1,6,-1
 200 995 l 2,7,8
 200 1186 200 1186 336 1330 c 0,9,10
 396 1393 396 1393 487 1450 c 24,11,12
 616 1531 616 1531 742 1531 c 2,13,-1
 750 1531 l 2,14,15
 886 1531 886 1531 981 1483 c 0,16,17
 1069 1439 1069 1439 1115 1398 c 2,18,-1
 1186 1335 l 1,19,-1
 962 1174 l 1,20,-1
 917 1222 l 2,21,22
 887 1254 887 1254 865 1268 c 0,23,24
 805 1308 805 1308 735 1308 c 2,25,-1
 725 1308 l 2,26,27
 668 1308 668 1308 607 1262 c 0,28,29
 566 1231 566 1231 537 1182 c 0,30,31
 503 1124 503 1124 500 1064 c 1,32,-1
 500 869 l 1,33,-1
 922 869 l 1,34,-1
 922 619 l 1,35,-1
 500 619 l 1,36,-1
 500 250 l 1,37,-1
 961 250 l 2,38,39
 1043 250 1043 250 1113 326 c 1,40,41
 1154 373 1154 373 1200 456 c 2,42,-1
 1206 467 l 1,43,-1
 1206 128 l 1,44,-1
 1198 118 l 1,45,46
 1141 52 1141 52 1088 27 c 0,47,48
 1029 0 1029 0 961 0 c 2,49,-1
 106 0 l 1,0,-1
EndSplineSet
Validated: 1
EndChar

StartChar: currency
Encoding: 164 164 102
Width: 1816
GlyphClass: 2
Flags: W
HStem: 199 188<703.906 1017.89> 1094 200<791.473 1111.31>
VStem: 286 299<508.781 898.985> 1231 299<610.222 975.64>
DStem2: 282 1509 100 1342 0.73136 -0.681992<0 417.408 1519.71 1945.62> 100 168 281 2 0.730869 0.682518<18.9894 375.666 1606.78 1964.78>
LayerCount: 2
Fore
SplineSet
1097 1059 m 128,-1,1
 1040 1094 1040 1094 964 1094 c 2,2,-1
 952 1094 l 1,3,4
 891 1093 891 1093 831 1068 c 0,5,6
 721 1021 721 1021 660 946 c 0,7,8
 606 878 606 878 590 787 c 0,9,10
 585 759 585 759 585 718 c 0,11,12
 585 678 585 678 586 663 c 0,13,14
 591 589 591 589 621 525 c 0,15,16
 652 458 652 458 713 425 c 0,17,18
 783 387 783 387 848 387 c 2,19,-1
 858 387 l 2,20,21
 922 387 922 387 988 417 c 0,22,23
 1097 466 1097 466 1167 573 c 0,24,25
 1209 637 1209 637 1226 731 c 0,26,27
 1231 758 1231 758 1231 799 c 0,28,29
 1231 836 1231 836 1229 856 c 0,30,31
 1222 926 1222 926 1180 987 c 0,32,0
 1154 1024 1154 1024 1097 1059 c 128,-1,1
100 168 m 1,33,-1
 370 420 l 1,34,35
 340 459 340 459 323 497 c 0,36,37
 293 563 293 563 287 664 c 0,38,39
 286 681 286 681 286 704 c 0,40,41
 286 761 286 761 300 818 c 0,42,43
 330 946 330 946 417 1046 c 1,44,-1
 100 1342 l 1,45,-1
 282 1509 l 1,46,-1
 622 1194 l 1,47,48
 642 1210 642 1210 711 1239 c 0,49,50
 846 1294 846 1294 978 1294 c 2,51,-1
 983 1294 l 2,52,53
 1112 1294 1112 1294 1210 1251 c 0,54,55
 1239 1238 1239 1238 1258 1229 c 1,56,-1
 1536 1509 l 1,57,-1
 1716 1342 l 1,58,-1
 1448 1092 l 1,59,60
 1475 1050 1475 1050 1490 1020 c 0,61,62
 1524 949 1524 949 1529 853 c 0,63,64
 1530 834 1530 834 1530 801 c 0,65,66
 1530 753 1530 753 1518 699 c 0,67,68
 1493 594 1493 594 1396 468 c 1,69,-1
 1716 168 l 1,70,-1
 1537 2 l 1,71,-1
 1207 305 l 1,72,73
 1164 280 1164 280 1109 255 c 0,74,75
 985 199 985 199 847 199 c 2,76,-1
 833 199 l 2,77,78
 703 199 703 199 605 242 c 0,79,80
 582 252 582 252 564 261 c 1,81,-1
 281 2 l 1,82,-1
 100 168 l 1,33,-1
EndSplineSet
Validated: 1
EndChar

StartChar: yen
Encoding: 165 165 103
Width: 1642
GlyphClass: 2
Flags: W
HStem: 0 21G<663 963> 454 250<200 506 1124 1438> 859 250<200 278 745 943 1359 1438> 1491 20G<50 392.166 1294.86 1592>
VStem: 50 331<1180 1511> 663 300<0 425> 1306 286<1225 1511>
DStem2: 943 859 1124 704 0.501193 0.865335<-43.411 0 424.83 746.132>
LayerCount: 2
Fore
SplineSet
663 0 m 1,0,-1
 663 426 l 1,1,-1
 647 453 l 1,2,-1
 200 453 l 1,3,-1
 200 703 l 1,4,-1
 506 703 l 1,5,-1
 419 858 l 1,6,-1
 200 858 l 1,7,-1
 200 1108 l 1,8,-1
 278 1108 l 1,9,-1
 50 1511 l 1,10,-1
 381 1511 l 1,11,-1
 606 1108 l 1,12,-1
 1082 1109 l 1,13,-1
 1306 1511 l 1,14,-1
 1592 1511 l 1,15,-1
 1359 1109 l 1,16,-1
 1438 1109 l 1,17,-1
 1438 859 l 1,18,-1
 1214 859 l 1,19,-1
 1124 704 l 1,20,-1
 1438 704 l 1,21,-1
 1438 454 l 1,22,-1
 980 454 l 1,23,-1
 963 425 l 1,24,-1
 963 0 l 1,25,-1
 663 0 l 1,0,-1
856 704 m 1,26,-1
 943 859 l 1,27,-1
 745 858 l 1,28,-1
 832 704 l 1,29,-1
 856 704 l 1,26,-1
EndSplineSet
Validated: 1
EndChar

StartChar: brokenbar
Encoding: 166 166 104
Width: 752
GlyphClass: 2
Flags: W
VStem: 250 252<-183 674 838 1687>
LayerCount: 2
Fore
SplineSet
250 -183 m 1,0,-1
 250 674 l 1,1,-1
 502 674 l 1,2,-1
 502 -183 l 1,3,-1
 250 -183 l 1,0,-1
250 838 m 1,4,-1
 250 1687 l 1,5,-1
 502 1687 l 1,6,-1
 502 838 l 1,7,-1
 250 838 l 1,4,-1
EndSplineSet
Validated: 1
EndChar

StartChar: section
Encoding: 167 167 105
Width: 1320
GlyphClass: 2
Flags: W
HStem: -20 224<537.094 762.857> 1307 224<557.143 782.906>
VStem: 150 274<732.344 841.287> 896 274<669.713 778.656>
DStem2: 510 1145 536 886 0.976089 -0.217373<-27.1621 452.86> 784 625 633 401 0.976089 -0.217373<-371.219 108.84>
LayerCount: 2
Fore
SplineSet
237 180 m 1,0,-1
 464 347 l 1,1,-1
 469 337 l 1,2,3
 506 271 506 271 547 239 c 1,4,5
 590 204 590 204 644 204 c 2,6,-1
 654 204 l 2,7,8
 698 204 698 204 735 228 c 0,9,10
 774 253 774 253 797 280 c 0,11,12
 833 322 833 322 833 341 c 0,13,14
 833 342 833 342 833 343 c 1,15,16
 830 361 830 361 814 365 c 2,17,-1
 810 366 l 2,18,19
 804 367 804 367 633 401 c 1,20,21
 414 446 414 446 347 469 c 0,22,23
 262 498 262 498 216 555 c 0,24,25
 188 589 188 589 175 615 c 0,26,27
 155 655 155 655 151 695 c 0,28,29
 150 706 150 706 150 729 c 0,30,31
 150 820 150 820 214 932 c 1,32,-1
 456 843 l 1,33,34
 427 788 427 788 424 755 c 0,35,36
 423 743 423 743 427 732 c 0,37,38
 436 700 436 700 498 686 c 0,39,40
 638 656 638 656 784 625 c 0,41,42
 933 595 933 595 1009 535 c 0,43,44
 1097 466 1097 466 1097 359 c 2,45,-1
 1097 347 l 1,46,47
 1095 255 1095 255 1026 167 c 0,48,49
 968 94 968 94 869 40 c 0,50,51
 760 -20 760 -20 633 -20 c 2,52,-1
 625 -20 l 2,53,54
 528 -20 528 -20 431 24 c 0,55,56
 347 62 347 62 247 169 c 1,57,-1
 237 180 l 1,0,-1
1083 1331 m 1,58,-1
 856 1164 l 1,59,-1
 851 1174 l 1,60,61
 814 1240 814 1240 773 1272 c 1,62,63
 730 1307 730 1307 676 1307 c 2,64,-1
 666 1307 l 2,65,66
 622 1307 622 1307 585 1283 c 0,67,68
 546 1258 546 1258 523 1231 c 0,69,70
 487 1189 487 1189 487 1170 c 0,71,72
 487 1169 487 1169 487 1168 c 1,73,74
 490 1150 490 1150 506 1146 c 2,75,-1
 510 1145 l 2,76,77
 516 1144 516 1144 687 1110 c 1,78,79
 906 1065 906 1065 973 1042 c 0,80,81
 1058 1013 1058 1013 1104 956 c 0,82,83
 1132 922 1132 922 1145 896 c 0,84,85
 1165 856 1165 856 1169 816 c 0,86,87
 1170 805 1170 805 1170 782 c 0,88,89
 1170 691 1170 691 1106 579 c 1,90,-1
 864 668 l 1,91,92
 893 723 893 723 896 756 c 0,93,94
 897 768 897 768 893 779 c 0,95,96
 883 812 883 812 822 825 c 0,97,98
 677 856 677 856 536 886 c 0,99,100
 387 916 387 916 311 976 c 0,101,102
 223 1045 223 1045 223 1152 c 2,103,-1
 223 1164 l 1,104,105
 225 1256 225 1256 294 1344 c 0,106,107
 352 1417 352 1417 451 1471 c 0,108,109
 560 1531 560 1531 687 1531 c 2,110,-1
 695 1531 l 2,111,112
 792 1531 792 1531 889 1487 c 0,113,114
 973 1449 973 1449 1073 1342 c 1,115,-1
 1083 1331 l 1,58,-1
EndSplineSet
Validated: 1
EndChar

StartChar: dieresis
Encoding: 168 168 106
Width: 1061
GlyphClass: 2
Flags: W
HStem: 1156 355<208.115 441.753 618.109 850.753>
VStem: 150 352<1216.27 1449.9> 559 352<1216.27 1451.05>
LayerCount: 2
Fore
SplineSet
559 1334 m 0,0,1
 559 1406 559 1406 610 1458 c 0,2,3
 661 1511 661 1511 735 1511 c 0,4,5
 807 1511 807 1511 859 1459 c 0,6,7
 908 1409 908 1409 911 1336 c 1,8,9
 911 1260 911 1260 859 1208 c 128,-1,10
 807 1156 807 1156 735 1156 c 0,11,12
 661 1156 661 1156 610 1209 c 0,13,14
 559 1261 559 1261 559 1334 c 0,0,1
150 1334 m 0,15,16
 150 1407 150 1407 200 1458 c 0,17,18
 251 1511 251 1511 326 1511 c 0,19,20
 398 1511 398 1511 450 1459 c 0,21,22
 499 1409 499 1409 502 1336 c 1,23,24
 502 1260 502 1260 450 1208 c 128,-1,25
 398 1156 398 1156 326 1156 c 0,26,27
 251 1156 251 1156 200 1209 c 0,28,29
 150 1260 150 1260 150 1334 c 0,15,16
EndSplineSet
Validated: 1
EndChar

StartChar: copyright
Encoding: 169 169 107
Width: 1551
GlyphClass: 2
Flags: W
HStem: 145 229<586.519 965.187> 458 187<694.188 833.573> 862 186<716.942 866.062> 1136 230<586.66 965.43>
VStem: 150 224<583.757 928.187> 480 209<648.863 834.159> 1176 225<578.368 930.684>
LayerCount: 2
Fore
SplineSet
1027 627 m 1,0,-1
 1006 590 l 1,1,2
 1006 590 1006 590 1005 589 c 0,3,4
 955 519 955 519 887 487 c 0,5,6
 826 458 826 458 754 458 c 2,7,-1
 748 458 l 2,8,9
 683 458 683 458 634 481 c 0,10,11
 584 505 584 505 549 541 c 1,12,13
 512 585 512 585 497 624 c 0,14,15
 483 663 483 663 481 707 c 0,16,17
 480 720 480 720 480 727 c 2,18,-1
 480 730 l 2,19,20
 480 761 480 761 485 788 c 0,21,22
 498 856 498 856 548 919 c 0,23,24
 605 991 605 991 679 1021 c 0,25,26
 748 1048 748 1048 806 1048 c 2,27,-1
 807 1048 l 2,28,29
 879 1048 879 1048 939 1017 c 0,30,31
 1013 979 1013 979 1043 927 c 2,32,-1
 1054 908 l 1,33,-1
 875 800 l 1,34,-1
 864 821 l 2,35,36
 853 841 853 841 834 853 c 0,37,38
 820 862 820 862 802 862 c 2,39,-1
 796 862 l 2,40,41
 781 862 781 862 764 854 c 0,42,43
 730 838 730 838 707 804 c 0,44,45
 698 792 698 792 690 756 c 0,46,47
 689 749 689 749 689 737 c 0,48,49
 689 729 689 729 690 717 c 0,50,51
 692 690 692 690 699 673 c 0,52,53
 705 660 705 660 720 653 c 0,54,55
 740 645 740 645 751 645 c 2,56,-1
 756 645 l 2,57,58
 772 645 772 645 798 658 c 1,59,60
 826 674 826 674 845 705 c 2,61,-1
 868 744 l 1,62,-1
 1027 627 l 1,0,-1
776 1366 m 0,63,64
 901 1366 901 1366 1015 1320 c 1,65,66
 1127 1276 1127 1276 1218 1186 c 0,67,68
 1308 1098 1308 1098 1355 989 c 0,69,70
 1401 881 1401 881 1401 754 c 0,71,72
 1401 633 1401 633 1355 522 c 0,73,74
 1312 418 1312 418 1219 326 c 0,75,76
 1128 237 1128 237 1015 191 c 0,77,78
 903 145 903 145 776 145 c 0,79,80
 650 145 650 145 536 191 c 0,81,82
 426 235 426 235 333 325 c 0,83,84
 242 413 242 413 196 521.5 c 128,-1,85
 150 630 150 630 150 754 c 0,86,87
 150 879 150 879 195.5 988 c 128,-1,88
 241 1097 241 1097 333 1186 c 256,89,90
 425 1275 425 1275 536.5 1320.5 c 128,-1,91
 648 1366 648 1366 776 1366 c 0,63,64
776 1136 m 0,92,93
 693 1136 693 1136 623.5 1108.5 c 128,-1,94
 554 1081 554 1081 494 1024 c 0,95,96
 434 966 434 966 404 899.5 c 128,-1,97
 374 833 374 833 374 759 c 2,98,-1
 374 754 l 2,99,100
 374 677 374 677 404 610 c 0,101,102
 432 548 432 548 494 487 c 0,103,104
 553 430 553 430 623 402 c 0,105,106
 694 374 694 374 776 374 c 128,-1,107
 858 374 858 374 929 402 c 0,108,109
 998 430 998 430 1059 487 c 0,110,111
 1118 543 1118 543 1147 609 c 128,-1,112
 1176 675 1176 675 1176 754 c 0,113,114
 1176 836 1176 836 1147 901 c 256,115,116
 1118 966 1118 966 1059 1024 c 0,117,118
 1001 1080 1001 1080 929 1109 c 0,119,120
 860 1136 860 1136 776 1136 c 0,92,93
EndSplineSet
Validated: 1
EndChar

StartChar: ordfeminine
Encoding: 170 170 108
Width: 1283
GlyphClass: 2
Flags: W
HStem: 656 250<150 1133> 968 151<545.978 672.766> 1375 156<572.365 702.779>
VStem: 348 185<1130.59 1335.57> 707 185<977 1008 1222 1364.94>
LayerCount: 2
Fore
SplineSet
892 1333 m 2,0,-1
 892 977 l 1,1,-1
 707 977 l 1,2,-1
 707 1008 l 1,3,4
 674 968 674 968 613 968 c 2,5,-1
 612 968 l 2,6,7
 556 968 556 968 506 991 c 1,8,9
 451 1015 451 1015 419 1046 c 0,10,11
 384 1080 384 1080 367 1119 c 0,12,13
 351 1155 351 1155 349 1205 c 0,14,15
 348 1215 348 1215 348 1224 c 0,16,17
 348 1254 348 1254 355 1282 c 1,18,19
 368 1343 368 1343 418 1405 c 0,20,21
 466 1464 466 1464 552 1503 c 0,22,23
 615 1531 615 1531 687 1531 c 256,24,25
 759 1531 759 1531 818 1487 c 0,26,27
 892 1431 892 1431 892 1333 c 2,0,-1
673 1164 m 2,28,-1
 707 1222 l 1,29,-1
 707 1354 l 2,30,31
 707 1357 707 1357 706 1359 c 0,32,33
 705 1363 705 1363 703 1365 c 0,34,35
 696 1372 696 1372 678 1375 c 0,36,37
 674 1375 674 1375 670 1375 c 0,38,39
 652 1375 652 1375 631 1367 c 0,40,41
 583 1349 583 1349 557 1313 c 0,42,43
 543 1293 543 1293 535 1256 c 0,44,45
 533 1246 533 1246 533 1233 c 0,46,47
 533 1222 533 1222 534 1211 c 0,48,49
 536 1184 536 1184 547 1161 c 0,50,51
 555 1143 555 1143 579 1129 c 0,52,53
 596 1119 596 1119 619 1119 c 2,54,-1
 620 1119 l 2,55,56
 634 1119 634 1119 645 1128 c 0,57,58
 659 1139 659 1139 673 1164 c 2,28,-1
1133 656 m 1,59,-1
 150 656 l 1,60,-1
 150 906 l 1,61,-1
 1133 906 l 1,62,-1
 1133 656 l 1,59,-1
EndSplineSet
Validated: 1
EndChar

StartChar: guillemotleft
Encoding: 171 171 109
Width: 1495
GlyphClass: 2
Flags: W
HStem: 55 406<367 773 889 1295> 1173 335<438 773 960 1295>
DStem2: 150 887 418 811 0.708243 0.705969<136.155 643.142> 418 811 150 675 0.708811 -0.705398<0 498.517> 672 887 940 811 0.708243 0.705969<136.155 643.142> 940 811 672 675 0.708811 -0.705398<0 498.517>
LayerCount: 2
Fore
SplineSet
1295 1508 m 1,0,-1
 1295 1173 l 1,1,-1
 940 811 l 1,2,-1
 1295 461 l 1,3,-1
 1295 55 l 1,4,-1
 672 675 l 1,5,-1
 672 887 l 1,6,-1
 1295 1508 l 1,0,-1
773 1508 m 1,7,-1
 773 1173 l 1,8,-1
 418 811 l 1,9,-1
 773 461 l 1,10,-1
 773 55 l 1,11,-1
 150 675 l 1,12,-1
 150 887 l 1,13,-1
 773 1508 l 1,7,-1
EndSplineSet
Validated: 1
EndChar

StartChar: logicalnot
Encoding: 172 172 110
Width: 1283
GlyphClass: 2
Flags: W
HStem: 479 427<883 1133> 656 250<150 883>
VStem: 883 250<479 656>
LayerCount: 2
Fore
SplineSet
1133 479 m 1,0,-1
 883 479 l 1,1,-1
 883 656 l 1,2,-1
 150 656 l 1,3,-1
 150 906 l 1,4,-1
 1133 906 l 1,5,-1
 1133 479 l 1,0,-1
EndSplineSet
Validated: 1
EndChar

StartChar: uni00AD
Encoding: 173 173 111
Width: 1283
GlyphClass: 2
Flags: W
HStem: 656 250<150 1133>
LayerCount: 2
Fore
SplineSet
1133 656 m 1,0,-1
 150 656 l 1,1,-1
 150 906 l 1,2,-1
 1133 906 l 1,3,-1
 1133 656 l 1,0,-1
EndSplineSet
Validated: 1
EndChar

StartChar: registered
Encoding: 174 174 112
Width: 1551
GlyphClass: 2
Flags: W
HStem: 145 229<586.69 962.594> 1136 230<586.199 966.924>
VStem: 150 224<583.757 928.187> 540 208<467 536 742 864.938> 814 209<772.473 860.874> 1176 225<577.938 930.684>
LayerCount: 2
Fore
SplineSet
540 467 m 1,0,-1
 540 986 l 1,1,-1
 500 1030 l 1,2,-1
 494 1024 l 1,3,4
 434 966 434 966 404 899.5 c 128,-1,5
 374 833 374 833 374 759 c 2,6,-1
 374 754 l 2,7,8
 374 677 374 677 404 610 c 0,9,10
 432 548 432 548 494 487 c 0,11,12
 553 430 553 430 623 402 c 0,13,14
 694 374 694 374 776 374 c 128,-1,15
 858 374 858 374 929 402 c 0,16,17
 985 425 985 425 1036 467 c 1,18,-1
 809 467 l 1,19,-1
 748 536 l 1,20,-1
 748 467 l 1,21,-1
 540 467 l 1,0,-1
804 772 m 0,22,23
 814 787 814 787 814 818 c 2,24,-1
 814 833 l 2,25,26
 814 851 814 851 810 856 c 0,27,28
 806 862 806 862 802 864 c 0,29,30
 800 864 800 864 798 865 c 1,31,-1
 795 865 l 2,32,33
 787 865 787 865 781 861 c 0,34,35
 767 854 767 854 758 842 c 1,36,37
 748 831 748 831 748 809 c 2,38,-1
 748 742 l 1,39,-1
 753 742 l 1,40,41
 771 745 771 745 777 748 c 0,42,43
 793 757 793 757 804 772 c 0,22,23
776 1366 m 0,44,45
 899 1366 899 1366 1015 1320 c 0,46,47
 1127 1275 1127 1275 1218 1186 c 0,48,49
 1308 1097 1308 1097 1355 989 c 0,50,51
 1401 881 1401 881 1401 754 c 0,52,53
 1401 632 1401 632 1355 522 c 0,54,55
 1311 418 1311 418 1219 326 c 1,56,57
 1128 237 1128 237 1015 191 c 0,58,59
 903 145 903 145 776 145 c 0,60,61
 651 145 651 145 536 191 c 0,62,63
 426 235 426 235 333 325 c 0,64,65
 242 413 242 413 196 521.5 c 128,-1,66
 150 630 150 630 150 754 c 0,67,68
 150 879 150 879 195.5 988 c 128,-1,69
 241 1097 241 1097 333 1186 c 128,-1,70
 425 1275 425 1275 536.5 1320.5 c 128,-1,71
 648 1366 648 1366 776 1366 c 0,44,45
519 1046 m 1,72,-1
 748 1047 l 1,73,-1
 748 1045 l 1,74,75
 776 1051 776 1051 803 1051 c 2,76,-1
 804 1051 l 2,77,78
 857 1051 857 1051 897 1032 c 0,79,80
 938 1012 938 1012 967 981 c 0,81,82
 995 951 995 951 1009 914 c 0,83,84
 1020 885 1020 885 1023 838 c 1,85,-1
 1023 820 l 2,86,87
 1023 803 1023 803 1018 772 c 0,88,89
 1010 715 1010 715 969 665 c 0,90,91
 954 647 954 647 938 632 c 1,92,-1
 1065 493 l 1,93,94
 1119 546 1119 546 1147 609 c 0,95,96
 1176 675 1176 675 1176 754 c 0,97,98
 1176 836 1176 836 1147 901 c 128,-1,99
 1118 966 1118 966 1059 1024 c 0,100,101
 1001 1080 1001 1080 929 1109 c 0,102,103
 860 1136 860 1136 776 1136 c 0,104,105
 694 1136 694 1136 624 1108 c 0,106,107
 568 1087 568 1087 519 1046 c 1,72,-1
EndSplineSet
Validated: 1
EndChar

StartChar: macron
Encoding: 175 175 113
Width: 1283
GlyphClass: 2
Flags: W
HStem: 1261 250<150 1133>
LayerCount: 2
Fore
SplineSet
1133 1261 m 1,0,-1
 150 1261 l 1,1,-1
 150 1511 l 1,2,-1
 1133 1511 l 1,3,-1
 1133 1261 l 1,0,-1
EndSplineSet
Validated: 1
EndChar

StartChar: degree
Encoding: 176 176 114
Width: 1152
GlyphClass: 2
Flags: W
HStem: 845 218<468.097 671.938> 1288 223<481.523 683.965>
VStem: 150 288<1083.54 1237.93> 715 287<1108.35 1267.46>
LayerCount: 2
Fore
SplineSet
1002 1216 m 0,0,1
 1002 1170 1002 1170 978 1114 c 0,2,3
 943 1032 943 1032 871 968 c 0,4,5
 848 947 848 947 798 915 c 0,6,7
 692 845 692 845 523 845 c 2,8,-1
 519 845 l 2,9,10
 396 845 396 845 316 886 c 0,11,12
 221 936 221 936 180 1011 c 0,13,14
 150 1066 150 1066 150 1126 c 0,15,16
 150 1181 150 1181 175 1237 c 0,17,18
 211 1318 211 1318 282 1382 c 0,19,20
 311 1408 311 1408 358 1437 c 0,21,22
 478 1511 478 1511 629 1511 c 2,23,-1
 633 1511 l 1,24,25
 748 1510 748 1510 837 1465 c 0,26,27
 934 1415 934 1415 973 1339 c 0,28,29
 1002 1283 1002 1283 1002 1216 c 0,0,1
475 1239 m 0,30,31
 438 1205 438 1205 438 1140 c 2,32,-1
 438 1137 l 2,33,34
 438 1100 438 1100 467 1083 c 0,35,36
 502 1063 502 1063 550 1063 c 0,37,38
 557 1063 557 1063 571 1064 c 0,39,40
 638 1068 638 1068 675 1107 c 0,41,42
 715 1150 715 1150 715 1210 c 2,43,-1
 715 1213 l 2,44,45
 715 1251 715 1251 685 1268 c 1,46,47
 652 1288 652 1288 605 1288 c 0,48,49
 601 1288 601 1288 587 1286 c 0,50,51
 518 1278 518 1278 475 1239 c 0,30,31
EndSplineSet
Validated: 1
EndChar

StartChar: plusminus
Encoding: 177 177 115
Width: 1283
GlyphClass: 2
Flags: W
HStem: 141 250<150 1133> 825 250<150 516 766 1133>
VStem: 516 250<459 825 1075 1441>
LayerCount: 2
Fore
SplineSet
1133 141 m 1,0,-1
 150 141 l 1,1,-1
 150 391 l 1,2,-1
 1133 391 l 1,3,-1
 1133 141 l 1,0,-1
516 459 m 1,4,-1
 516 825 l 1,5,-1
 150 825 l 1,6,-1
 150 1075 l 1,7,-1
 516 1075 l 1,8,-1
 516 1441 l 1,9,-1
 766 1441 l 1,10,-1
 766 1075 l 1,11,-1
 1133 1075 l 1,12,-1
 1133 825 l 1,13,-1
 766 825 l 1,14,-1
 766 459 l 1,15,-1
 516 459 l 1,4,-1
EndSplineSet
Validated: 1
EndChar

StartChar: uni00B2
Encoding: 178 178 116
Width: 1031
GlyphClass: 2
Flags: W
HStem: 715 250<600 785.625> 1294 237<457.234 600.18>
VStem: 159 721<772.728 956.41> 861 19<1094.9 1111> 880 0
LayerCount: 2
Fore
SplineSet
223 715 m 1,0,-1
 214 725 l 1,1,2
 159 797 159 797 159 854 c 0,3,4
 159 913 159 913 221 976 c 0,5,6
 296 1052 296 1052 421 1119 c 1,7,8
 572 1186 572 1186 576 1191 c 0,9,10
 581 1198 581 1198 595 1212 c 0,11,12
 603 1220 603 1220 603 1238 c 2,13,-1
 603 1239 l 0,14,15
 603 1255 603 1255 593 1269 c 0,16,17
 585 1280 585 1280 566 1288 c 0,18,19
 552 1294 552 1294 531 1294 c 2,20,-1
 529 1294 l 2,21,22
 514 1294 514 1294 499 1286 c 0,23,24
 469 1270 469 1270 443 1231 c 0,25,26
 406 1177 406 1177 393 1143 c 2,27,-1
 389 1133 l 1,28,-1
 150 1266 l 1,29,-1
 186 1318 l 1,30,31
 197 1335 197 1335 217 1361 c 0,32,33
 289 1457 289 1457 379 1496 c 0,34,35
 460 1531 460 1531 540 1531 c 2,36,-1
 543 1531 l 1,37,38
 615 1530 615 1530 679 1503 c 24,39,40
 763 1467 763 1467 791 1440 c 0,41,42
 830 1403 830 1403 854 1359 c 16,43,44
 881 1309 881 1309 881 1265 c 0,45,46
 881 1264 881 1264 881 1262 c 0,47,48
 881 1193 881 1193 854 1155 c 0,49,50
 810 1094 810 1094 741 1049 c 24,51,52
 665 1000 665 1000 600 965 c 1,53,-1
 695 965 l 2,54,55
 745 965 745 965 795 1019 c 0,56,57
 837 1064 837 1064 861 1111 c 2,58,-1
 880 1148 l 1,59,-1
 880 824 l 1,60,61
 827 756 827 756 791 736 c 0,62,63
 753 715 753 715 695 715 c 2,64,-1
 223 715 l 1,0,-1
EndSplineSet
Validated: 1
EndChar

StartChar: uni00B3
Encoding: 179 179 117
Width: 1041
GlyphClass: 2
Flags: W
HStem: 705 221<421.744 583.562> 1087 164<417 526.84> 1373 158<459.28 554.993>
VStem: 613 278<956.5 1099.51>
LayerCount: 2
Fore
SplineSet
150 951 m 1,0,-1
 403 1040 l 1,1,-1
 405 1017 l 2,2,3
 406 997 406 997 429 957 c 0,4,5
 437 944 437 944 451 935 c 0,6,7
 464 926 464 926 484 926 c 2,8,-1
 493 926 l 2,9,10
 511 926 511 926 534 936 c 1,11,12
 567 948 567 948 593 979 c 0,13,14
 607 995 607 995 612 1027 c 0,15,16
 613 1033 613 1033 613 1045 c 0,17,18
 613 1065 613 1065 612 1066 c 0,19,20
 606 1102 606 1102 548 1102 c 2,21,-1
 545 1102 l 2,22,23
 539 1102 539 1102 532 1101 c 2,24,-1
 417 1087 l 1,25,-1
 417 1251 l 1,26,27
 498 1258 498 1258 546 1316 c 0,28,29
 555 1328 555 1328 555 1350.5 c 128,-1,30
 555 1373 555 1373 526 1373 c 0,31,32
 518 1373 518 1373 510 1369 c 0,33,34
 466 1349 466 1349 417 1273 c 1,35,-1
 275 1392 l 1,36,-1
 287 1408 l 2,37,38
 302 1427 302 1427 343 1458 c 0,39,40
 356 1468 356 1468 390 1487 c 0,41,42
 470 1531 470 1531 560 1531 c 2,43,-1
 562 1531 l 1,44,45
 633 1530 633 1530 698 1499 c 0,46,47
 760 1469 760 1469 788 1422 c 0,48,49
 809 1386 809 1386 809 1349 c 0,50,51
 809 1315 809 1315 792 1282 c 0,52,53
 786 1271 786 1271 780 1261 c 1,54,55
 793 1254 793 1254 800 1248 c 0,56,57
 846 1212 846 1212 868 1171 c 0,58,59
 886 1138 886 1138 890 1085 c 0,60,61
 891 1070 891 1070 891 1062 c 0,62,63
 891 1022 891 1022 883 992 c 0,64,65
 865 921 865 921 805 850 c 0,66,67
 750 785 750 785 643 739 c 0,68,69
 563 705 563 705 487 705 c 0,70,71
 410 705 410 705 342 732 c 0,72,73
 269 760 269 760 234 795 c 0,74,75
 190 840 190 840 169 885 c 0,76,77
 162 899 162 899 157 923 c 2,78,-1
 150 951 l 1,0,-1
EndSplineSet
Validated: 1
EndChar

StartChar: acute
Encoding: 180 180 118
Width: 913
GlyphClass: 2
Flags: W
HStem: 891 620
VStem: 150 613
DStem2: 150 1069 326 891 0.701441 0.712728<0 616.718>
LayerCount: 2
Fore
SplineSet
326 891 m 1,0,-1
 150 1069 l 1,1,-1
 585 1511 l 1,2,-1
 763 1331 l 1,3,-1
 326 891 l 1,0,-1
EndSplineSet
Validated: 1
EndChar

StartChar: uni00B5
Encoding: 181 181 119
Width: 1501
GlyphClass: 2
Flags: W
HStem: -410 21G<200 500> -20 223<612.155 901.75> 0 5<1457.02 1461> 0 0 1080 20G<476 831 1001 1301>
VStem: 200 300<-410 34 324.414 737.34> 1001 300<297.166 1100>
LayerCount: 2
Fore
SplineSet
1301 1100 m 1,0,-1
 1301 219 l 2,1,2
 1301 163 1301 163 1351 97 c 0,3,4
 1397 37 1397 37 1461 5 c 2,5,-1
 1471 0 l 1,6,-1
 1131 0 l 1,7,-1
 1113 12 l 2,8,9
 1064 45 1064 45 1038 85 c 1,10,-1
 1021 70 l 1,11,12
 911 -20 911 -20 764 -20 c 2,13,-1
 751 -20 l 2,14,15
 632 -20 632 -20 520 25 c 1,16,-1
 500 34 l 1,17,-1
 500 -410 l 1,18,-1
 200 -410 l 1,19,-1
 200 482 l 2,20,21
 200 582 200 582 232 699 c 0,22,23
 266 822 266 822 364 949 c 0,24,25
 426 1029 426 1029 526 1100 c 1,26,-1
 831 1100 l 1,27,-1
 751 1029 l 2,28,29
 652 940 652 940 605 869 c 0,30,31
 547 781 547 781 524 677 c 0,32,33
 504 586 504 586 504 507 c 0,34,35
 504 486 504 486 505 468 c 0,36,37
 509 398 509 398 539 335 c 0,38,39
 572 266 572 266 640 229 c 0,40,41
 689 203 689 203 766 203 c 2,42,-1
 776 203 l 2,43,44
 837 203 837 203 893 241 c 0,45,46
 943 275 943 275 971 316 c 0,47,48
 1001 360 1001 360 1001 433 c 2,49,-1
 1001 1100 l 1,50,-1
 1301 1100 l 1,0,-1
EndSplineSet
Validated: 1
EndChar

StartChar: paragraph
Encoding: 182 182 120
Width: 1397
GlyphClass: 2
Flags: W
HStem: 0 21G<897 1000 1094 1197> 390 224<507.973 751.669> 1295 235<601.417 873.18>
VStem: 100 299<724.586 1101.49> 897 103<0 1233.48> 1094 103<0 1230.81>
LayerCount: 2
Fore
SplineSet
1197 0 m 1,0,-1
 1094 0 l 1,1,-1
 1094 1234 l 1,2,-1
 1000 1234 l 1,3,-1
 1000 0 l 1,4,-1
 897 0 l 1,5,-1
 897 1194 l 1,6,7
 893 1235 893 1235 873 1255 c 0,8,9
 842 1286 842 1286 785 1293 c 0,10,11
 772 1295 772 1295 760 1295 c 0,12,13
 710 1295 710 1295 652 1273 c 0,14,15
 530 1227 530 1227 463 1133 c 0,16,17
 424 1079 424 1079 405 985 c 0,18,19
 399 958 399 958 399 922 c 0,20,21
 399 899 399 899 401 870 c 0,22,23
 406 800 406 800 435 740 c 0,24,25
 461 684 461 684 528 645 c 0,26,27
 580 614 580 614 645 614 c 2,28,-1
 648 614 l 2,29,30
 700 614 700 614 739 646 c 0,31,32
 777 677 777 677 815 741 c 1,33,-1
 831 769 l 1,34,-1
 847 693 l 1,35,36
 853 658 853 658 853 627 c 0,37,38
 851 538 851 538 810 475 c 0,39,40
 755 390 755 390 633 390 c 2,41,-1
 630 390 l 2,42,43
 519 390 519 390 417 435 c 1,44,45
 303 487 303 487 240 548 c 0,46,47
 171 615 171 615 137 692 c 0,48,49
 107 759 107 759 101 863 c 0,50,51
 100 883 100 883 100 902 c 0,52,53
 100 964 100 964 113 1020 c 0,54,55
 140 1144 140 1144 243 1272 c 0,56,57
 340 1392 340 1392 519 1472 c 0,58,59
 648 1530 648 1530 797 1530 c 0,60,61
 938 1530 938 1530 1054 1442 c 1,62,63
 1197 1337 1197 1337 1197 1146 c 2,64,-1
 1197 0 l 1,0,-1
EndSplineSet
Validated: 1
EndChar

StartChar: periodcentered
Encoding: 183 183 121
Width: 652
GlyphClass: 2
Flags: W
HStem: 600 355<208.115 441.753>
VStem: 150 352<660.271 893.897>
LayerCount: 2
Fore
SplineSet
150 778 m 0,0,1
 150 851 150 851 200 902 c 0,2,3
 251 955 251 955 326 955 c 0,4,5
 398 955 398 955 450 903 c 0,6,7
 499 853 499 853 502 780 c 1,8,9
 502 704 502 704 450 652 c 256,10,11
 398 600 398 600 326 600 c 0,12,13
 251 600 251 600 200 653 c 0,14,15
 150 704 150 704 150 778 c 0,0,1
EndSplineSet
Validated: 1
EndChar

StartChar: cedilla
Encoding: 184 184 122
Width: 730
GlyphClass: 2
Flags: W
HStem: -410 21G<366.382 397>
VStem: 295 285<-134.052 101.845>
LayerCount: 2
Fore
SplineSet
390 -410 m 1,0,-1
 155 -211 l 1,1,-1
 163 -205 l 1,2,3
 295 -124 295 -124 295 -29 c 2,4,-1
 295 -26 l 2,5,6
 295 42 295 42 253 101 c 0,7,8
 229 134 229 134 158 181 c 1,9,-1
 150 186 l 1,10,-1
 310 329 l 1,11,-1
 313 327 l 1,12,13
 395 278 395 278 449 232 c 0,14,15
 580 121 580 121 580 -49 c 0,16,-1
 580 -52 l 0,17,18
 580 -179 580 -179 494 -294 c 1,19,20
 448 -353 448 -353 397 -402 c 1,21,-1
 390 -410 l 1,0,-1
EndSplineSet
Validated: 1
EndChar

StartChar: uni00B9
Encoding: 185 185 123
Width: 800
GlyphClass: 2
Flags: W
HStem: 1261 250<150 275>
VStem: 150 380<1263.73 1487.2> 275 275<706 1261>
LayerCount: 2
Fore
SplineSet
275 706 m 1,0,-1
 275 1261 l 1,1,-1
 150 1261 l 1,2,-1
 150 1511 l 1,3,-1
 444 1511 l 1,4,-1
 449 1511 l 1,5,6
 500 1486 500 1486 530 1433 c 0,7,8
 550 1397 550 1397 550 1355 c 2,9,-1
 550 706 l 1,10,-1
 275 706 l 1,0,-1
EndSplineSet
Validated: 1
EndChar

StartChar: ordmasculine
Encoding: 186 186 124
Width: 1283
GlyphClass: 2
Flags: W
HStem: 656 250<150 1133> 968 150<557.046 739.029> 1380 151<586.452 770.277>
VStem: 358 185<1132.69 1335.43> 783 185<1163.22 1367.5>
LayerCount: 2
Fore
SplineSet
697 1531 m 2,0,1
 762 1531 762 1531 811 1508 c 0,2,3
 866 1483 866 1483 897 1453 c 0,4,5
 932 1420 932 1420 949 1380 c 1,6,7
 965 1345 965 1345 968 1294 c 0,8,9
 968 1284 968 1284 968 1271 c 0,10,11
 968 1245 968 1245 962 1217 c 0,12,13
 947 1152 947 1152 898 1093 c 0,14,15
 846 1032 846 1032 769 997 c 0,16,17
 706 968 706 968 635 968 c 2,18,19
 635 968 635 968 629 968 c 0,20,21
 566 968 566 968 516 991 c 1,22,23
 461 1015 461 1015 429 1047 c 0,24,25
 394 1081 394 1081 377 1119 c 0,26,27
 361 1154 361 1154 359 1205 c 0,28,29
 358 1214 358 1214 358 1224 c 0,30,31
 358 1255 358 1255 364 1282 c 0,32,33
 380 1350 380 1350 429 1407 c 0,34,35
 487 1474 487 1474 564 1504 c 0,36,37
 634 1531 634 1531 695 1531 c 2,38,-1
 697 1531 l 2,0,1
684 1380 m 0,39,40
 656 1380 656 1380 633 1369 c 0,41,42
 595 1351 595 1351 567 1313 c 0,43,44
 551 1292 551 1292 545 1257 c 0,45,46
 543 1245 543 1245 543 1233 c 0,47,48
 543 1224 543 1224 544 1211 c 0,49,50
 545 1183 545 1183 556 1162 c 0,51,52
 566 1142 566 1142 588 1132 c 1,53,54
 614 1118 614 1118 638 1118 c 2,55,56
 638 1118 638 1118 641 1118 c 0,57,58
 665 1118 665 1118 691 1130 c 0,59,60
 732 1149 732 1149 760 1186 c 0,61,62
 775 1207 775 1207 781 1242 c 0,63,64
 783 1254 783 1254 783 1266 c 0,65,66
 783 1276 783 1276 783 1288 c 0,67,68
 781 1318 781 1318 771 1335 c 0,69,70
 760 1354 760 1354 735 1370 c 1,71,72
 717 1380 717 1380 689 1380 c 2,73,74
 689 1380 689 1380 684 1380 c 0,39,40
1133 656 m 1,75,-1
 150 656 l 1,76,-1
 150 906 l 1,77,-1
 1133 906 l 1,78,-1
 1133 656 l 1,75,-1
EndSplineSet
Validated: 1
EndChar

StartChar: guillemotright
Encoding: 187 187 125
Width: 1495
GlyphClass: 2
Flags: W
HStem: 54 335<200 535 722 1057> 1101 406<200 606 722 1128>
DStem2: 200 1507 200 1101 0.708811 -0.705398<286.392 784.909> 200 389 200 54 0.708243 0.705969<0 506.987> 722 1507 722 1101 0.708811 -0.705398<286.392 784.909> 722 389 722 54 0.708243 0.705969<0 506.987>
LayerCount: 2
Fore
SplineSet
200 54 m 1,0,-1
 200 389 l 1,1,-1
 555 751 l 1,2,-1
 200 1101 l 1,3,-1
 200 1507 l 1,4,-1
 823 887 l 1,5,-1
 823 675 l 1,6,-1
 200 54 l 1,0,-1
722 54 m 1,7,-1
 722 389 l 1,8,-1
 1077 751 l 1,9,-1
 722 1101 l 1,10,-1
 722 1507 l 1,11,-1
 1345 887 l 1,12,-1
 1345 675 l 1,13,-1
 722 54 l 1,7,-1
EndSplineSet
Validated: 1
EndChar

StartChar: onequarter
Encoding: 188 188 126
Width: 1960
GlyphClass: 2
Flags: W
HStem: 0 21G<298 630.674 1435 1710> 174 185<1336 1435> 1261 250<150 275>
VStem: 150 379<1265.59 1486.33> 275 275<556 1261> 298 321<0 321> 1179 322<1189 1511> 1435 275<0 174 359 543>
DStem2: 298 0 619 0 0.50412 0.863634<161.822 1749.08>
LayerCount: 2
Fore
SplineSet
1356 405 m 0,0,1
 1345 381 1345 381 1336 359 c 1,2,-1
 1435 359 l 1,3,-1
 1435 543 l 1,4,5
 1386 468 1386 468 1356 405 c 0,0,1
1435 0 m 1,6,-1
 1435 174 l 1,7,-1
 1014 174 l 1,8,-1
 1028 287 l 1,9,10
 1040 384 1040 384 1078 477 c 0,11,12
 1122 585 1122 585 1213 698 c 0,13,14
 1274 774 1274 774 1338 842 c 1,15,-1
 1438 946 l 1,16,-1
 1603 946 l 1,17,-1
 1629 927 l 2,18,19
 1666 901 1666 901 1690 854 c 0,20,21
 1710 816 1710 816 1710 768 c 2,22,-1
 1710 0 l 1,23,-1
 1435 0 l 1,6,-1
275 556 m 1,24,-1
 275 1261 l 1,25,-1
 150 1261 l 1,26,-1
 150 1511 l 1,27,-1
 444 1511 l 1,28,-1
 449 1508 l 2,29,30
 505 1480 505 1480 529 1440 c 0,31,32
 550 1403 550 1403 550 1339 c 2,33,-1
 550 556 l 1,34,-1
 275 556 l 1,24,-1
1179 1511 m 1,35,-1
 1501 1511 l 1,36,-1
 619 0 l 1,37,-1
 298 0 l 1,38,-1
 1179 1511 l 1,35,-1
EndSplineSet
Validated: 1
EndChar

StartChar: onehalf
Encoding: 189 189 127
Width: 2083
GlyphClass: 2
Flags: W
HStem: 0 250<1595 1787.38> 664 237<1456 1597.66> 1261 250<150 275>
VStem: 150 379<1265.59 1486.33> 275 275<556 1261> 307 321<0 321> 1162 721<53.5117 235.25> 1188 322<1189 1511> 1605 278<502.111 658.053> 1871 12<386.906 398> 1883 0
DStem2: 307 0 628 0 0.50412 0.863634<161.822 1749.08>
LayerCount: 2
Fore
SplineSet
275 556 m 1,0,-1
 275 1261 l 1,1,-1
 150 1261 l 1,2,-1
 150 1511 l 1,3,-1
 444 1511 l 1,4,-1
 449 1508 l 2,5,6
 505 1480 505 1480 529 1440 c 0,7,8
 550 1403 550 1403 550 1339 c 2,9,-1
 550 556 l 1,10,-1
 275 556 l 1,0,-1
1226 0 m 9,11,-1
 1196 39 l 17,12,13
 1162 79 1162 79 1162 128 c 0,14,15
 1162 207 1162 207 1228 254 c 2,16,-1
 1414 389 l 2,17,18
 1558 494 1558 494 1574 515 c 0,19,20
 1595 542 1595 542 1599 552 c 0,21,22
 1605 566 1605 566 1605 588 c 2,23,-1
 1605 589 l 2,24,25
 1605 613 1605 613 1594 630 c 128,-1,26
 1583 647 1583 647 1567 656 c 0,27,28
 1553 664 1553 664 1533 664 c 2,29,-1
 1531 664 l 2,30,31
 1514 664 1514 664 1500 657 c 0,32,33
 1467 640 1467 640 1446 605 c 0,34,35
 1421 563 1421 563 1399 521 c 1,36,-1
 1377 478 l 1,37,-1
 1138 603 l 1,38,-1
 1189 688 l 2,39,40
 1203 712 1203 712 1218 731 c 0,41,42
 1293 826 1293 826 1382 866 c 0,43,44
 1460 901 1460 901 1542 901 c 2,45,-1
 1544 901 l 1,46,47
 1621 900 1621 900 1685 871 c 24,48,49
 1756 839 1756 839 1793 803 c 0,50,51
 1833 764 1833 764 1857 714 c 128,-1,52
 1881 664 1881 664 1883 604 c 1,53,-1
 1883 602 l 2,54,55
 1883 534 1883 534 1857 489 c 0,56,57
 1809 407 1809 407 1750 359 c 0,58,59
 1724 338 1724 338 1595 250 c 1,60,-1
 1698 250 l 2,61,62
 1741 250 1741 250 1798 304 c 0,63,64
 1851 354 1851 354 1871 398 c 2,65,-1
 1883 424 l 1,66,-1
 1883 106 l 1,67,68
 1851 54 1851 54 1793 21 c 0,69,70
 1758 0 1758 0 1698 0 c 2,71,-1
 1226 0 l 9,11,-1
1188 1511 m 1,72,-1
 1510 1511 l 1,73,-1
 628 0 l 1,74,-1
 307 0 l 1,75,-1
 1188 1511 l 1,72,-1
EndSplineSet
Validated: 1
EndChar

StartChar: threequarters
Encoding: 190 190 128
Width: 2081
GlyphClass: 2
Flags: W
HStem: 0 21G<436 769.86 1556 1831> 174 185<1457 1556> 680 221<421.744 583.562> 1062 164<417 526.84> 1511 0G<516 598.5 1320.14 1654>
VStem: 436 322<0 322> 557 253<1259.94 1367.5> 1332 322<1189 1511> 1556 275<0 174 359 543>
DStem2: 436 0 758 0 0.510052 0.860144<164.237 1756.68>
LayerCount: 2
Fore
SplineSet
1477 405 m 0,0,1
 1466 381 1466 381 1457 359 c 1,2,-1
 1556 359 l 1,3,-1
 1556 543 l 1,4,5
 1507 468 1507 468 1477 405 c 0,0,1
1556 0 m 1,6,-1
 1556 174 l 1,7,-1
 1135 174 l 1,8,-1
 1149 287 l 1,9,10
 1161 384 1161 384 1199 477 c 0,11,12
 1243 585 1243 585 1334 698 c 0,13,14
 1395 774 1395 774 1459 842 c 1,15,-1
 1559 946 l 1,16,-1
 1724 946 l 1,17,-1
 1750 927 l 2,18,19
 1787 901 1787 901 1811 854 c 0,20,21
 1831 816 1831 816 1831 768 c 2,22,-1
 1831 0 l 1,23,-1
 1556 0 l 1,6,-1
150 926 m 1,24,-1
 403 1015 l 1,25,-1
 405 992 l 2,26,27
 406 972 406 972 429 932 c 0,28,29
 437 919 437 919 451 910 c 0,30,31
 464 901 464 901 484 901 c 2,32,-1
 493 901 l 2,33,34
 511 901 511 901 534 911 c 1,35,36
 567 923 567 923 593 954 c 0,37,38
 607 970 607 970 612 1002 c 0,39,40
 613 1008 613 1008 613 1020 c 0,41,42
 614 1037 614 1037 612 1041 c 0,43,44
 598 1077 598 1077 548 1077 c 2,45,-1
 545 1077 l 2,46,47
 536 1077 536 1077 532 1076 c 2,48,-1
 417 1062 l 1,49,-1
 417 1226 l 1,50,51
 498 1233 498 1233 546 1291 c 0,52,53
 557 1303 557 1303 557 1323.5 c 128,-1,54
 557 1344 557 1344 525 1347 c 0,55,56
 509 1349 509 1349 491 1335 c 0,57,58
 451 1303 451 1303 417 1248 c 1,59,-1
 276 1392 l 1,60,-1
 288 1408 l 2,61,62
 305 1430 305 1430 344 1458 c 0,63,64
 357 1468 357 1468 391 1487 c 0,65,66
 471 1531 471 1531 561 1531 c 2,67,-1
 563 1531 l 1,68,69
 634 1530 634 1530 699 1499 c 0,70,71
 761 1469 761 1469 789 1422 c 0,72,73
 810 1386 810 1386 810 1349 c 0,74,75
 810 1290 810 1290 792 1257 c 0,76,77
 786 1246 786 1246 780 1236 c 1,78,79
 793 1229 793 1229 800 1223 c 0,80,81
 846 1187 846 1187 868 1146 c 0,82,83
 887 1112 887 1112 890 1060 c 0,84,85
 891 1045 891 1045 891 1037 c 0,86,87
 891 1033 891 1033 891 1030 c 0,88,89
 892 1001 892 1001 883 967 c 0,90,91
 864 895 864 895 805 825 c 0,92,93
 750 760 750 760 643 714 c 0,94,95
 563 680 563 680 487 680 c 0,96,97
 410 680 410 680 342 707 c 0,98,99
 269 735 269 735 234 770 c 0,100,101
 190 815 190 815 169 860 c 0,102,103
 162 876 162 876 157 898 c 2,104,-1
 150 926 l 1,24,-1
758 0 m 1,105,-1
 436 0 l 1,106,-1
 1332 1511 l 1,107,-1
 1654 1511 l 1,108,-1
 758 0 l 1,105,-1
EndSplineSet
Validated: 1
EndChar

StartChar: questiondown
Encoding: 191 191 129
Width: 1491
GlyphClass: 2
Flags: W
HStem: -20 224<573.916 878.458> 1095 20G<682 932.5> 1176 355<683.935 917.879>
VStem: 150 299<328.222 638.701> 623 352<1235.81 1470.73>
DStem2: 558 978 620 741 0.847858 0.530224<-280.059 172.513>
LayerCount: 2
Fore
SplineSet
975 1354 m 0,0,1
 975 1279 975 1279 926 1229 c 0,2,3
 875 1176 875 1176 799 1176 c 0,4,5
 726 1176 726 1176 674 1228 c 1,6,7
 627 1277 627 1277 623 1352 c 1,8,9
 623 1427 623 1427 675 1479 c 128,-1,10
 727 1531 727 1531 799 1531 c 0,11,12
 875 1531 875 1531 926 1478 c 0,13,14
 975 1428 975 1428 975 1354 c 0,0,1
1341 412 m 1,15,-1
 1305 346 l 2,16,17
 1288 314 1288 314 1255 270 c 0,18,19
 1132 107 1132 107 977 40 c 0,20,21
 839 -20 839 -20 706 -20 c 2,22,-1
 702 -20 l 1,23,24
 568 -19 568 -19 472 25 c 0,25,26
 363 75 363 75 295 146 c 0,27,28
 230 213 230 213 192 301 c 0,29,30
 150 398 150 398 150 492 c 0,31,32
 150 592 150 592 190 674 c 0,33,34
 240 779 240 779 339 841 c 0,35,36
 481 931 481 931 558 978 c 0,37,38
 650 1034 650 1034 678 1053 c 0,39,40
 694 1064 694 1064 697.5 1081 c 128,-1,41
 701 1098 701 1098 684 1113 c 1,42,-1
 682 1115 l 1,43,-1
 925 1115 l 1,44,45
 940 1081 940 1081 940 1057 c 2,46,-1
 940 1054 l 1,47,48
 940 1053 940 1053 940 1052 c 0,49,50
 940 953 940 953 830 880 c 0,51,52
 624 743 624 743 620 741 c 0,53,54
 512 680 512 680 475 611 c 0,55,56
 449 563 449 563 449 489 c 2,57,-1
 449 483 l 2,58,59
 449 409 449 409 484 344 c 0,60,61
 514 287 514 287 583 241 c 0,62,63
 638 204 638 204 723 204 c 2,64,-1
 731 204 l 2,65,66
 800 204 800 204 855 234 c 0,67,68
 976 300 976 300 1034 410 c 0,69,70
 1064 467 1064 467 1085 527 c 2,71,-1
 1092 547 l 1,72,-1
 1341 412 l 1,15,-1
EndSplineSet
Validated: 1
EndChar

StartChar: Agrave
Encoding: 192 192 130
Width: 1687
GlyphClass: 2
Flags: W
HStem: 0 21G<5 294.505 1330.96 1682> 646 250<705 935> 1491 20G<706.589 985.345>
VStem: 5 280<0 280> 1340 342<0 342>
DStem2: 5 0 285 0 0.425768 0.904832<119.215 834.448 1108.77 1388.46> 728 2001 553 1824 0.713207 -0.700953<0 403.732>
LayerCount: 2
Fore
SplineSet
935 896 m 1,0,-1
 820 1151 l 1,1,-1
 705 896 l 1,2,-1
 935 896 l 1,0,-1
5 0 m 9,3,-1
 716 1511 l 17,4,-1
 976 1511 l 1,5,-1
 1682 0 l 9,6,-1
 1340 0 l 17,7,-1
 1048 646 l 1,8,-1
 592 646 l 1,9,-1
 285 0 l 1,10,-1
 5 0 l 9,3,-1
841 1540 m 1,11,-1
 553 1824 l 1,12,-1
 728 2001 l 1,13,-1
 1019 1715 l 1,14,-1
 841 1540 l 1,11,-1
EndSplineSet
Validated: 19457
EndChar

StartChar: Aacute
Encoding: 193 193 131
Width: 1687
GlyphClass: 2
Flags: W
HStem: 0 21G<5 294.505 1330.96 1682> 646 250<705 935> 1491 20G<706.589 985.345>
VStem: 5 280<0 280> 1340 342<0 342>
DStem2: 5 0 285 0 0.425768 0.904832<119.215 834.448 1108.77 1388.46> 666 1715 844 1540 0.713207 0.700953<4.28415 408.016>
LayerCount: 2
Fore
SplineSet
935 896 m 1,0,-1
 820 1151 l 1,1,-1
 705 896 l 1,2,-1
 935 896 l 1,0,-1
5 0 m 9,3,-1
 716 1511 l 17,4,-1
 976 1511 l 1,5,-1
 1682 0 l 9,6,-1
 1340 0 l 17,7,-1
 1048 646 l 1,8,-1
 592 646 l 1,9,-1
 285 0 l 1,10,-1
 5 0 l 9,3,-1
844 1540 m 1,11,-1
 666 1715 l 1,12,-1
 957 2001 l 1,13,-1
 1132 1824 l 1,14,-1
 844 1540 l 1,11,-1
EndSplineSet
Validated: 19457
EndChar

StartChar: Acircumflex
Encoding: 194 194 132
Width: 1687
GlyphClass: 2
Flags: W
HStem: 0 21G<5 294.505 1330.96 1682> 646 250<705 935> 1491 20G<706.589 985.345>
VStem: 5 280<0 280> 1340 342<0 342>
DStem2: 5 0 285 0 0.425768 0.904832<119.215 834.448 1108.77 1388.46>
LayerCount: 2
Fore
SplineSet
935 896 m 1,0,-1
 820 1151 l 1,1,-1
 705 896 l 1,2,-1
 935 896 l 1,0,-1
5 0 m 9,3,-1
 716 1511 l 17,4,-1
 976 1511 l 1,5,-1
 1682 0 l 9,6,-1
 1340 0 l 17,7,-1
 1048 646 l 1,8,-1
 592 646 l 1,9,-1
 285 0 l 1,10,-1
 5 0 l 9,3,-1
835 1690 m 1,11,-1
 678 1547 l 1,12,-1
 503 1724 l 1,13,-1
 833 2001 l 1,14,-1
 1177 1719 l 1,15,-1
 1002 1547 l 1,16,-1
 835 1690 l 1,11,-1
EndSplineSet
Validated: 19457
EndChar

StartChar: Atilde
Encoding: 195 195 133
Width: 1687
GlyphClass: 2
Flags: W
HStem: 0 21G<5 294.505 1330.96 1682> 646 250<705 935> 1491 20G<706.589 985.345>
VStem: 5 280<0 280> 1340 342<0 342>
DStem2: 5 0 285 0 0.425768 0.904832<119.215 834.448 1108.77 1388.46>
LayerCount: 2
Fore
SplineSet
935 896 m 1,0,-1
 820 1151 l 1,1,-1
 705 896 l 1,2,-1
 935 896 l 1,0,-1
5 0 m 9,3,-1
 716 1511 l 17,4,-1
 976 1511 l 1,5,-1
 1682 0 l 9,6,-1
 1340 0 l 17,7,-1
 1048 646 l 1,8,-1
 592 646 l 1,9,-1
 285 0 l 1,10,-1
 5 0 l 9,3,-1
632 1606 m 1,11,-1
 470 1717 l 1,12,13
 528 1917 528 1917 650 1972 c 0,14,15
 683 1987 683 1987 729 1987 c 0,16,17
 732 1987 732 1987 735 1987 c 0,18,19
 763 1988 763 1988 795 1977 c 0,20,21
 838 1962 838 1962 864 1937 c 9,22,-1
 964 1843 l 1,23,24
 971 1838 971 1838 978 1838 c 0,25,26
 1015 1839 1015 1839 1044 1977 c 1,27,-1
 1217 1880 l 1,28,29
 1185 1711 1185 1711 1060 1615 c 0,30,31
 1015 1580 1015 1580 941 1580 c 0,32,33
 898 1580 898 1580 858 1600 c 0,34,35
 838 1610 838 1610 803 1645 c 1,36,-1
 716 1736 l 1,37,38
 709 1743 709 1743 700 1742 c 0,39,40
 667 1740 667 1740 632 1606 c 1,11,-1
EndSplineSet
Validated: 19457
EndChar

StartChar: Adieresis
Encoding: 196 196 134
Width: 1687
GlyphClass: 2
Flags: W
HStem: 0 21G<5 294.505 1330.96 1682> 646 250<705 935> 1491 20G<706.589 985.345> 1615 355<514.115 747.753 924.109 1156.75>
VStem: 5 280<0 280> 456 352<1675.27 1908.9> 865 352<1675.27 1910.05> 1340 342<0 342>
DStem2: 5 0 285 0 0.425768 0.904832<119.215 834.448 1108.77 1388.46>
LayerCount: 2
Fore
SplineSet
935 896 m 1,0,-1
 820 1151 l 1,1,-1
 705 896 l 1,2,-1
 935 896 l 1,0,-1
5 0 m 9,3,-1
 716 1511 l 17,4,-1
 976 1511 l 1,5,-1
 1682 0 l 9,6,-1
 1340 0 l 17,7,-1
 1048 646 l 1,8,-1
 592 646 l 1,9,-1
 285 0 l 1,10,-1
 5 0 l 9,3,-1
865 1793 m 0,11,12
 865 1865 865 1865 916 1917 c 0,13,14
 967 1970 967 1970 1041 1970 c 0,15,16
 1113 1970 1113 1970 1165 1918 c 0,17,18
 1214 1868 1214 1868 1217 1795 c 1,19,20
 1217 1719 1217 1719 1165 1667 c 128,-1,21
 1113 1615 1113 1615 1041 1615 c 0,22,23
 967 1615 967 1615 916 1668 c 0,24,25
 865 1720 865 1720 865 1793 c 0,11,12
456 1793 m 0,26,27
 456 1866 456 1866 506 1917 c 0,28,29
 557 1970 557 1970 632 1970 c 0,30,31
 704 1970 704 1970 756 1918 c 0,32,33
 805 1868 805 1868 808 1795 c 1,34,35
 808 1719 808 1719 756 1667 c 128,-1,36
 704 1615 704 1615 632 1615 c 0,37,38
 557 1615 557 1615 506 1668 c 0,39,40
 456 1719 456 1719 456 1793 c 0,26,27
EndSplineSet
Validated: 19457
EndChar

StartChar: Aring
Encoding: 197 197 135
Width: 1687
GlyphClass: 2
Flags: W
HStem: 0 21G<5 294.505 1330.96 1682> 646 250<705 935> 1491 20G<706.589 985.345> 1526 164<806.766 870.22>
VStem: 5 280<0 280> 595 210<1689.63 1817.72> 917 209<1702.26 1828.14> 1340 342<0 342>
DStem2: 5 0 285 0 0.425768 0.904832<119.215 834.448 1108.77 1388.46>
LayerCount: 2
Fore
SplineSet
935 896 m 1,0,-1
 820 1151 l 1,1,-1
 705 896 l 1,2,-1
 935 896 l 1,0,-1
5 0 m 9,3,-1
 716 1511 l 17,4,-1
 976 1511 l 1,5,-1
 1682 0 l 9,6,-1
 1340 0 l 17,7,-1
 1048 646 l 1,8,-1
 592 646 l 1,9,-1
 285 0 l 1,10,-1
 5 0 l 9,3,-1
819 1526 m 0,11,12
 753 1526 753 1526 703 1554 c 1,13,14
 641 1591 641 1591 614 1648 c 0,15,16
 595 1690 595 1690 595 1734 c 0,17,18
 595 1772 595 1772 612 1815 c 0,19,20
 629 1859 629 1859 675 1912 c 1,21,22
 692 1930 692 1930 720 1950 c 0,23,24
 794 2001 794 2001 887 2001 c 2,25,-1
 889 2001 l 2,26,27
 962 2001 962 2001 1018 1967 c 0,28,29
 1080 1930 1080 1930 1106 1876 c 1,30,31
 1126 1832 1126 1832 1126 1784 c 0,32,33
 1126 1750 1126 1750 1110 1709 c 0,34,35
 1090 1657 1090 1657 1044 1607 c 0,36,37
 1032 1594 1032 1594 1001 1574 c 0,38,39
 928 1527 928 1527 819 1526 c 0,11,12
828 1794 m 0,40,41
 805 1755 805 1755 805 1728 c 0,42,43
 805 1722 805 1722 806 1718 c 0,44,45
 812 1693 812 1693 825 1690 c 0,46,47
 846 1684 846 1684 871 1701 c 0,48,49
 917 1733 917 1733 917 1795 c 0,50,51
 917 1818 917 1818 901 1827 c 0,52,53
 884 1835 884 1835 866 1827 c 0,54,55
 841 1816 841 1816 828 1794 c 0,40,41
EndSplineSet
Validated: 19457
EndChar

StartChar: AE
Encoding: 198 198 136
Width: 2731
GlyphClass: 2
Flags: W
HStem: -20 223<1658.72 2066.79> 646 250<705 935 1470 2256> 1099 21G<2389.71 2438.31> 1307 224<1825.02 2231.89> 1491 20G<706.589 985.331>
VStem: 5 280<0 280>
DStem2: 5 0 285 0 0.425768 0.904832<119.215 834.448 1108.77 1388.46>
LayerCount: 2
Fore
SplineSet
5 0 m 1,0,-1
 716 1511 l 1,1,-1
 976 1511 l 1,2,-1
 1213 1003 l 1,3,4
 1258 1096 1258 1096 1331 1183 c 0,5,6
 1495 1379 1495 1379 1698 1459 c 0,7,8
 1881 1531 1881 1531 2056 1531 c 2,9,-1
 2060 1531 l 1,10,11
 2234 1530 2234 1530 2362 1470 c 1,12,13
 2495 1406 2495 1406 2585 1312 c 2,14,-1
 2651 1243 l 1,15,-1
 2404 1099 l 1,16,-1
 2364 1155 l 1,17,18
 2330 1206 2330 1206 2261 1248 c 0,19,20
 2163 1307 2163 1307 2044 1307 c 2,21,-1
 2025 1307 l 2,22,23
 1926 1307 1926 1307 1825 1264 c 0,24,25
 1653 1190 1653 1190 1539 1042 c 1,26,27
 1498 987 1498 987 1470 896 c 1,28,-1
 2256 896 l 1,29,-1
 2256 646 l 1,30,-1
 1441 646 l 1,31,32
 1442 629 1442 629 1444 612 c 0,33,34
 1456 486 1456 486 1496 407 c 1,35,36
 1551 302 1551 302 1642 254 c 0,37,38
 1739 203 1739 203 1865 203 c 2,39,-1
 1882 203 l 2,40,41
 1987 203 1987 203 2104 265 c 0,42,43
 2243 339 2243 339 2365 502 c 1,44,-1
 2408 563 l 1,45,-1
 2620 407 l 1,46,-1
 2575 347 l 2,47,48
 2444 173 2444 173 2223 61 c 0,49,50
 2062 -20 2062 -20 1877 -20 c 2,51,-1
 1856 -20 l 2,52,53
 1755 -20 1755 -20 1669 0 c 1,54,-1
 1340 0 l 1,55,-1
 1048 646 l 1,56,-1
 592 646 l 1,57,-1
 285 0 l 1,58,-1
 5 0 l 1,0,-1
935 896 m 1,59,-1
 820 1151 l 1,60,-1
 705 896 l 1,61,-1
 935 896 l 1,59,-1
EndSplineSet
Validated: 19457
EndChar

StartChar: Ccedilla
Encoding: 199 199 137
Width: 1692
GlyphClass: 2
Flags: W
HStem: -410 21G<782.382 813> 1099 21G<1350.71 1399.31> 1307 224<791.39 1196.92>
VStem: 100 301<439.708 925.556> 711 285<-134.052 -7.646>
DStem2: 1326 502 1536 347 0.593649 0.804724<-273.996 74.6151>
LayerCount: 2
Fore
SplineSet
1581 408 m 1,0,-1
 1536 347 l 1,1,2
 1397 166 1397 166 1189 61 c 0,3,4
 1096 14 1096 14 994 -5 c 1,5,6
 996 -27 996 -27 996 -49 c 2,7,-1
 996 -52 l 2,8,9
 996 -179 996 -179 910 -294 c 1,10,11
 864 -353 864 -353 813 -402 c 1,12,-1
 806 -410 l 1,13,-1
 571 -211 l 1,14,-1
 579 -205 l 1,15,16
 711 -124 711 -124 711 -29 c 2,17,-1
 711 -26 l 2,18,19
 711 -20 711 -20 711 -14 c 1,20,21
 605 -1 605 -1 517 38 c 0,22,23
 364 106 364 106 284 191 c 0,24,25
 191 290 191 290 147 400 c 0,26,27
 109 495 109 495 102 617 c 0,28,29
 100 655 100 655 100 676 c 0,30,31
 101 758 101 758 117 832 c 0,32,33
 155 1016 155 1016 292 1180 c 0,34,35
 454 1374 454 1374 658 1456 c 0,36,37
 847 1531 847 1531 1017 1531 c 2,38,-1
 1021 1531 l 1,39,40
 1195 1530 1195 1530 1323 1470 c 1,41,42
 1456 1406 1456 1406 1546 1312 c 2,43,-1
 1612 1243 l 1,44,-1
 1365 1099 l 1,45,-1
 1325 1155 l 1,46,47
 1289 1199 1289 1199 1222 1248 c 1,48,49
 1136 1307 1136 1307 1005 1307 c 2,50,-1
 986 1307 l 2,51,52
 889 1307 889 1307 786 1262 c 0,53,54
 614 1187 614 1187 500 1034 c 0,55,56
 443 957 443 957 410 799 c 0,57,58
 401 759 401 759 401 701 c 0,59,60
 401 666 401 666 405 620 c 0,61,62
 416 494 416 494 458 411 c 0,63,64
 508 312 508 312 606 259 c 0,65,66
 711 203 711 203 826 203 c 2,67,-1
 843 203 l 2,68,69
 940 203 940 203 1053 259 c 0,70,71
 1190 328 1190 328 1326 502 c 1,72,-1
 1369 563 l 1,73,-1
 1581 408 l 1,0,-1
EndSplineSet
Validated: 1
EndChar

StartChar: Egrave
Encoding: 200 200 138
Width: 1692
GlyphClass: 2
Flags: W
HStem: -20 223<618.797 1028.29> 646 250<431 1217> 1099 21G<1350.71 1399.31> 1307 224<786.02 1192.89>
VStem: 100 302<430.718 646>
DStem2: 907 2001 732 1824 0.713207 -0.700953<0 403.732> 1326 502 1536 347 0.6 0.8<-276.005 74.6>
LayerCount: 2
Fore
SplineSet
1020 1540 m 1,0,-1
 732 1824 l 1,1,-1
 907 2001 l 1,2,-1
 1198 1715 l 1,3,-1
 1020 1540 l 1,0,-1
1581 407 m 1,4,-1
 1536 347 l 2,5,6
 1405 172 1405 172 1184 61 c 0,7,8
 1024 -20 1024 -20 838 -20 c 2,9,-1
 817 -20 l 2,10,11
 645 -20 645 -20 516 38 c 1,12,13
 364 108 364 108 284 190 c 0,14,15
 191 286 191 286 148 398 c 1,16,17
 110 490 110 490 102 619 c 0,18,19
 100 655 100 655 100 678 c 0,20,21
 101 761 101 761 117 835 c 0,22,23
 156 1021 156 1021 292 1183 c 0,24,25
 456 1380 456 1380 659 1459 c 1,26,27
 841 1531 841 1531 1017 1531 c 2,28,-1
 1021 1531 l 1,29,30
 1195 1530 1195 1530 1323 1470 c 1,31,32
 1456 1406 1456 1406 1546 1312 c 2,33,-1
 1612 1243 l 1,34,-1
 1365 1099 l 1,35,-1
 1325 1155 l 1,36,37
 1291 1206 1291 1206 1222 1248 c 0,38,39
 1124 1307 1124 1307 1005 1307 c 2,40,-1
 986 1307 l 2,41,42
 887 1307 887 1307 786 1264 c 0,43,44
 614 1190 614 1190 500 1042 c 1,45,46
 459 987 459 987 431 896 c 1,47,-1
 1217 896 l 1,48,-1
 1217 646 l 1,49,-1
 402 646 l 1,50,51
 403 629 403 629 405 612 c 0,52,53
 417 486 417 486 457 407 c 1,54,55
 512 302 512 302 603 254 c 0,56,57
 700 203 700 203 826 203 c 2,58,-1
 843 203 l 2,59,60
 948 203 948 203 1065 265 c 0,61,62
 1204 339 1204 339 1326 502 c 1,63,-1
 1369 563 l 1,64,-1
 1581 407 l 1,4,-1
EndSplineSet
Validated: 1
EndChar

StartChar: Eacute
Encoding: 201 201 139
Width: 1692
GlyphClass: 2
Flags: W
HStem: -20 223<618.797 1028.29> 646 250<431 1217> 1099 21G<1350.71 1399.31> 1307 224<786.02 1192.89>
VStem: 100 302<430.718 646>
DStem2: 841 1715 1019 1540 0.713207 0.700953<4.28415 408.016> 1326 502 1536 347 0.6 0.8<-276.005 74.6>
LayerCount: 2
Fore
SplineSet
1019 1540 m 1,0,-1
 841 1715 l 1,1,-1
 1132 2001 l 1,2,-1
 1307 1824 l 1,3,-1
 1019 1540 l 1,0,-1
1581 407 m 1,4,-1
 1536 347 l 2,5,6
 1405 172 1405 172 1184 61 c 0,7,8
 1024 -20 1024 -20 838 -20 c 2,9,-1
 817 -20 l 2,10,11
 645 -20 645 -20 516 38 c 1,12,13
 364 108 364 108 284 190 c 0,14,15
 191 286 191 286 148 398 c 1,16,17
 110 490 110 490 102 619 c 0,18,19
 100 655 100 655 100 678 c 0,20,21
 101 761 101 761 117 835 c 0,22,23
 156 1021 156 1021 292 1183 c 0,24,25
 456 1380 456 1380 659 1459 c 1,26,27
 841 1531 841 1531 1017 1531 c 2,28,-1
 1021 1531 l 1,29,30
 1195 1530 1195 1530 1323 1470 c 1,31,32
 1456 1406 1456 1406 1546 1312 c 2,33,-1
 1612 1243 l 1,34,-1
 1365 1099 l 1,35,-1
 1325 1155 l 1,36,37
 1291 1206 1291 1206 1222 1248 c 0,38,39
 1124 1307 1124 1307 1005 1307 c 2,40,-1
 986 1307 l 2,41,42
 887 1307 887 1307 786 1264 c 0,43,44
 614 1190 614 1190 500 1042 c 1,45,46
 459 987 459 987 431 896 c 1,47,-1
 1217 896 l 1,48,-1
 1217 646 l 1,49,-1
 402 646 l 1,50,51
 403 629 403 629 405 612 c 0,52,53
 417 486 417 486 457 407 c 1,54,55
 512 302 512 302 603 254 c 0,56,57
 700 203 700 203 826 203 c 2,58,-1
 843 203 l 2,59,60
 948 203 948 203 1065 265 c 0,61,62
 1204 339 1204 339 1326 502 c 1,63,-1
 1369 563 l 1,64,-1
 1581 407 l 1,4,-1
EndSplineSet
Validated: 1
EndChar

StartChar: Ecircumflex
Encoding: 202 202 140
Width: 1692
GlyphClass: 2
Flags: W
HStem: -20 223<618.797 1028.29> 646 250<431 1217> 1099 21G<1350.71 1399.31> 1307 224<786.02 1192.89>
VStem: 100 302<430.718 646>
DStem2: 1326 502 1536 347 0.6 0.8<-276.005 74.6>
LayerCount: 2
Fore
SplineSet
1017 1690 m 1,0,-1
 860 1547 l 1,1,-1
 685 1724 l 1,2,-1
 1015 2001 l 1,3,-1
 1359 1719 l 1,4,-1
 1184 1547 l 1,5,-1
 1017 1690 l 1,0,-1
1581 407 m 1,6,-1
 1536 347 l 2,7,8
 1405 172 1405 172 1184 61 c 0,9,10
 1024 -20 1024 -20 838 -20 c 2,11,-1
 817 -20 l 2,12,13
 645 -20 645 -20 516 38 c 1,14,15
 364 108 364 108 284 190 c 0,16,17
 191 286 191 286 148 398 c 1,18,19
 110 490 110 490 102 619 c 0,20,21
 100 655 100 655 100 678 c 0,22,23
 101 761 101 761 117 835 c 0,24,25
 156 1021 156 1021 292 1183 c 0,26,27
 456 1380 456 1380 659 1459 c 1,28,29
 841 1531 841 1531 1017 1531 c 2,30,-1
 1021 1531 l 1,31,32
 1195 1530 1195 1530 1323 1470 c 1,33,34
 1456 1406 1456 1406 1546 1312 c 2,35,-1
 1612 1243 l 1,36,-1
 1365 1099 l 1,37,-1
 1325 1155 l 1,38,39
 1291 1206 1291 1206 1222 1248 c 0,40,41
 1124 1307 1124 1307 1005 1307 c 2,42,-1
 986 1307 l 2,43,44
 887 1307 887 1307 786 1264 c 0,45,46
 614 1190 614 1190 500 1042 c 1,47,48
 459 987 459 987 431 896 c 1,49,-1
 1217 896 l 1,50,-1
 1217 646 l 1,51,-1
 402 646 l 1,52,53
 403 629 403 629 405 612 c 0,54,55
 417 486 417 486 457 407 c 1,56,57
 512 302 512 302 603 254 c 0,58,59
 700 203 700 203 826 203 c 2,60,-1
 843 203 l 2,61,62
 948 203 948 203 1065 265 c 0,63,64
 1204 339 1204 339 1326 502 c 1,65,-1
 1369 563 l 1,66,-1
 1581 407 l 1,6,-1
EndSplineSet
Validated: 1
EndChar

StartChar: Edieresis
Encoding: 203 203 141
Width: 1692
GlyphClass: 2
Flags: W
HStem: -20 223<618.797 1028.29> 646 250<431 1217> 1099 21G<1350.71 1399.31> 1307 224<786.02 1192.89> 1615 355<696.115 929.753 1106.11 1338.75>
VStem: 100 302<430.718 646> 638 352<1675.27 1908.9> 1047 352<1675.27 1910.05>
DStem2: 1326 502 1536 347 0.6 0.8<-276.005 74.6>
LayerCount: 2
Fore
SplineSet
1047 1793 m 0,0,1
 1047 1865 1047 1865 1098 1917 c 0,2,3
 1149 1970 1149 1970 1223 1970 c 0,4,5
 1295 1970 1295 1970 1347 1918 c 0,6,7
 1396 1868 1396 1868 1399 1795 c 1,8,9
 1399 1719 1399 1719 1347 1667 c 128,-1,10
 1295 1615 1295 1615 1223 1615 c 0,11,12
 1149 1615 1149 1615 1098 1668 c 0,13,14
 1047 1720 1047 1720 1047 1793 c 0,0,1
638 1793 m 0,15,16
 638 1866 638 1866 688 1917 c 0,17,18
 739 1970 739 1970 814 1970 c 0,19,20
 886 1970 886 1970 938 1918 c 0,21,22
 987 1868 987 1868 990 1795 c 1,23,24
 990 1719 990 1719 938 1667 c 128,-1,25
 886 1615 886 1615 814 1615 c 0,26,27
 739 1615 739 1615 688 1668 c 0,28,29
 638 1719 638 1719 638 1793 c 0,15,16
1581 407 m 1,30,-1
 1536 347 l 2,31,32
 1405 172 1405 172 1184 61 c 0,33,34
 1024 -20 1024 -20 838 -20 c 2,35,-1
 817 -20 l 2,36,37
 645 -20 645 -20 516 38 c 1,38,39
 364 108 364 108 284 190 c 0,40,41
 191 286 191 286 148 398 c 1,42,43
 110 490 110 490 102 619 c 0,44,45
 100 655 100 655 100 678 c 0,46,47
 101 761 101 761 117 835 c 0,48,49
 156 1021 156 1021 292 1183 c 0,50,51
 456 1380 456 1380 659 1459 c 1,52,53
 841 1531 841 1531 1017 1531 c 2,54,-1
 1021 1531 l 1,55,56
 1195 1530 1195 1530 1323 1470 c 1,57,58
 1456 1406 1456 1406 1546 1312 c 2,59,-1
 1612 1243 l 1,60,-1
 1365 1099 l 1,61,-1
 1325 1155 l 1,62,63
 1291 1206 1291 1206 1222 1248 c 0,64,65
 1124 1307 1124 1307 1005 1307 c 2,66,-1
 986 1307 l 2,67,68
 887 1307 887 1307 786 1264 c 0,69,70
 614 1190 614 1190 500 1042 c 1,71,72
 459 987 459 987 431 896 c 1,73,-1
 1217 896 l 1,74,-1
 1217 646 l 1,75,-1
 402 646 l 1,76,77
 403 629 403 629 405 612 c 0,78,79
 417 486 417 486 457 407 c 1,80,81
 512 302 512 302 603 254 c 0,82,83
 700 203 700 203 826 203 c 2,84,-1
 843 203 l 2,85,86
 948 203 948 203 1065 265 c 0,87,88
 1204 339 1204 339 1326 502 c 1,89,-1
 1369 563 l 1,90,-1
 1581 407 l 1,30,-1
EndSplineSet
Validated: 1
EndChar

StartChar: Igrave
Encoding: 204 204 142
Width: 700
GlyphClass: 2
Flags: W
HStem: 0 21G<200 500> 1506 5<40 43.9824> 1511 0
VStem: 200 300<0 1405.79>
DStem2: 241 2001 66 1824 0.713207 -0.700953<0 403.732>
LayerCount: 2
Fore
SplineSet
200 0 m 1,0,-1
 200 1292 l 2,1,2
 200 1348 200 1348 150 1414 c 24,3,4
 104 1474 104 1474 40 1506 c 2,5,-1
 30 1511 l 1,6,-1
 370 1511 l 1,7,-1
 388 1499 l 2,8,9
 447 1460 447 1460 472 1410 c 0,10,11
 500 1355 500 1355 500 1293 c 2,12,-1
 500 -0 l 1,13,-1
 200 0 l 1,0,-1
354 1540 m 1,14,-1
 66 1824 l 1,15,-1
 241 2001 l 1,16,-1
 532 1715 l 1,17,-1
 354 1540 l 1,14,-1
EndSplineSet
Validated: 1
EndChar

StartChar: Iacute
Encoding: 205 205 143
Width: 700
GlyphClass: 2
Flags: W
HStem: 0 21G<200 500> 1506 5<40 43.9824> 1511 0
VStem: 200 300<0 1405.79>
DStem2: 178 1715 356 1540 0.713207 0.700953<4.28415 408.016>
LayerCount: 2
Fore
SplineSet
200 0 m 1,0,-1
 200 1292 l 2,1,2
 200 1348 200 1348 150 1414 c 24,3,4
 104 1474 104 1474 40 1506 c 2,5,-1
 30 1511 l 1,6,-1
 370 1511 l 1,7,-1
 388 1499 l 2,8,9
 447 1460 447 1460 472 1410 c 0,10,11
 500 1355 500 1355 500 1293 c 2,12,-1
 500 -0 l 1,13,-1
 200 0 l 1,0,-1
356 1540 m 1,14,-1
 178 1715 l 1,15,-1
 469 2001 l 1,16,-1
 644 1824 l 1,17,-1
 356 1540 l 1,14,-1
EndSplineSet
Validated: 1
EndChar

StartChar: Icircumflex
Encoding: 206 206 144
Width: 700
GlyphClass: 2
Flags: W
HStem: 0 21G<200 500> 1506 5<40 43.9824> 1511 0
VStem: 200 300<0 1405.79>
LayerCount: 2
Fore
SplineSet
200 0 m 1,0,-1
 200 1292 l 2,1,2
 200 1348 200 1348 150 1414 c 24,3,4
 104 1474 104 1474 40 1506 c 2,5,-1
 30 1511 l 1,6,-1
 370 1511 l 1,7,-1
 388 1499 l 2,8,9
 447 1460 447 1460 472 1410 c 0,10,11
 500 1355 500 1355 500 1293 c 2,12,-1
 500 -0 l 1,13,-1
 200 0 l 1,0,-1
347 1690 m 1,14,-1
 190 1547 l 1,15,-1
 15 1724 l 1,16,-1
 345 2001 l 1,17,-1
 689 1719 l 1,18,-1
 514 1547 l 1,19,-1
 347 1690 l 1,14,-1
EndSplineSet
Validated: 1
EndChar

StartChar: Idieresis
Encoding: 207 207 145
Width: 761
GlyphClass: 2
Flags: W
HStem: 0 21G<230 530> 1506 5<70 73.9824> 1511 0 1615 355<58.1152 291.753 468.109 700.753>
VStem: 0 352<1675.27 1908.9> 230 300<0 1405.79> 409 352<1675.27 1910.05>
LayerCount: 2
Fore
SplineSet
230 0 m 1,0,-1
 230 1292 l 2,1,2
 230 1348 230 1348 180 1414 c 24,3,4
 134 1474 134 1474 70 1506 c 2,5,-1
 60 1511 l 1,6,-1
 400 1511 l 1,7,-1
 418 1499 l 2,8,9
 477 1460 477 1460 502 1410 c 0,10,11
 530 1355 530 1355 530 1293 c 2,12,-1
 530 0 l 1,13,-1
 230 0 l 1,0,-1
409 1793 m 0,14,15
 409 1865 409 1865 460 1917 c 0,16,17
 511 1970 511 1970 585 1970 c 0,18,19
 657 1970 657 1970 709 1918 c 0,20,21
 758 1868 758 1868 761 1795 c 1,22,23
 761 1719 761 1719 709 1667 c 128,-1,24
 657 1615 657 1615 585 1615 c 0,25,26
 511 1615 511 1615 460 1668 c 0,27,28
 409 1720 409 1720 409 1793 c 0,14,15
0 1793 m 0,29,30
 0 1866 0 1866 50 1917 c 0,31,32
 101 1970 101 1970 176 1970 c 0,33,34
 248 1970 248 1970 300 1918 c 0,35,36
 349 1868 349 1868 352 1795 c 1,37,38
 352 1719 352 1719 300 1667 c 128,-1,39
 248 1615 248 1615 176 1615 c 0,40,41
 101 1615 101 1615 50 1668 c 0,42,43
 0 1719 0 1719 0 1793 c 0,29,30
EndSplineSet
Validated: 1
EndChar

StartChar: Eth
Encoding: 208 208 146
Width: 1742
GlyphClass: 2
Flags: W
HStem: -20 210<642 921.229> 0 21G<200 500> 631 250<100 200 500 1083> 1307 224<691.601 1110.55> 1506 5<40 43.9824> 1511 0
VStem: 200 300<0 631 881 1129.95> 1339 303<599.742 1071.69>
LayerCount: 2
Fore
SplineSet
200 0 m 1,0,-1
 200 631 l 1,1,-1
 100 631 l 1,2,-1
 100 881 l 1,3,-1
 200 881 l 1,4,-1
 200 1292 l 2,5,6
 200 1348 200 1348 150 1414 c 0,7,8
 104 1474 104 1474 40 1506 c 2,9,-1
 30 1511 l 1,10,-1
 370 1511 l 1,11,-1
 388 1499 l 2,12,13
 439 1465 439 1465 472 1410 c 0,14,15
 475 1405 475 1405 477 1400 c 1,16,17
 517 1429 517 1429 555 1449 c 0,18,19
 711 1531 711 1531 919 1531 c 2,20,-1
 924 1531 l 1,21,22
 1101 1530 1101 1530 1227 1472 c 0,23,24
 1371 1406 1371 1406 1458 1320 c 1,25,26
 1549 1223 1549 1223 1588 1122 c 0,27,28
 1632 1007 1632 1007 1640 892 c 0,29,30
 1642 855 1642 855 1642 836 c 0,31,32
 1641 753 1641 753 1624 675 c 0,33,34
 1586 503 1586 503 1452 330 c 1,35,36
 1318 159 1318 159 1086 53 c 0,37,38
 928 -19 928 -19 781 -20 c 0,39,40
 693 -20 693 -20 618 43 c 0,41,42
 575 79 575 79 553 130 c 0,43,44
 540 160 540 160 535 186 c 2,45,-1
 528 225 l 1,46,-1
 567 214 l 2,47,48
 645 192 645 192 711 190 c 1,49,-1
 725 190 l 2,50,51
 737 190 737 190 749 191 c 0,52,53
 809 197 809 197 846 207 c 0,54,55
 920 229 920 229 980 263 c 0,56,57
 1141 355 1141 355 1224 471 c 0,58,59
 1300 577 1300 577 1330 713 c 0,60,61
 1339 754 1339 754 1339 814 c 0,62,63
 1339 847 1339 847 1335 890 c 0,64,65
 1322 1026 1322 1026 1282 1099 c 0,66,67
 1228 1196 1228 1196 1125 1255 c 0,68,69
 1034 1307 1034 1307 905 1307 c 2,70,-1
 889 1307 l 2,71,72
 777 1307 777 1307 694 1264 c 0,73,74
 617 1224 617 1224 570 1165 c 0,75,76
 500 1077 500 1077 500 1006 c 2,77,-1
 500 881 l 1,78,-1
 1083 881 l 1,79,-1
 1083 631 l 1,80,-1
 500 631 l 1,81,-1
 500 -0 l 1,82,-1
 200 0 l 1,0,-1
EndSplineSet
Validated: 1
EndChar

StartChar: Ntilde
Encoding: 209 209 147
Width: 1679
GlyphClass: 2
Flags: W
HStem: 0 21G<200 500 899 1214.18> 1297 234<707.578 1050.76> 1506 5<40 44.043> 1511 0
VStem: 200 300<0 1111.75> 1276 303<537.586 1056.63>
LayerCount: 2
Fore
SplineSet
200 0 m 1,0,-1
 200 1292 l 2,1,2
 200 1348 200 1348 150 1414 c 0,3,4
 105 1474 105 1474 40 1506 c 2,5,-1
 30 1511 l 1,6,-1
 370 1511 l 1,7,-1
 388 1499 l 2,8,9
 447 1460 447 1460 472 1410 c 0,10,11
 479 1396 479 1396 484 1382 c 1,12,13
 552 1437 552 1437 634 1472 c 0,14,15
 773 1531 773 1531 895 1531 c 2,16,-1
 900 1531 l 2,17,18
 1048 1530 1048 1530 1173 1472 c 0,19,20
 1309 1409 1309 1409 1395 1323 c 0,21,22
 1484 1234 1484 1234 1530 1126 c 0,23,24
 1569 1033 1569 1033 1577 894 c 0,25,26
 1579 858 1579 858 1579 839 c 0,27,28
 1579 680 1579 680 1542 560 c 0,29,30
 1495 409 1495 409 1435 311 c 0,31,32
 1386 231 1386 231 1330 153 c 0,33,34
 1295 104 1295 104 1216 22 c 1,35,-1
 1196 0 l 1,36,-1
 899 0 l 1,37,-1
 955 57 l 2,38,39
 991 94 991 94 1091 237 c 0,40,41
 1149 320 1149 320 1196 426 c 0,42,43
 1241 528 1241 528 1260 620 c 0,44,45
 1276 698 1276 698 1276 808 c 0,46,47
 1276 840 1276 840 1272 884 c 0,48,49
 1260 1015 1260 1015 1213 1094 c 0,50,51
 1149 1202 1149 1202 1058 1250 c 0,52,53
 968 1297 968 1297 866 1297 c 0,54,55
 805 1297 805 1297 731 1264 c 0,56,57
 635 1221 635 1221 576 1155 c 0,58,59
 500 1070 500 1070 500 923 c 2,60,-1
 500 0 l 1,61,-1
 200 0 l 1,0,-1
719 1606 m 1,62,-1
 557 1717 l 1,63,64
 615 1917 615 1917 737 1972 c 0,65,66
 770 1987 770 1987 816 1987 c 0,67,68
 819 1987 819 1987 822 1987 c 0,69,70
 850 1988 850 1988 882 1977 c 0,71,72
 925 1962 925 1962 951 1937 c 9,73,-1
 1051 1843 l 1,74,75
 1058 1838 1058 1838 1065 1838 c 0,76,77
 1102 1839 1102 1839 1131 1977 c 1,78,-1
 1304 1880 l 1,79,80
 1272 1711 1272 1711 1147 1615 c 0,81,82
 1102 1580 1102 1580 1028 1580 c 0,83,84
 985 1580 985 1580 945 1600 c 0,85,86
 925 1610 925 1610 890 1645 c 1,87,-1
 803 1736 l 1,88,89
 796 1743 796 1743 787 1742 c 0,90,91
 754 1740 754 1740 719 1606 c 1,62,-1
EndSplineSet
Validated: 1
EndChar

StartChar: Ograve
Encoding: 210 210 148
Width: 1839
GlyphClass: 2
Flags: W
HStem: -20 223<625.168 1041.98> 1307 224<791.39 1212.24>
VStem: 100 301<437.312 922> 1436 303<586.335 1072.45>
DStem2: 907 2001 732 1824 0.713207 -0.700953<0 403.732>
LayerCount: 2
Fore
SplineSet
1020 1540 m 1,0,-1
 732 1824 l 1,1,-1
 907 2001 l 1,2,-1
 1198 1715 l 1,3,-1
 1020 1540 l 1,0,-1
1021 1531 m 1,4,5
 1196 1530 1196 1530 1324 1473 c 0,6,7
 1477 1404 1477 1404 1556 1319 c 0,8,9
 1646 1223 1646 1223 1686 1124 c 0,10,11
 1726 1026 1726 1026 1737 893 c 0,12,13
 1739 865 1739 865 1739 837 c 0,14,15
 1738 755 1738 755 1722 677 c 0,16,17
 1685 507 1685 507 1549 332 c 0,18,19
 1422 167 1422 167 1183 57 c 0,20,21
 1016 -20 1016 -20 838 -20 c 2,22,23
 838 -20 838 -20 817 -20 c 0,24,25
 647 -20 647 -20 517 38 c 0,26,27
 367 106 367 106 283 192 c 1,28,29
 190 301 190 301 153 389 c 0,30,31
 115 480 115 480 102 616 c 0,32,33
 100 642 100 642 100 675 c 0,34,35
 101 757 101 757 117 832 c 0,36,37
 154 1014 154 1014 292 1180 c 0,38,39
 451 1372 451 1372 658 1456 c 1,40,41
 847 1531 847 1531 1017 1531 c 2,42,-1
 1021 1531 l 1,4,5
843 203 m 0,43,44
 941 206 941 206 1042 246 c 0,45,46
 1220 316 1220 316 1334 477 c 0,47,48
 1404 575 1404 575 1425 709 c 0,49,50
 1436 778 1436 778 1436 816 c 0,51,52
 1436 851 1436 851 1432 890 c 0,53,54
 1419 1025 1419 1025 1379 1100 c 0,55,56
 1323 1204 1323 1204 1226 1257 c 0,57,58
 1134 1307 1134 1307 1019 1307 c 0,59,60
 1012 1307 1012 1307 1006 1307 c 256,61,62
 889 1307 889 1307 786 1262 c 0,63,64
 607 1184 607 1184 500 1034 c 0,65,66
 446 958 446 958 410 799 c 0,67,68
 401 759 401 759 401 701 c 0,69,70
 401 658 401 658 405 620 c 0,71,72
 420 477 420 477 458 411 c 0,73,74
 524 301 524 301 606 257 c 0,75,76
 691 211 691 211 824 203 c 0,77,78
 843 203 843 203 843 203 c 0,43,44
EndSplineSet
Validated: 1
EndChar

StartChar: Oacute
Encoding: 211 211 149
Width: 1839
GlyphClass: 2
Flags: W
HStem: -20 223<625.168 1041.98> 1307 224<791.39 1212.24>
VStem: 100 301<437.312 922> 1436 303<586.335 1072.45>
DStem2: 841 1715 1019 1540 0.713207 0.700953<4.28415 408.016>
LayerCount: 2
Fore
SplineSet
1019 1540 m 1,0,-1
 841 1715 l 1,1,-1
 1132 2001 l 1,2,-1
 1307 1824 l 1,3,-1
 1019 1540 l 1,0,-1
1021 1531 m 1,4,5
 1196 1530 1196 1530 1324 1473 c 0,6,7
 1477 1404 1477 1404 1556 1319 c 0,8,9
 1646 1223 1646 1223 1686 1124 c 0,10,11
 1726 1026 1726 1026 1737 893 c 0,12,13
 1739 865 1739 865 1739 837 c 0,14,15
 1738 755 1738 755 1722 677 c 0,16,17
 1685 507 1685 507 1549 332 c 0,18,19
 1422 167 1422 167 1183 57 c 0,20,21
 1016 -20 1016 -20 838 -20 c 2,22,23
 838 -20 838 -20 817 -20 c 0,24,25
 647 -20 647 -20 517 38 c 0,26,27
 367 106 367 106 283 192 c 1,28,29
 190 301 190 301 153 389 c 0,30,31
 115 480 115 480 102 616 c 0,32,33
 100 642 100 642 100 675 c 0,34,35
 101 757 101 757 117 832 c 0,36,37
 154 1014 154 1014 292 1180 c 0,38,39
 451 1372 451 1372 658 1456 c 1,40,41
 847 1531 847 1531 1017 1531 c 2,42,-1
 1021 1531 l 1,4,5
843 203 m 0,43,44
 941 206 941 206 1042 246 c 0,45,46
 1220 316 1220 316 1334 477 c 0,47,48
 1404 575 1404 575 1425 709 c 0,49,50
 1436 778 1436 778 1436 816 c 0,51,52
 1436 851 1436 851 1432 890 c 0,53,54
 1419 1025 1419 1025 1379 1100 c 0,55,56
 1323 1204 1323 1204 1226 1257 c 0,57,58
 1134 1307 1134 1307 1019 1307 c 0,59,60
 1012 1307 1012 1307 1006 1307 c 256,61,62
 889 1307 889 1307 786 1262 c 0,63,64
 607 1184 607 1184 500 1034 c 0,65,66
 446 958 446 958 410 799 c 0,67,68
 401 759 401 759 401 701 c 0,69,70
 401 658 401 658 405 620 c 0,71,72
 420 477 420 477 458 411 c 0,73,74
 524 301 524 301 606 257 c 0,75,76
 691 211 691 211 824 203 c 0,77,78
 843 203 843 203 843 203 c 0,43,44
EndSplineSet
Validated: 1
EndChar

StartChar: Ocircumflex
Encoding: 212 212 150
Width: 1839
GlyphClass: 2
Flags: W
HStem: -20 223<625.168 1041.98> 1307 224<791.39 1212.24>
VStem: 100 301<437.312 922> 1436 303<586.335 1072.45>
LayerCount: 2
Fore
SplineSet
1017 1690 m 1,0,-1
 860 1547 l 1,1,-1
 685 1724 l 1,2,-1
 1015 2001 l 1,3,-1
 1359 1719 l 1,4,-1
 1184 1547 l 1,5,-1
 1017 1690 l 1,0,-1
1021 1531 m 1,6,7
 1196 1530 1196 1530 1324 1473 c 0,8,9
 1477 1404 1477 1404 1556 1319 c 0,10,11
 1646 1223 1646 1223 1686 1124 c 0,12,13
 1726 1026 1726 1026 1737 893 c 0,14,15
 1739 865 1739 865 1739 837 c 0,16,17
 1738 755 1738 755 1722 677 c 0,18,19
 1685 507 1685 507 1549 332 c 0,20,21
 1422 167 1422 167 1183 57 c 0,22,23
 1016 -20 1016 -20 838 -20 c 2,24,25
 838 -20 838 -20 817 -20 c 0,26,27
 647 -20 647 -20 517 38 c 0,28,29
 367 106 367 106 283 192 c 1,30,31
 190 301 190 301 153 389 c 0,32,33
 115 480 115 480 102 616 c 0,34,35
 100 642 100 642 100 675 c 0,36,37
 101 757 101 757 117 832 c 0,38,39
 154 1014 154 1014 292 1180 c 0,40,41
 451 1372 451 1372 658 1456 c 1,42,43
 847 1531 847 1531 1017 1531 c 2,44,-1
 1021 1531 l 1,6,7
843 203 m 0,45,46
 941 206 941 206 1042 246 c 0,47,48
 1220 316 1220 316 1334 477 c 0,49,50
 1404 575 1404 575 1425 709 c 0,51,52
 1436 778 1436 778 1436 816 c 0,53,54
 1436 851 1436 851 1432 890 c 0,55,56
 1419 1025 1419 1025 1379 1100 c 0,57,58
 1323 1204 1323 1204 1226 1257 c 0,59,60
 1134 1307 1134 1307 1019 1307 c 0,61,62
 1012 1307 1012 1307 1006 1307 c 256,63,64
 889 1307 889 1307 786 1262 c 0,65,66
 607 1184 607 1184 500 1034 c 0,67,68
 446 958 446 958 410 799 c 0,69,70
 401 759 401 759 401 701 c 0,71,72
 401 658 401 658 405 620 c 0,73,74
 420 477 420 477 458 411 c 0,75,76
 524 301 524 301 606 257 c 0,77,78
 691 211 691 211 824 203 c 0,79,80
 843 203 843 203 843 203 c 0,45,46
EndSplineSet
Validated: 1
EndChar

StartChar: Otilde
Encoding: 213 213 151
Width: 1839
GlyphClass: 2
Flags: W
HStem: -20 223<625.168 1041.98> 1307 224<791.39 1212.24>
VStem: 100 301<437.312 922> 1436 303<586.335 1072.45>
LayerCount: 2
Fore
SplineSet
827 1606 m 1,0,-1
 665 1717 l 1,1,2
 723 1917 723 1917 845 1972 c 0,3,4
 878 1987 878 1987 924 1987 c 0,5,6
 927 1987 927 1987 930 1987 c 0,7,8
 958 1988 958 1988 990 1977 c 0,9,10
 1033 1962 1033 1962 1059 1937 c 9,11,-1
 1159 1843 l 1,12,13
 1166 1838 1166 1838 1173 1838 c 0,14,15
 1210 1839 1210 1839 1239 1977 c 1,16,-1
 1412 1880 l 1,17,18
 1380 1711 1380 1711 1255 1615 c 0,19,20
 1210 1580 1210 1580 1136 1580 c 0,21,22
 1093 1580 1093 1580 1053 1600 c 0,23,24
 1033 1610 1033 1610 998 1645 c 1,25,-1
 911 1736 l 1,26,27
 904 1743 904 1743 895 1742 c 0,28,29
 862 1740 862 1740 827 1606 c 1,0,-1
1021 1531 m 1,30,31
 1196 1530 1196 1530 1324 1473 c 0,32,33
 1477 1404 1477 1404 1556 1319 c 0,34,35
 1646 1223 1646 1223 1686 1124 c 0,36,37
 1726 1026 1726 1026 1737 893 c 0,38,39
 1739 865 1739 865 1739 837 c 0,40,41
 1738 755 1738 755 1722 677 c 0,42,43
 1685 507 1685 507 1549 332 c 0,44,45
 1422 167 1422 167 1183 57 c 0,46,47
 1016 -20 1016 -20 838 -20 c 2,48,49
 838 -20 838 -20 817 -20 c 0,50,51
 647 -20 647 -20 517 38 c 0,52,53
 367 106 367 106 283 192 c 1,54,55
 190 301 190 301 153 389 c 0,56,57
 115 480 115 480 102 616 c 0,58,59
 100 642 100 642 100 675 c 0,60,61
 101 757 101 757 117 832 c 0,62,63
 154 1014 154 1014 292 1180 c 0,64,65
 451 1372 451 1372 658 1456 c 1,66,67
 847 1531 847 1531 1017 1531 c 2,68,-1
 1021 1531 l 1,30,31
843 203 m 0,69,70
 941 206 941 206 1042 246 c 0,71,72
 1220 316 1220 316 1334 477 c 0,73,74
 1404 575 1404 575 1425 709 c 0,75,76
 1436 778 1436 778 1436 816 c 0,77,78
 1436 851 1436 851 1432 890 c 0,79,80
 1419 1025 1419 1025 1379 1100 c 0,81,82
 1323 1204 1323 1204 1226 1257 c 0,83,84
 1134 1307 1134 1307 1019 1307 c 0,85,86
 1012 1307 1012 1307 1006 1307 c 256,87,88
 889 1307 889 1307 786 1262 c 0,89,90
 607 1184 607 1184 500 1034 c 0,91,92
 446 958 446 958 410 799 c 0,93,94
 401 759 401 759 401 701 c 0,95,96
 401 658 401 658 405 620 c 0,97,98
 420 477 420 477 458 411 c 0,99,100
 524 301 524 301 606 257 c 0,101,102
 691 211 691 211 824 203 c 0,103,104
 843 203 843 203 843 203 c 0,69,70
EndSplineSet
Validated: 1
EndChar

StartChar: Odieresis
Encoding: 214 214 152
Width: 1839
GlyphClass: 2
Flags: W
HStem: -20 223<625.168 1041.98> 1307 224<791.39 1212.24> 1615 355<696.115 929.753 1106.11 1338.75>
VStem: 100 301<437.312 922> 638 352<1675.27 1908.9> 1047 352<1675.27 1910.05> 1436 303<586.335 1072.45>
LayerCount: 2
Fore
SplineSet
1047 1793 m 0,0,1
 1047 1865 1047 1865 1098 1917 c 0,2,3
 1149 1970 1149 1970 1223 1970 c 0,4,5
 1295 1970 1295 1970 1347 1918 c 0,6,7
 1396 1868 1396 1868 1399 1795 c 1,8,9
 1399 1719 1399 1719 1347 1667 c 128,-1,10
 1295 1615 1295 1615 1223 1615 c 0,11,12
 1149 1615 1149 1615 1098 1668 c 0,13,14
 1047 1720 1047 1720 1047 1793 c 0,0,1
638 1793 m 0,15,16
 638 1866 638 1866 688 1917 c 0,17,18
 739 1970 739 1970 814 1970 c 0,19,20
 886 1970 886 1970 938 1918 c 0,21,22
 987 1868 987 1868 990 1795 c 1,23,24
 990 1719 990 1719 938 1667 c 128,-1,25
 886 1615 886 1615 814 1615 c 0,26,27
 739 1615 739 1615 688 1668 c 0,28,29
 638 1719 638 1719 638 1793 c 0,15,16
1021 1531 m 1,30,31
 1196 1530 1196 1530 1324 1473 c 0,32,33
 1477 1404 1477 1404 1556 1319 c 0,34,35
 1646 1223 1646 1223 1686 1124 c 0,36,37
 1726 1026 1726 1026 1737 893 c 0,38,39
 1739 865 1739 865 1739 837 c 0,40,41
 1738 755 1738 755 1722 677 c 0,42,43
 1685 507 1685 507 1549 332 c 0,44,45
 1422 167 1422 167 1183 57 c 0,46,47
 1016 -20 1016 -20 838 -20 c 2,48,49
 838 -20 838 -20 817 -20 c 0,50,51
 647 -20 647 -20 517 38 c 0,52,53
 367 106 367 106 283 192 c 1,54,55
 190 301 190 301 153 389 c 0,56,57
 115 480 115 480 102 616 c 0,58,59
 100 642 100 642 100 675 c 0,60,61
 101 757 101 757 117 832 c 0,62,63
 154 1014 154 1014 292 1180 c 0,64,65
 451 1372 451 1372 658 1456 c 1,66,67
 847 1531 847 1531 1017 1531 c 2,68,-1
 1021 1531 l 1,30,31
843 203 m 0,69,70
 941 206 941 206 1042 246 c 0,71,72
 1220 316 1220 316 1334 477 c 0,73,74
 1404 575 1404 575 1425 709 c 0,75,76
 1436 778 1436 778 1436 816 c 0,77,78
 1436 851 1436 851 1432 890 c 0,79,80
 1419 1025 1419 1025 1379 1100 c 0,81,82
 1323 1204 1323 1204 1226 1257 c 0,83,84
 1134 1307 1134 1307 1019 1307 c 0,85,86
 1012 1307 1012 1307 1006 1307 c 256,87,88
 889 1307 889 1307 786 1262 c 0,89,90
 607 1184 607 1184 500 1034 c 0,91,92
 446 958 446 958 410 799 c 0,93,94
 401 759 401 759 401 701 c 0,95,96
 401 658 401 658 405 620 c 0,97,98
 420 477 420 477 458 411 c 0,99,100
 524 301 524 301 606 257 c 0,101,102
 691 211 691 211 824 203 c 0,103,104
 843 203 843 203 843 203 c 0,69,70
EndSplineSet
Validated: 1
EndChar

StartChar: multiply
Encoding: 215 215 153
Width: 1272
GlyphClass: 2
Flags: W
DStem2: 200 535 377 359 0.720435 0.693522<5.45709 366.215 621.249 966.083> 813 794 636 618 0.719937 -0.69404<-599.143 -254.858 0 361.662>
LayerCount: 2
Fore
SplineSet
459 794 m 1,0,-1
 200 1028 l 1,1,-1
 377 1205 l 1,2,-1
 636 946 l 1,3,-1
 896 1205 l 1,4,-1
 1072 1028 l 1,5,-1
 813 794 l 1,6,-1
 1072 535 l 1,7,-1
 896 359 l 1,8,-1
 636 618 l 1,9,-1
 377 359 l 1,10,-1
 200 535 l 1,11,-1
 459 794 l 1,0,-1
EndSplineSet
Validated: 1
EndChar

StartChar: Oslash
Encoding: 216 216 154
Width: 1839
GlyphClass: 2
Flags: W
HStem: -20 223<758.859 1041.98> 1307 224<791.39 1083.19>
VStem: 100 301<435.108 922.238> 1436 303<586.725 1072.44>
DStem2: 510 337 757 210 0.511194 0.859465<17.1128 1124.18>
LayerCount: 2
Fore
SplineSet
843 203 m 1,0,1
 941 206 941 206 1042 246 c 0,2,3
 1220 316 1220 316 1334 477 c 0,4,5
 1404 575 1404 575 1425 709 c 0,6,7
 1436 779 1436 779 1436 816 c 0,8,9
 1436 851 1436 851 1432 890 c 0,10,11
 1418 1030 1418 1030 1379 1100 c 0,12,13
 1357 1140 1357 1140 1330 1173 c 1,14,-1
 757 210 l 1,15,16
 789 205 789 205 824 203 c 1,17,-1
 843 203 l 1,0,1
510 337 m 1,18,-1
 1085 1303 l 1,19,20
 1053 1307 1053 1307 1019 1307 c 2,21,-1
 1006 1307 l 2,22,23
 889 1307 889 1307 786 1262 c 0,24,25
 607 1184 607 1184 500 1034 c 0,26,27
 446 958 446 958 410 799 c 0,28,29
 401 759 401 759 401 701 c 0,30,31
 401 658 401 658 405 620 c 0,32,33
 420 474 420 474 458 411 c 0,34,35
 483 369 483 369 510 337 c 1,18,-1
378 114 m 1,36,37
 323 151 323 151 283 192 c 1,38,39
 190 301 190 301 153 389 c 0,40,41
 115 480 115 480 102 616 c 0,42,43
 100 642 100 642 100 675 c 0,44,45
 101 755 101 755 117 832 c 0,46,47
 155 1015 155 1015 292 1180 c 0,48,49
 451 1372 451 1372 658 1456 c 1,50,51
 847 1531 847 1531 1017 1531 c 2,52,-1
 1021 1531 l 2,53,54
 1123 1530 1123 1530 1209 1511 c 0,55,-1
 1531 1511 l 1,56,-1
 1463 1397 l 1,57,58
 1518 1360 1518 1360 1556 1319 c 0,59,60
 1647 1221 1647 1221 1686 1124 c 0,61,62
 1726 1025 1726 1025 1737 893 c 0,63,64
 1739 865 1739 865 1739 837 c 0,65,66
 1738 755 1738 755 1722 677 c 1,67,68
 1685 508 1685 508 1549 332 c 0,69,70
 1421 167 1421 167 1183 57 c 0,71,72
 1016 -20 1016 -20 838 -20 c 2,73,-1
 817 -20 l 2,74,75
 717 -20 717 -20 631 0 c 1,76,-1
 310 0 l 1,77,-1
 378 114 l 1,36,37
EndSplineSet
Validated: 1
EndChar

StartChar: Ugrave
Encoding: 217 217 155
Width: 1679
GlyphClass: 2
Flags: W
HStem: -20 234<628.241 970.984> 0 5<1634.96 1639> 0 0 1491 20G<464.818 780 1179 1479>
VStem: 100 303<454.373 973.414> 1179 300<398.891 1511>
DStem2: 849 2001 674 1824 0.713207 -0.700953<0 403.732>
LayerCount: 2
Fore
SplineSet
1479 1511 m 1,0,-1
 1479 219 l 2,1,2
 1479 163 1479 163 1529 97 c 0,3,4
 1574 37 1574 37 1639 5 c 2,5,-1
 1649 0 l 1,6,-1
 1309 0 l 1,7,-1
 1291 12 l 2,8,9
 1232 51 1232 51 1207 101 c 0,10,11
 1200 115 1200 115 1195 129 c 1,12,13
 1127 74 1127 74 1045 39 c 0,14,15
 906 -20 906 -20 784 -20 c 2,16,-1
 779 -20 l 2,17,18
 631 -19 631 -19 506 39 c 0,19,20
 370 102 370 102 284 188 c 0,21,22
 195 277 195 277 149 385 c 0,23,24
 110 478 110 478 102 617 c 0,25,26
 100 653 100 653 100 672 c 0,27,28
 100 831 100 831 137 951 c 0,29,30
 184 1102 184 1102 244 1200 c 0,31,32
 293 1280 293 1280 349 1358 c 0,33,34
 384 1407 384 1407 463 1489 c 1,35,-1
 483 1511 l 1,36,-1
 780 1511 l 1,37,-1
 724 1454 l 2,38,39
 688 1417 688 1417 588 1274 c 0,40,41
 530 1191 530 1191 483 1085 c 0,42,43
 438 983 438 983 419 891 c 0,44,45
 403 813 403 813 403 703 c 0,46,47
 403 671 403 671 407 627 c 0,48,49
 419 496 419 496 466 417 c 0,50,51
 530 308 530 308 621 261 c 0,52,53
 711 214 711 214 813 214 c 0,54,55
 873 214 873 214 948 247 c 0,56,57
 1042 289 1042 289 1103 356 c 0,58,59
 1179 440 1179 440 1179 588 c 2,60,-1
 1179 1511 l 1,61,-1
 1479 1511 l 1,0,-1
962 1540 m 1,62,-1
 674 1824 l 1,63,-1
 849 2001 l 1,64,-1
 1140 1715 l 1,65,-1
 962 1540 l 1,62,-1
EndSplineSet
Validated: 1
EndChar

StartChar: Uacute
Encoding: 218 218 156
Width: 1679
GlyphClass: 2
Flags: W
HStem: -20 234<628.241 970.984> 0 5<1634.96 1639> 0 0 1491 20G<464.818 780 1179 1479>
VStem: 100 303<454.373 973.414> 1179 300<398.891 1511>
DStem2: 780 1715 958 1540 0.713207 0.700953<4.28415 408.016>
LayerCount: 2
Fore
SplineSet
1479 1511 m 1,0,-1
 1479 219 l 2,1,2
 1479 163 1479 163 1529 97 c 0,3,4
 1574 37 1574 37 1639 5 c 2,5,-1
 1649 0 l 1,6,-1
 1309 0 l 1,7,-1
 1291 12 l 2,8,9
 1232 51 1232 51 1207 101 c 0,10,11
 1200 115 1200 115 1195 129 c 1,12,13
 1127 74 1127 74 1045 39 c 0,14,15
 906 -20 906 -20 784 -20 c 2,16,-1
 779 -20 l 2,17,18
 631 -19 631 -19 506 39 c 0,19,20
 370 102 370 102 284 188 c 0,21,22
 195 277 195 277 149 385 c 0,23,24
 110 478 110 478 102 617 c 0,25,26
 100 653 100 653 100 672 c 0,27,28
 100 831 100 831 137 951 c 0,29,30
 184 1102 184 1102 244 1200 c 0,31,32
 293 1280 293 1280 349 1358 c 0,33,34
 384 1407 384 1407 463 1489 c 1,35,-1
 483 1511 l 1,36,-1
 780 1511 l 1,37,-1
 724 1454 l 2,38,39
 688 1417 688 1417 588 1274 c 0,40,41
 530 1191 530 1191 483 1085 c 0,42,43
 438 983 438 983 419 891 c 0,44,45
 403 813 403 813 403 703 c 0,46,47
 403 671 403 671 407 627 c 0,48,49
 419 496 419 496 466 417 c 0,50,51
 530 308 530 308 621 261 c 0,52,53
 711 214 711 214 813 214 c 0,54,55
 873 214 873 214 948 247 c 0,56,57
 1042 289 1042 289 1103 356 c 0,58,59
 1179 440 1179 440 1179 588 c 2,60,-1
 1179 1511 l 1,61,-1
 1479 1511 l 1,0,-1
958 1540 m 1,62,-1
 780 1715 l 1,63,-1
 1071 2001 l 1,64,-1
 1246 1824 l 1,65,-1
 958 1540 l 1,62,-1
EndSplineSet
Validated: 1
EndChar

StartChar: Ucircumflex
Encoding: 219 219 157
Width: 1679
GlyphClass: 2
Flags: W
HStem: -20 234<628.241 970.984> 0 5<1634.96 1639> 0 0 1491 20G<464.818 780 1179 1479>
VStem: 100 303<454.373 973.414> 1179 300<398.891 1511>
LayerCount: 2
Fore
SplineSet
1479 1511 m 1,0,-1
 1479 219 l 2,1,2
 1479 163 1479 163 1529 97 c 0,3,4
 1574 37 1574 37 1639 5 c 2,5,-1
 1649 0 l 1,6,-1
 1309 0 l 1,7,-1
 1291 12 l 2,8,9
 1232 51 1232 51 1207 101 c 0,10,11
 1200 115 1200 115 1195 129 c 1,12,13
 1127 74 1127 74 1045 39 c 0,14,15
 906 -20 906 -20 784 -20 c 2,16,-1
 779 -20 l 2,17,18
 631 -19 631 -19 506 39 c 0,19,20
 370 102 370 102 284 188 c 0,21,22
 195 277 195 277 149 385 c 0,23,24
 110 478 110 478 102 617 c 0,25,26
 100 653 100 653 100 672 c 0,27,28
 100 831 100 831 137 951 c 0,29,30
 184 1102 184 1102 244 1200 c 0,31,32
 293 1280 293 1280 349 1358 c 0,33,34
 384 1407 384 1407 463 1489 c 1,35,-1
 483 1511 l 1,36,-1
 780 1511 l 1,37,-1
 724 1454 l 2,38,39
 688 1417 688 1417 588 1274 c 0,40,41
 530 1191 530 1191 483 1085 c 0,42,43
 438 983 438 983 419 891 c 0,44,45
 403 813 403 813 403 703 c 0,46,47
 403 671 403 671 407 627 c 0,48,49
 419 496 419 496 466 417 c 0,50,51
 530 308 530 308 621 261 c 0,52,53
 711 214 711 214 813 214 c 0,54,55
 873 214 873 214 948 247 c 0,56,57
 1042 289 1042 289 1103 356 c 0,58,59
 1179 440 1179 440 1179 588 c 2,60,-1
 1179 1511 l 1,61,-1
 1479 1511 l 1,0,-1
956 1690 m 1,62,-1
 799 1547 l 1,63,-1
 624 1724 l 1,64,-1
 954 2001 l 1,65,-1
 1298 1719 l 1,66,-1
 1123 1547 l 1,67,-1
 956 1690 l 1,62,-1
EndSplineSet
Validated: 1
EndChar

StartChar: Udieresis
Encoding: 220 220 158
Width: 1679
GlyphClass: 2
Flags: W
HStem: -20 234<628.241 970.984> 0 5<1634.96 1639> 0 0 1491 20G<464.818 780 1179 1479> 1615 355<641.115 874.753 1051.11 1283.75>
VStem: 100 303<454.373 973.414> 583 352<1675.27 1908.9> 992 352<1675.27 1910.05> 1179 300<398.891 1511>
LayerCount: 2
Fore
SplineSet
1479 1511 m 1,0,-1
 1479 219 l 2,1,2
 1479 163 1479 163 1529 97 c 0,3,4
 1574 37 1574 37 1639 5 c 2,5,-1
 1649 0 l 1,6,-1
 1309 0 l 1,7,-1
 1291 12 l 2,8,9
 1232 51 1232 51 1207 101 c 0,10,11
 1200 115 1200 115 1195 129 c 1,12,13
 1127 74 1127 74 1045 39 c 0,14,15
 906 -20 906 -20 784 -20 c 2,16,-1
 779 -20 l 2,17,18
 631 -19 631 -19 506 39 c 0,19,20
 370 102 370 102 284 188 c 0,21,22
 195 277 195 277 149 385 c 0,23,24
 110 478 110 478 102 617 c 0,25,26
 100 653 100 653 100 672 c 0,27,28
 100 831 100 831 137 951 c 0,29,30
 184 1102 184 1102 244 1200 c 0,31,32
 293 1280 293 1280 349 1358 c 0,33,34
 384 1407 384 1407 463 1489 c 1,35,-1
 483 1511 l 1,36,-1
 780 1511 l 1,37,-1
 724 1454 l 2,38,39
 688 1417 688 1417 588 1274 c 0,40,41
 530 1191 530 1191 483 1085 c 0,42,43
 438 983 438 983 419 891 c 0,44,45
 403 813 403 813 403 703 c 0,46,47
 403 671 403 671 407 627 c 0,48,49
 419 496 419 496 466 417 c 0,50,51
 530 308 530 308 621 261 c 0,52,53
 711 214 711 214 813 214 c 0,54,55
 873 214 873 214 948 247 c 0,56,57
 1042 289 1042 289 1103 356 c 0,58,59
 1179 440 1179 440 1179 588 c 2,60,-1
 1179 1511 l 1,61,-1
 1479 1511 l 1,0,-1
992 1793 m 0,62,63
 992 1865 992 1865 1043 1917 c 0,64,65
 1094 1970 1094 1970 1168 1970 c 0,66,67
 1240 1970 1240 1970 1292 1918 c 0,68,69
 1341 1868 1341 1868 1344 1795 c 1,70,71
 1344 1719 1344 1719 1292 1667 c 128,-1,72
 1240 1615 1240 1615 1168 1615 c 0,73,74
 1094 1615 1094 1615 1043 1668 c 0,75,76
 992 1720 992 1720 992 1793 c 0,62,63
583 1793 m 0,77,78
 583 1866 583 1866 633 1917 c 0,79,80
 684 1970 684 1970 759 1970 c 0,81,82
 831 1970 831 1970 883 1918 c 0,83,84
 932 1868 932 1868 935 1795 c 1,85,86
 935 1719 935 1719 883 1667 c 128,-1,87
 831 1615 831 1615 759 1615 c 0,88,89
 684 1615 684 1615 633 1668 c 0,90,91
 583 1719 583 1719 583 1793 c 0,77,78
EndSplineSet
Validated: 1
EndChar

StartChar: Yacute
Encoding: 221 221 159
Width: 1519
GlyphClass: 2
Flags: W
HStem: 0 21G<582 882> 1491 20G<5 341.51 824 1180>
VStem: 5 326<1185 1511> 582 300<0 413.113> 1121 298<843.02 1237.92>
DStem2: 331 1511 5 1511 0.46987 -0.882736<0 1040.42> 615 1715 793 1540 0.713207 0.700953<4.28415 408.016>
LayerCount: 2
Fore
SplineSet
582 0 m 17,0,-1
 582 427 l 1,1,-1
 5 1511 l 9,2,-1
 331 1511 l 25,3,-1
 815 590 l 1,4,5
 921 641 921 641 983 702 c 0,6,7
 1056 774 1056 774 1092 864 c 0,8,9
 1121 936 1121 936 1121 1032 c 2,10,-1
 1121 1051 l 2,11,12
 1121 1167 1121 1167 1065 1262 c 0,13,14
 982 1403 982 1403 837 1503 c 1,15,-1
 824 1511 l 9,16,-1
 1129 1511 l 17,17,18
 1231 1450 1231 1450 1316 1335 c 0,19,20
 1419 1196 1419 1196 1419 1052 c 0,21,22
 1419 942 1419 942 1375 843 c 0,23,24
 1329 739 1329 739 1206 613 c 0,25,26
 1091 495 1091 495 939 419 c 0,27,28
 909 404 909 404 882 394 c 1,29,-1
 882 0 l 9,30,-1
 582 0 l 17,0,-1
793 1540 m 1,31,-1
 615 1715 l 1,32,-1
 906 2001 l 1,33,-1
 1081 1824 l 1,34,-1
 793 1540 l 1,31,-1
EndSplineSet
Validated: 19457
EndChar

StartChar: Thorn
Encoding: 222 222 160
Width: 1550
GlyphClass: 2
Flags: W
HStem: 0 21G<200 500> 94 195<630.867 903.045> 1104 217<713.762 1024.9> 1506 5<40 43.9824> 1511 0
VStem: 200 300<0 902.938 1189 1405.79> 1151 299<539.188 972.156>
LayerCount: 2
Fore
SplineSet
200 0 m 1,0,-1
 200 1292 l 2,1,2
 200 1348 200 1348 150 1414 c 0,3,4
 104 1474 104 1474 40 1506 c 2,5,-1
 30 1511 l 1,6,-1
 370 1511 l 1,7,-1
 388 1499 l 2,8,9
 447 1460 447 1460 472 1410 c 0,10,11
 500 1355 500 1355 500 1293 c 2,12,-1
 500 1189 l 1,13,14
 560 1235 560 1235 628 1263 c 0,15,16
 766 1321 766 1321 899 1321 c 2,17,-1
 903 1321 l 1,18,19
 1039 1320 1039 1320 1133 1276 c 0,20,21
 1244 1224 1244 1224 1310 1155 c 0,22,23
 1378 1083 1378 1083 1413 997 c 0,24,25
 1444 920 1444 920 1449 811 c 0,26,27
 1450 790 1450 790 1450 756 c 0,28,29
 1450 702 1450 702 1438 641 c 0,30,31
 1410 506 1410 506 1307 367 c 0,32,33
 1210 236 1210 236 1087 172 c 0,34,35
 935 94 935 94 791 94 c 2,36,-1
 781 94 l 2,37,38
 686 94 686 94 618 147 c 0,39,40
 578 178 578 178 553 231 c 0,41,42
 542 254 542 254 535 285 c 2,43,-1
 524 334 l 1,44,-1
 567 313 l 1,45,46
 655 289 655 289 711 289 c 2,47,-1
 724 289 l 2,48,49
 736 289 736 289 750 290 c 0,50,51
 838 298 838 298 899 330 c 0,52,53
 1029 398 1029 398 1086 490 c 0,54,55
 1126 555 1126 555 1145 665 c 0,56,57
 1151 699 1151 699 1151 740 c 0,58,59
 1151 766 1151 766 1149 801 c 0,60,61
 1144 887 1144 887 1115 956 c 0,62,63
 1088 1019 1088 1019 1016 1067 c 0,64,65
 960 1104 960 1104 882 1104 c 2,66,-1
 874 1104 l 2,67,68
 795 1104 795 1104 723 1066 c 0,69,70
 627 1015 627 1015 577 952 c 1,71,72
 500 861 500 861 500 713 c 2,73,-1
 500 -0 l 1,74,-1
 200 0 l 1,0,-1
EndSplineSet
Validated: 1
EndChar

StartChar: germandbls
Encoding: 223 223 161
Width: 1557
GlyphClass: 2
Flags: W
HStem: -20 210<648.244 904.995> 0 21G<200 500> 1309 222<620.59 831.18>
VStem: 200 300<0 1141.05> 867 288<1094.73 1287.06> 1155 302<436.18 788.702>
LayerCount: 2
Fore
SplineSet
200 0 m 1,0,-1
 200 929 l 2,1,2
 200 1036 200 1036 240 1130 c 1,3,4
 288 1249 288 1249 349 1321 c 0,5,6
 435 1422 435 1422 528 1467 c 0,7,8
 658 1531 658 1531 781 1531 c 2,9,-1
 785 1531 l 1,10,11
 894 1530 894 1530 988 1481 c 0,12,13
 1092 1427 1092 1427 1126 1360 c 0,14,15
 1155 1301 1155 1301 1155 1245 c 0,16,17
 1155 1193 1155 1193 1131 1137 c 0,18,19
 1115 1099 1115 1099 1092 1066 c 1,20,21
 1115 1062 1115 1062 1132 1056 c 0,22,23
 1259 1011 1259 1011 1333 936 c 0,24,25
 1408 860 1408 860 1433 777 c 0,26,27
 1457 698 1457 698 1457 627 c 2,28,-1
 1457 622 l 2,29,30
 1457 545 1457 545 1430 452 c 0,31,32
 1393 325 1393 325 1293 212 c 0,33,34
 1215 125 1215 125 1095 56 c 0,35,36
 965 -20 965 -20 790 -20 c 2,37,-1
 786 -20 l 2,38,39
 697 -20 697 -20 623 43 c 0,40,41
 580 79 580 79 558 130 c 0,42,43
 544 161 544 161 540 186 c 2,44,-1
 533 225 l 1,45,-1
 572 214 l 2,46,47
 657 190 657 190 716 190 c 0,48,49
 724 190 724 190 733 190 c 0,50,51
 747 190 747 190 753 191 c 0,52,53
 852 208 852 208 905 233 c 0,54,55
 1026 290 1026 290 1091 397 c 0,56,57
 1129 461 1129 461 1147 543 c 0,58,59
 1155 583 1155 583 1155 625 c 0,60,61
 1155 638 1155 638 1153 655 c 0,62,63
 1146 717 1146 717 1123 766 c 0,64,65
 1097 823 1097 823 1034 869 c 1,66,67
 976 909 976 909 905 909 c 2,68,-1
 899 909 l 2,69,70
 831 909 831 909 764 899 c 0,71,72
 675 885 675 885 563 839 c 1,73,74
 578 853 578 853 594 867 c 0,75,76
 664 927 664 927 736 994 c 0,77,78
 820 1071 820 1071 843 1113 c 0,79,80
 867 1158 867 1158 867 1212 c 2,81,-1
 867 1220 l 2,82,83
 867 1258 867 1258 832 1288 c 0,84,85
 806 1309 806 1309 749 1309 c 0,86,87
 745 1309 745 1309 731 1308 c 0,88,89
 661 1303 661 1303 609 1254 c 0,90,91
 556 1204 556 1204 538 1172 c 0,92,93
 500 1104 500 1104 500 1032 c 2,94,-1
 500 0 l 1,95,-1
 200 0 l 1,0,-1
EndSplineSet
Validated: 1
EndChar

